<?xml version="1.0" standalone="no"?>
<!DOCTYPE svg PUBLIC "-//W3C//DTD SVG 1.1//EN" "http://www.w3.org/Graphics/SVG/1.1/DTD/svg11.dtd" >
<svg xmlns="http://www.w3.org/2000/svg" xmlns:xlink="http://www.w3.org/1999/xlink" version="1.1">
<metadata>
Created by FontForge 20170924 at Fri Oct  1 21:51:35 2021
 By www-data
Copyright \(c\) Niskala Huruf
</metadata>
<defs>
<font id="SunnySpells-Regular" horiz-adv-x="392" >
  <font-face 
    font-family="Sunny Spells"
    font-weight="400"
    font-stretch="normal"
    units-per-em="1000"
    panose-1="0 0 0 0 0 0 0 0 0 0"
    ascent="800"
    descent="-200"
    x-height="616"
    cap-height="619"
    bbox="-59 -198 697.274 782"
    underline-thickness="50"
    underline-position="-125"
    stemh="98"
    stemv="107"
    unicode-range="U+000D-FB02"
  />
<missing-glyph horiz-adv-x="260" 
 />
    <glyph glyph-name="fi" unicode="fi" horiz-adv-x="382" 
d="M302 495c-32 0 -52 48 -102 48c-38 0 -42 -36 -42 -79v-62h52c23 0 28 -25 28 -42c0 -19 -7 -48 -29 -48h-50v-203c0 -90 -34 -109 -65 -109h-2c-39 0 -42 56 -42 121v191h-16c-14 0 -25 21 -25 50s11 40 25 40h16v48c0 119 46 181 140 181c49 0 175 -6 175 -78
c0 -35 -28 -58 -63 -58zM77 471c8 0 7 25 8 29c5 37 26 67 51 91c3 2 -1 8 -3 8c-29 0 -62 -66 -62 -108c0 -6 0 -20 6 -20zM306 -4c-32 0 -50 16 -50 36v388c0 25 11 67 50 67s56 -36 56 -62v-393c0 -21 -24 -36 -56 -36zM274 390c8 0 3 37 8 54c1 5 6 18 2 18
c-14 0 -19 -34 -19 -46s3 -26 9 -26zM90 29c0 14 -18 29 -19 45c0 4 0 22 -6 22s-4 -12 -4 -18c0 -10 8 -64 21 -62c5 1 8 9 8 13z" />
    <glyph glyph-name="fl" unicode="fl" horiz-adv-x="443" 
d="M92 0c-39 0 -42 56 -42 121v191h-16c-14 0 -25 21 -25 50s11 40 25 40h16v48c0 119 46 181 135 181c41 0 68 -20 87 -45c6 19 22 32 50 32c39 0 52 -34 52 -52v-429c0 -27 1 -43 13 -43h11c20 0 31 -22 31 -47c0 -34 -17 -47 -44 -47h-44c-68 0 -72 47 -72 113v346
c-9 31 -39 83 -79 83c-17 0 -32 -10 -32 -97v-43h62c23 0 28 -25 28 -42c0 -19 -7 -48 -29 -48h-60v-203c0 -90 -34 -109 -65 -109h-2zM295 564c7 0 11 1 19 14c7 12 9 29 -2 29c-15 0 -29 -18 -29 -32c0 -10 9 -11 12 -11zM77 471c8 0 7 25 8 29c5 37 26 67 51 91
c3 2 -1 8 -3 8c-29 0 -62 -66 -62 -108c0 -6 0 -20 6 -20zM90 29c0 14 -18 29 -19 45c0 4 0 22 -6 22s-4 -12 -4 -18c0 -10 8 -64 21 -62c5 1 8 9 8 13z" />
    <glyph glyph-name=".notdef" horiz-adv-x="260" 
 />
    <glyph glyph-name="uni0000" horiz-adv-x="0" 
 />
    <glyph glyph-name="uni0000" horiz-adv-x="0" 
 />
    <glyph glyph-name="uni000D" unicode="&#xd;" horiz-adv-x="250" 
 />
    <glyph glyph-name="space" unicode=" " horiz-adv-x="275" 
 />
    <glyph glyph-name="period" unicode="." horiz-adv-x="146" 
d="M66 -6c-33 0 -60 22 -60 58c0 35 26 69 63 69c39 0 59 -21 59 -60c0 -32 -26 -67 -62 -67zM32 41c6 0 6 13 8 18c5 14 16 24 24 38c1 2 -1 8 -4 8c-15 1 -34 -38 -34 -52c0 -3 0 -12 6 -12z" />
    <glyph glyph-name="A" unicode="A" horiz-adv-x="451" 
d="M231 621c42 0 72 -15 82 -34c23 -47 124 -491 124 -539c0 -27 -34 -51 -66 -51c-15 0 -27 5 -33 14c-12 16 -32 86 -43 141c-5 26 -16 29 -29 29c-38 0 -69 1 -84 1c-26 0 -38 -6 -42 -20l-26 -100c-10 -39 -36 -64 -65 -64c-24 0 -36 17 -36 50c0 69 50 311 94 449
c33 101 61 124 124 124zM170 561c14 17 31 36 22 37c-11 2 -22 -5 -32 -19c-15 -22 -24 -55 -13 -57c6 -1 8 22 23 39zM186 377c-14 -75 -21 -100 -9 -100h88c10 0 2 26 -8 80c-5 28 -18 155 -33 155c-14 0 -34 -114 -38 -135zM45 63c3 16 -1 26 -6 27c-2 0 -7 -3 -9 -13
c-5 -26 -1 -56 10 -59c6 -1 8 4 4 15c-3 8 -1 18 1 30zM350 64c-9 18 -10 24 -13 24s-4 -4 -5 -10c-1 -12 15 -61 29 -62c8 -1 -3 33 -11 48z" />
    <glyph glyph-name="B" unicode="B" horiz-adv-x="406" 
d="M66 0c-37 0 -49 25 -49 103v428c0 57 15 85 60 85c25 0 40 -18 40 -30c0 -21 -1 -34 6 -34c8 0 30 71 102 71c87 0 148 -72 148 -162c0 -162 -150 -142 -150 -151s169 13 169 -146c0 -107 -108 -164 -196 -164h-130zM53 535c0 0 -5 6 -5 17c0 25 29 40 29 46
c0 4 -3 5 -10 5c-18 0 -36 -25 -36 -58c0 -15 4 -26 11 -26c4 0 11 7 11 16zM150 361h30c45 0 79 38 79 95c0 40 -18 70 -54 70c-48 0 -74 -42 -74 -81v-52c0 -18 9 -32 19 -32zM159 91h28c48 0 91 25 91 84s-46 79 -103 79h-25c-11 0 -19 -15 -19 -40v-87
c0 -32 3 -36 28 -36zM43 73c6 0 6 63 6 75c0 38 -4 42 -8 42c-3 0 -7 -3 -7 -42c0 -57 1 -75 9 -75zM43 59c-5 0 -8 -5 -8 -11c0 -11 5 -13 9 -13c3 0 6 6 6 13c0 9 0 11 -7 11z" />
    <glyph glyph-name="C" unicode="C" horiz-adv-x="386" 
d="M212 -10c-122 0 -201 123 -201 302c0 189 88 331 212 331c83 0 149 -63 149 -142c0 -37 -14 -57 -41 -57c-31 0 -54 27 -55 63c-1 27 -14 41 -39 41c-66 0 -107 -98 -107 -238c0 -126 32 -202 93 -202c29 0 52 18 52 42c0 26 29 53 56 53c24 0 40 -23 40 -57
c0 -74 -73 -136 -159 -136zM95 513c9 -1 68 81 109 78c7 -1 14 3 14 7c1 5 -4 9 -11 10c-45 4 -113 -60 -116 -90c0 -5 3 -5 4 -5zM85 502c-6 0 -13 -10 -14 -20c0 -5 1 -9 3 -9c9 -1 22 28 11 29z" />
    <glyph glyph-name="D" unicode="D" horiz-adv-x="409" 
d="M107 0c-48 0 -91 19 -91 88v428c0 73 53 102 115 102h45c114 0 221 -108 221 -292c0 -196 -109 -326 -235 -326h-55zM144 96h13c70 0 124 92 124 233c0 126 -45 191 -108 191h-15c-23 0 -28 -7 -28 -40v-348c0 -27 5 -36 14 -36zM47 83c11 0 6 65 6 78c0 38 -2 55 -6 55
s-9 -15 -9 -55c0 -59 -1 -78 9 -78zM46 69c-5 0 -7 -5 -7 -11c0 -11 4 -18 8 -18s7 10 7 18c0 9 -1 11 -8 11z" />
    <glyph glyph-name="E" unicode="E" horiz-adv-x="362" 
d="M195 -4c-101 0 -172 26 -172 122v409c0 70 44 89 78 89h195c24 0 36 -22 36 -45s-11 -50 -32 -51l-141 -4c-13 0 -22 -11 -22 -24v-92c0 -20 7 -30 22 -30l119 1c26 0 33 -25 33 -52c0 -17 -5 -39 -32 -40l-115 -4c-21 -1 -27 -10 -27 -31v-66c0 -56 -2 -89 66 -89
c44 0 91 30 117 30c18 0 26 -34 26 -54c0 -54 -111 -69 -151 -69zM87 60c-16 21 -29 42 -32 62c-2 9 -5 14 -9 13c-4 0 -7 -7 -5 -18c3 -25 24 -74 47 -71c4 1 5 6 -1 14z" />
    <glyph glyph-name="F" unicode="F" horiz-adv-x="337" 
d="M85 0c-36 0 -62 9 -62 49v494c0 52 42 74 102 74l170 -1c15 0 29 -18 29 -37s-9 -60 -24 -60l-137 1c-18 0 -26 -8 -26 -26v-149c0 -13 10 -19 23 -19l106 3c20 1 35 -33 35 -53c0 -26 -11 -39 -38 -40l-106 -3c-11 0 -20 -9 -20 -20v-165c0 -43 -28 -48 -52 -48zM73 26
c-1 7 -17 19 -20 52c-2 17 -8 19 -11 19c-2 0 -5 -9 -3 -22c1 -13 10 -58 28 -56c3 0 6 2 6 7z" />
    <glyph glyph-name="G" unicode="G" horiz-adv-x="439" 
d="M241 -5c-180 0 -227 198 -227 333c0 150 58 297 228 297c83 0 158 -42 158 -159c0 -43 -41 -49 -58 -49c-19 0 -39 10 -39 49c0 60 -31 81 -70 81c-54 0 -101 -91 -101 -233c0 -78 14 -232 111 -232c78 0 81 89 79 132c-1 21 -19 19 -49 19h-51c-16 0 -26 37 -26 53
c0 21 14 41 44 41l108 -1c41 0 81 -28 81 -77c0 -115 -47 -254 -188 -254zM146 58c0 4 -7 12 -20 26c-24 24 -51 77 -51 89c0 7 -6 8 -7 8c-5 0 -8 -4 -8 -11c0 -30 54 -118 80 -118c3 0 6 1 6 6zM169 45c0 4 -4 7 -7 7c-5 0 -7 -5 -7 -8c0 -6 5 -7 7 -7c3 0 7 3 7 8z" />
    <glyph glyph-name="H" unicode="H" horiz-adv-x="382" 
d="M310 0c-45 0 -50 56 -50 92v145c0 17 -2 26 -13 26h-107c-13 0 -18 -3 -18 -16v-142c0 -38 -9 -105 -52 -105c-49 0 -60 47 -60 105v441c0 16 10 70 57 70c40 0 55 -43 55 -72v-175c0 -11 2 -20 13 -20l114 -1c7 0 11 1 11 19v173c0 50 17 76 45 76s67 -21 67 -79v-446
c0 -37 -19 -91 -62 -91zM27 555c8 -1 27 29 30 38c1 4 1 12 -3 11c-18 -4 -29 -33 -29 -41c0 -2 -1 -7 2 -8zM297 575c1 10 14 24 6 25c-10 1 -24 -14 -27 -32c-1 -10 1 -15 5 -16c11 -1 15 18 16 23zM52 30c0 3 -1 6 -4 9c-7 7 -9 32 -9 47c0 10 -1 17 -7 17
c-5 0 -6 -13 -6 -17c0 -11 4 -59 20 -59c3 0 6 0 6 3zM298 26c-8 8 -15 39 -15 51c0 2 -1 4 -2 4c-4 0 -7 -12 -7 -23c0 -16 5 -41 24 -41c4 0 3 6 0 9z" />
    <glyph glyph-name="I" unicode="I" horiz-adv-x="232" 
d="M53 1c-14 0 -35 4 -35 23c0 13 14 26 36 26c9 0 14 9 14 18v480c0 10 -14 19 -24 19c-28 0 -35 13 -35 27c0 18 25 25 113 25c79 0 96 -4 96 -18c0 -19 -20 -31 -32 -35c-6 -2 -11 -8 -11 -19v-479c0 -6 1 -18 7 -20c13 -4 24 -6 28 -9c2 -2 5 -6 5 -12
c0 -7 -3 -15 -8 -19c-8 -7 -39 -7 -74 -8c-30 -1 -67 1 -80 1zM102 149c0 28 -3 49 -9 49c-9 0 -12 -91 -4 -99s13 1 13 50zM102 77c0 7 -8 7 -8 7c-5 0 -10 0 -10 -7c0 -5 3 -8 9 -8c5 0 9 3 9 8z" />
    <glyph glyph-name="J" unicode="J" horiz-adv-x="357" 
d="M175 -8c-121 0 -167 72 -167 157c0 72 21 91 42 91s52 -8 52 -52s3 -107 56 -107c48 0 63 24 63 118c0 51 1 121 1 213v105c0 11 -12 19 -23 19h-41c-71 0 -99 12 -99 43c0 39 39 37 152 37c80 0 118 -8 124 -32c2 -7 1 -133 0 -231c-2 -172 2 -210 -12 -263
c-18 -66 -92 -98 -148 -98zM115 594c1 2 2 5 -2 6c-9 3 -33 -4 -36 -13c-1 -4 0 -10 3 -11c11 -3 33 10 35 18zM29 144c7 1 8 24 9 29c2 13 5 29 14 41c2 2 5 5 4 9c0 2 -4 5 -6 4c-24 -2 -30 -56 -29 -64c1 -11 4 -20 8 -19z" />
    <glyph glyph-name="K" unicode="K" horiz-adv-x="389" 
d="M68 0c-55 0 -48 68 -48 105v99l-1 198v99c0 71 6 115 59 115c30 0 58 -27 58 -67c0 -19 -5 -182 4 -182c16 0 129 249 174 249c25 0 61 -15 61 -49c0 -33 -146 -242 -146 -254c0 -18 155 -226 155 -265c0 -34 -53 -49 -73 -49c-19 0 -40 30 -56 58
c-15 27 -98 189 -113 189c-11 0 -8 -21 -8 -31v-51l1 -39v-23c0 -67 -20 -102 -67 -102zM38 561c12 -2 25 24 28 35c1 4 -4 8 -8 8c-10 0 -24 -31 -23 -39c0 -2 1 -4 3 -4zM288 558c9 -1 36 28 34 38c0 3 -3 4 -4 4c-9 3 -39 -29 -37 -36c1 -3 3 -5 7 -6zM53 70
c0 11 0 64 -10 64c-9 0 -11 -33 -11 -39c0 -10 0 -52 15 -52c6 0 6 24 6 27zM314 21c0 8 -19 38 -28 38c-3 0 -4 -6 -4 -9c0 -9 14 -35 26 -35c3 0 6 3 6 6zM63 25c2 5 -3 11 -8 11c-6 0 -10 -6 -8 -11c1 -4 4 -8 8 -8s7 4 8 8z" />
    <glyph glyph-name="L" unicode="L" horiz-adv-x="321" 
d="M60 0c-15 0 -28 12 -28 27v526c0 28 5 63 58 63c30 0 56 -30 56 -56v-439c0 -24 11 -27 23 -27c46 0 67 3 113 3c19 0 24 -25 24 -43c0 -27 -21 -55 -39 -55h-47l-83 1h-77zM50 549c8 0 27 42 28 50c0 3 -4 5 -8 5c-14 -1 -27 -38 -25 -49c0 -3 2 -6 5 -6zM61 59
c13 0 10 68 10 96c0 11 -2 36 -14 36c-8 0 -8 -54 -8 -61c0 -8 2 -71 12 -71zM78 30c0 6 -4 11 -7 11c-7 0 -10 -5 -10 -11c0 -5 3 -8 8 -8c4 0 9 3 9 8z" />
    <glyph glyph-name="M" unicode="M" horiz-adv-x="492" 
d="M410 0c-48 0 -48 62 -48 92l3 294c0 9 -2 24 -10 24c-20 0 -77 -142 -117 -142c-32 0 -79 92 -103 130c-3 5 -5 7 -7 7c-4 0 -5 -13 -5 -22v-295c0 -60 -30 -88 -66 -88c-20 0 -35 22 -35 84v363c0 52 -1 115 16 143c8 13 21 26 37 26c65 0 131 -174 155 -201
c3 -4 7 -6 10 -6s6 2 8 6c25 38 98 201 149 201c71 0 78 -105 78 -136v-392c0 -44 -27 -88 -65 -88zM47 514c2 21 12 54 28 79c3 4 -4 7 -7 7c-16 1 -33 -45 -34 -68c-1 -10 -1 -24 4 -25c4 0 9 3 9 7zM406 22c0 14 -13 31 -13 55c0 6 -2 14 -11 14c-5 0 -7 -7 -7 -12
c0 -14 11 -62 28 -62c2 0 3 2 3 5zM60 19c0 9 -14 45 -24 45c-6 0 0 -52 19 -52c3 0 5 4 5 7z" />
    <glyph glyph-name="N" unicode="N" horiz-adv-x="439" 
d="M72 0c-46 0 -53 57 -53 103v460c0 36 25 53 48 53c35 0 67 -13 92 -63c47 -93 78 -160 123 -253c7 -15 14 -25 20 -25c4 0 7 6 7 18v246c0 43 6 77 57 77c50 0 49 -33 49 -54v-449c0 -66 -9 -113 -39 -113c-26 0 -51 22 -63 41s-121 201 -166 308c-6 15 -10 22 -14 22
c-5 0 -7 -21 -7 -67v-159c0 -104 -16 -145 -54 -145zM340 547c4 11 6 32 13 41s-1 14 -5 15c-15 2 -31 -71 -17 -73c1 0 5 3 9 17zM44 544c2 13 7 33 11 42c4 8 4 14 0 14s-10 -2 -17 -19s-11 -63 -3 -63c5 0 7 9 9 26zM44 490c0 2 -1 7 -5 7c-5 0 -7 -6 -7 -7
c0 -5 1 -9 5 -9s7 4 7 9zM69 23c0 5 -20 21 -20 51c0 8 -2 11 -5 11s-5 -4 -5 -14c0 -26 15 -53 25 -53c2 0 5 3 5 5z" />
    <glyph glyph-name="O" unicode="O" horiz-adv-x="444" 
d="M231 -9c-146 0 -215 156 -215 305s61 329 216 329c140 0 202 -157 202 -334c0 -147 -62 -300 -203 -300zM79 468c7 -1 22 35 36 53c29 38 61 62 61 68c0 2 -1 3 -5 4c-32 0 -96 -88 -96 -120c0 -2 2 -5 4 -5zM231 71c79 0 96 133 96 228s-9 234 -95 234
c-84 0 -102 -173 -102 -237c0 -65 11 -225 101 -225zM80 446c0 4 -3 9 -7 10c-4 0 -13 -5 -13 -15c0 -6 4 -9 8 -9s12 4 12 14z" />
    <glyph glyph-name="P" unicode="P" horiz-adv-x="396" 
d="M71 0c-27 0 -54 17 -54 69v457c0 57 49 90 103 90h59c82 0 202 -61 202 -219s-116 -248 -195 -248h-29c-12 0 -26 -5 -26 -17v-67c0 -47 -33 -65 -60 -65zM162 238h13c44 0 92 40 92 147c0 115 -48 147 -89 147h-22c-16 0 -25 -12 -25 -34v-237c0 -15 11 -23 31 -23z
M57 35c-7 7 -12 26 -12 45c0 15 -3 25 -7 25c-6 0 -8 -13 -8 -29c0 -32 11 -56 24 -56c3 0 8 3 8 6s-2 6 -5 9z" />
    <glyph glyph-name="Q" unicode="Q" horiz-adv-x="454" 
d="M438 291c0 -148 -74 -211 -74 -227c0 -8 52 -5 59 -5c19 0 18 -25 18 -39c0 -39 -19 -30 -53 -30h-38l-77 1h-38c-150 0 -215 180 -215 305c0 126 61 329 216 329c172 0 202 -201 202 -334zM87 483c7 -1 23 33 39 51c30 36 65 58 66 63c0 3 -1 5 -4 5
c-18 2 -52 -28 -72 -53c-23 -30 -32 -52 -33 -62c0 -1 1 -4 4 -4zM235 71c97 0 96 161 96 228c0 95 -9 234 -95 234c-84 0 -102 -173 -102 -237c0 -65 11 -225 101 -225zM86 460c0 5 -3 11 -6 11c-4 0 -13 -4 -14 -14c-1 -6 3 -9 7 -9c4 -1 12 3 13 12z" />
    <glyph glyph-name="R" unicode="R" horiz-adv-x="365" 
d="M313 0c-30 0 -40 26 -49 44c-18 36 -78 191 -112 191h-10c-7 0 -13 -11 -13 -27v-140c0 -41 -22 -68 -60 -68c-41 0 -50 46 -50 69v458c0 69 7 89 66 89h83c88 0 176 -51 176 -171c0 -102 -57 -160 -101 -176c-3 -1 -6 -4 -6 -8c0 -2 1 -5 5 -9c55 -55 123 -122 123 -212
c0 -27 -28 -40 -52 -40zM173 331c40 0 72 49 72 114c0 52 -17 79 -69 81l-24 1c-17 1 -19 -4 -19 -24v-159c0 -9 6 -13 18 -13h22zM67 27c0 7 -7 5 -10 12c-11 26 -10 57 -18 57c-3 0 -7 -6 -7 -18c0 -11 10 -61 27 -61c3 0 8 3 8 10zM310 20c-1 4 -11 10 -14 15
s-11 24 -12 37c0 11 -5 23 -8 23c-5 -1 -7 -17 -6 -35s13 -47 31 -46c5 0 9 3 9 6z" />
    <glyph glyph-name="S" unicode="S" horiz-adv-x="357" 
d="M175 -9c-83 0 -163 66 -163 136c0 41 27 71 63 69c23 -1 32 -15 32 -50c0 -49 17 -70 58 -70c42 0 64 22 64 65c0 57 -38 92 -74 128c-96 96 -133 154 -133 208c0 91 61 147 159 147c69 0 144 -49 144 -93c0 -40 -27 -79 -61 -79c-16 0 -39 14 -40 37
c-1 27 -18 42 -47 42s-42 -15 -42 -48c0 -41 20 -73 91 -146c87 -89 115 -135 115 -186c0 -94 -69 -160 -166 -160zM80 543c5 9 16 24 26 32c10 7 14 18 10 18c-17 2 -57 -46 -59 -69c0 -4 2 -6 6 -6c7 -1 9 12 17 25zM64 498c0 4 -3 7 -6 7c-4 0 -8 -5 -8 -8s2 -5 7 -6
c3 0 6 3 7 7zM49 129c7 18 16 29 17 40c0 3 0 5 -3 5c-22 2 -39 -37 -29 -69c2 -5 5 -10 8 -10c7 0 0 16 7 34z" />
    <glyph glyph-name="T" unicode="T" horiz-adv-x="323" 
d="M162 0c-21 0 -53 16 -53 40v485c-33 0 -104 -4 -104 45c0 29 21 46 49 46h230c21 0 33 -23 33 -42c0 -47 -52 -49 -87 -49h-8v-478c0 -31 -33 -47 -60 -47zM28 553c2 0 5 3 5 7c0 11 4 26 12 38c2 3 -1 5 -5 5c-12 0 -21 -19 -21 -34c0 -5 2 -16 9 -16zM143 23
c6 0 9 3 9 9c0 3 -1 4 -4 5c-8 2 -11 22 -11 28s5 35 -5 35s-11 -26 -11 -32c0 -12 5 -45 22 -45z" />
    <glyph glyph-name="U" unicode="U" horiz-adv-x="423" 
d="M208 -4c-121 0 -195 91 -195 225v309c0 27 9 86 53 86s61 -16 61 -88v-300c0 -65 -8 -137 85 -137c88 0 83 112 83 193v247c0 27 8 87 50 87c41 0 63 -26 63 -86v-286c0 -151 -68 -250 -200 -250zM323 556c0 5 4 18 13 28c11 14 12 19 0 19c-6 0 -13 -8 -17 -15
c-3 -6 -9 -18 -10 -30c0 -7 1 -14 7 -14c7 0 7 5 7 12zM55 570c5 12 15 19 15 28c0 3 -1 5 -3 5c-4 0 -13 -3 -20 -13c-20 -28 -21 -55 -13 -55c6 0 14 16 21 35zM124 48c0 4 -12 12 -23 24c-10 11 -27 30 -36 50c-6 13 -13 18 -16 18s-4 -2 -4 -7c1 -22 46 -91 73 -91
c4 0 6 2 6 6zM147 39c0 1 -4 7 -8 7c-6 -1 -9 -6 -9 -9c1 -4 2 -8 8 -7c5 0 9 4 9 9z" />
    <glyph glyph-name="V" unicode="V" horiz-adv-x="432" 
d="M219 -5c-61 0 -77 33 -85 57c-62 194 -124 435 -124 519c0 39 35 45 63 45c20 0 31 -19 43 -73c20 -94 90 -380 95 -397c3 -10 6 -20 9 -20c5 0 8 8 11 20c27 95 92 427 117 461c5 7 13 10 21 10c9 0 53 -10 53 -26c0 -49 -116 -511 -145 -564c-8 -15 -28 -32 -58 -32z
M359 569c6 17 11 33 4 32c-12 -2 -23 -35 -21 -49c1 -5 4 -8 6 -8c6 2 4 6 11 25zM38 556c-1 10 -2 22 2 29c6 12 5 16 -1 15c-11 -1 -16 -28 -14 -54c1 -10 4 -14 8 -13c4 0 6 7 5 23zM174 46c-13 16 -14 40 -22 40s0 -32 11 -50s34 -23 37 -23c6 1 -12 14 -26 33z" />
    <glyph glyph-name="W" unicode="W" horiz-adv-x="579" 
d="M392 0c-62 0 -84 33 -102 87c-3 10 -6 36 -11 36c-3 0 -5 -11 -10 -26c-26 -69 -46 -97 -99 -97c-108 0 -155 77 -155 183v355c0 26 14 78 61 78c39 0 51 -31 51 -73l1 -350c0 -26 8 -98 44 -98c62 0 67 197 67 399c0 85 10 113 50 113c36 0 49 -19 49 -152
c0 -210 0 -270 13 -309c12 -38 25 -52 42 -52c39 0 59 47 59 145v316c0 29 9 61 50 61c42 0 61 -26 61 -61v-335c0 -112 -62 -220 -171 -220zM40 531c9 0 12 13 13 19c3 18 18 29 26 45c0 3 -3 8 -7 8c-17 0 -39 -39 -39 -60c0 -5 1 -12 7 -12zM485 549c0 13 5 24 10 33
c6 11 4 18 0 18c-6 0 -17 -4 -22 -17c-7 -21 -5 -46 6 -46c3 0 6 6 6 12zM266 543c0 1 3 18 7 26c9 17 12 23 8 23c-3 0 -12 -2 -18 -11c-15 -20 -12 -49 -2 -49c2 0 5 2 5 11zM117 37c-1 6 -25 21 -33 30c-14 15 -19 33 -25 32c-11 -1 3 -42 37 -65c5 -4 13 -6 16 -5
c3 0 5 3 5 8zM383 22c0 5 -6 6 -10 6c-7 1 -23 16 -31 29c-7 11 -13 16 -18 17c-1 0 -3 -2 -3 -5c-1 -6 21 -50 51 -52c5 0 10 -1 11 5z" />
    <glyph glyph-name="X" unicode="X" horiz-adv-x="424" 
d="M42 -3c-20 0 -38 17 -38 32c0 4 1 9 4 14l129 222c11 19 16 32 16 39c0 8 -6 20 -13 31l-112 191c-7 12 -14 28 -14 48c0 19 20 42 56 42c17 0 26 -8 53 -54l78 -132c8 -13 12 -22 15 -22s6 7 14 22l95 172c5 10 16 14 25 14c18 0 72 -16 51 -55l-113 -208
c-11 -20 -16 -32 -16 -37s8 -17 27 -51l123 -222c7 -12 -23 -43 -64 -43c-7 0 -19 2 -24 11l-103 178c-7 12 -13 24 -18 24s-8 -7 -20 -27l-93 -152c-17 -28 -36 -37 -58 -37zM344 576c0 4 4 10 11 17s10 11 5 11c-6 0 -16 -2 -22 -13c-8 -14 -4 -20 0 -20c3 0 6 2 6 5z
M45 563c0 16 11 20 10 25c-2 7 -5 8 -9 8c-12 0 -21 -33 -11 -52c3 -5 5 -6 8 -5c6 2 2 17 2 24zM365 13c1 2 -3 9 -11 14c-9 5 -20 35 -25 35c-2 0 -5 -2 -5 -6c-1 -10 15 -44 31 -46c4 0 10 -1 10 3zM33 20c-2 5 -11 14 -9 21c2 10 -2 10 -6 2c-5 -10 1 -27 8 -30
c5 -2 11 -1 7 7z" />
    <glyph glyph-name="Y" unicode="Y" horiz-adv-x="417" 
d="M208 0c-35 0 -53 27 -53 52v139c0 35 -7 50 -31 103l-119 262c-9 19 14 60 57 60c12 0 24 -5 31 -21l93 -218c6 -15 16 -35 24 -35s16 14 25 35l100 223c6 14 23 16 32 16c34 0 52 -42 42 -64l-125 -271c-19 -41 -19 -49 -19 -107v-122c0 -41 -33 -52 -57 -52zM36 551
c-3 10 -1 17 -2 24c-1 6 -4 13 -7 12c-15 -6 -9 -31 -5 -41c3 -6 8 -10 12 -9c5 2 4 9 2 14zM192 33c-2 5 -9 18 -11 41c-1 17 -3 23 -5 23c-1 0 -5 -4 -6 -16c-2 -42 10 -60 22 -60c5 0 3 6 0 12z" />
    <glyph glyph-name="Z" unicode="Z" horiz-adv-x="355" 
d="M78 0c-30 0 -69 13 -69 55c0 13 1 27 11 47l208 411c2 4 3 9 3 12c-1 4 -3 6 -11 6l-178 2c-17 0 -30 16 -30 36c0 39 23 49 48 49l246 -2c32 0 41 -37 41 -68c0 -20 -5 -40 -15 -60l-174 -330c-16 -30 -25 -48 -25 -58s9 -13 28 -13l148 -1c26 0 39 -21 39 -51
c0 -19 -16 -35 -27 -35h-243zM42 574c3 5 10 17 9 21c0 2 -6 7 -9 7c-14 -2 -17 -26 -15 -42c0 -3 3 -8 6 -8c5 1 8 19 9 22zM35 49c10 -1 24 54 25 68c0 1 -2 4 -4 4c-13 -1 -29 -41 -30 -50c-1 -11 3 -22 9 -22zM50 27c0 4 -1 7 -5 7c-6 0 -9 -4 -9 -9c0 -3 3 -6 5 -6
c4 0 9 4 9 8z" />
    <glyph glyph-name="a" unicode="a" horiz-adv-x="408" 
d="M158 -8c-89 0 -142 112 -142 299c0 203 62 324 168 330c76 4 97 -55 105 -55s-1 58 49 58c25 0 45 -14 45 -32v-388c0 -54 6 -108 6 -133c0 -47 -20 -79 -48 -79c-32 0 -54 40 -54 96c0 17 -2 26 -5 26c-12 0 -31 -122 -124 -122zM312 557c5 0 7 11 9 20c4 13 9 23 9 29
c0 4 -2 5 -4 5c-7 0 -21 -15 -21 -36c0 -10 3 -18 7 -18zM182 90c37 0 91 163 91 276c0 88 -33 163 -70 163c-44 0 -80 -101 -80 -223c0 -109 29 -216 59 -216zM110 33c5 0 9 6 8 10c-2 7 -29 33 -35 54c-4 11 -7 39 -15 39c-6 0 -7 -21 2 -47c10 -27 29 -56 40 -56zM339 22
c0 9 -23 21 -23 41c0 0 0 11 -7 11c-5 0 -7 -4 -7 -12c0 -21 15 -49 27 -49c5 0 10 5 10 9zM135 17c9 0 20 25 4 25c-7 0 -12 -5 -12 -12c0 -6 4 -13 8 -13z" />
    <glyph glyph-name="b" unicode="b" horiz-adv-x="399" 
d="M66 0c-37 0 -49 25 -49 103v428c0 57 15 85 60 85c25 0 80 3 148 3c87 0 148 -68 148 -158c0 -162 -150 -147 -150 -156s162 26 162 -143c0 -107 -101 -162 -189 -162h-130zM53 535c0 0 -5 6 -5 17c0 17 17 38 34 37c8 0 12 7 12 9c0 4 -7 7 -14 7c-26 0 -49 -27 -49 -60
c0 -15 4 -26 11 -26c4 0 11 7 11 16zM144 356h36c45 0 79 43 79 100c0 40 -18 70 -60 70h-53c-23 0 -21 -21 -21 -34v-104c0 -18 9 -32 19 -32zM153 91h34c48 0 84 23 84 82s-39 76 -96 76h-31c-11 0 -19 -15 -19 -40v-82c0 -32 3 -36 28 -36zM43 73c6 0 6 63 6 75
c0 38 -4 42 -8 42c-3 0 -7 -3 -7 -42c0 -57 1 -75 9 -75zM43 59c-5 0 -8 -5 -8 -11c0 -11 5 -13 9 -13c3 0 6 6 6 13c0 9 0 11 -7 11z" />
    <glyph glyph-name="c" unicode="c" horiz-adv-x="386" 
d="M212 -10c-122 0 -201 123 -201 302c0 189 88 331 212 331c99 0 157 -81 149 -225c-2 -37 -14 -57 -41 -57c-72 0 -52 61 -52 107c0 44 -19 80 -53 80c-55 0 -96 -98 -96 -238c0 -126 32 -202 93 -202c29 0 54 31 54 61c0 31 13 59 45 59s51 -29 51 -63
c0 -82 -68 -155 -161 -155zM79 480c9 0 53 92 93 96c7 1 14 5 13 9c0 5 -6 9 -13 8c-45 -3 -100 -79 -98 -109c1 -5 4 -5 5 -4zM66 470c-6 -1 -11 -12 -10 -22c1 -5 2 -9 4 -8c7 0 13 16 11 25c-1 3 -2 6 -5 5z" />
    <glyph glyph-name="d" unicode="d" horiz-adv-x="410" 
d="M66 0c-37 0 -49 25 -49 103v428c0 59 16 85 54 85c29 0 46 -16 46 -44c0 -7 -1 -20 3 -20c11 0 33 71 104 71c100 0 174 -138 174 -323c0 -188 -76 -300 -245 -300h-87zM53 526c0 0 -5 6 -5 17c0 25 29 40 29 46c0 4 -3 5 -10 5c-18 0 -36 -25 -36 -58
c0 -15 4 -26 11 -26c4 0 11 7 11 16zM187 91c59 0 96 79 96 206c0 130 -31 229 -83 229c-32 0 -69 -34 -69 -87v-312c0 -32 3 -36 28 -36h28zM43 73c6 0 6 63 6 75c0 38 -4 42 -8 42c-3 0 -7 -3 -7 -42c0 -57 1 -75 9 -75zM43 59c-5 0 -8 -5 -8 -11c0 -11 5 -13 9 -13
c3 0 6 6 6 13c0 9 0 11 -7 11z" />
    <glyph glyph-name="e" unicode="e" 
d="M210 -10c-119 0 -199 121 -199 302c0 192 90 331 214 331c91 0 155 -74 150 -173c-6 -116 -101 -223 -222 -223c-13 0 -17 -3 -17 -14c0 -85 33 -125 80 -125c34 0 61 29 61 67c0 32 19 53 46 53c30 0 50 -27 50 -69c0 -81 -74 -149 -163 -149zM80 477c9 0 53 92 93 96
c7 1 14 5 13 9c0 5 -6 9 -13 8c-45 -3 -100 -79 -98 -109c1 -5 4 -5 5 -4zM133 315c2 -3 7 -4 14 -4c69 0 132 75 132 143c0 43 -23 74 -54 74c-68 0 -106 -192 -92 -213zM67 467c-6 -1 -11 -12 -10 -22c1 -5 2 -9 4 -8c7 0 13 16 11 25c-1 3 -2 6 -5 5z" />
    <glyph glyph-name="f" unicode="f" horiz-adv-x="281" 
d="M92 0c-39 0 -42 56 -42 121v191h-16c-14 0 -25 21 -25 50s11 40 25 40h16v48c0 119 46 181 140 181c57 0 88 -36 88 -61c0 -24 -19 -56 -42 -56c-24 0 -17 28 -46 28c-17 0 -32 -10 -32 -97v-43h62c23 0 28 -25 28 -42c0 -19 -7 -48 -29 -48h-60v-203
c0 -90 -34 -109 -65 -109h-2zM77 471c8 0 7 25 8 29c5 37 26 67 51 91c3 2 -1 8 -3 8c-29 0 -62 -66 -62 -108c0 -6 0 -20 6 -20zM90 29c0 14 -18 29 -19 45c0 4 0 22 -6 22s-4 -12 -4 -18c0 -10 8 -64 21 -62c5 1 8 9 8 13z" />
    <glyph glyph-name="g" unicode="g" horiz-adv-x="443" 
d="M221 -5c-169 0 -207 198 -207 333c0 150 68 297 239 297c71 0 168 -28 168 -145c0 -43 -41 -49 -58 -49c-19 0 -39 10 -39 49c0 60 -50 60 -65 60c-70 0 -127 -84 -127 -226c0 -78 14 -232 111 -232c60 0 93 91 91 142c-1 21 -31 19 -61 19h-62c-16 0 -26 37 -26 53
c0 21 14 41 44 41l125 -1c35 0 75 -28 75 -88c0 -47 1 -80 1 -139c1 -90 -15 -109 -46 -109c-46 0 -37 80 -45 80c-9 0 -26 -85 -118 -85zM126 76c0 4 -5 12 -16 28c-20 28 -38 84 -36 96c1 7 -5 10 -6 10c-5 0 -9 -4 -10 -11c-5 -29 35 -125 60 -128c3 -1 7 0 8 5zM389 25
c0 10 -16 15 -17 31c0 4 0 19 -6 19s-7 -12 -7 -18c0 -14 9 -43 22 -43c7 0 8 7 8 11zM146 59c1 4 -3 8 -6 8c-5 1 -7 -4 -8 -7c-1 -6 4 -8 6 -8c3 0 7 3 8 7z" />
    <glyph glyph-name="h" unicode="h" 
d="M315 0c-46 0 -50 58 -50 92v146c0 10 1 30 -13 26l-107 -31c-12 -3 -18 -3 -18 -16v-112c0 -33 -7 -105 -52 -105c-56 0 -60 63 -60 105v437c0 33 20 70 57 70c38 0 55 -39 55 -72v-201c0 -9 1 -23 13 -20l114 30c12 3 11 10 11 19v172c0 29 7 76 45 76
c44 0 67 -39 67 -79v-446c0 -36 -18 -91 -62 -91zM286 552c9 0 25 37 25 45c0 2 -2 3 -4 3c-16 0 -26 -25 -26 -38c0 -3 1 -10 5 -10zM57 30c-3 17 -13 20 -13 56c0 5 0 17 -7 17c-5 0 -6 -13 -6 -17c0 -12 4 -59 20 -59zM306 20c0 3 -2 4 -3 6c-9 12 -15 36 -15 51l-2 4
c-6 0 -7 -19 -7 -23c0 -15 4 -41 24 -41c2 0 3 2 3 3z" />
    <glyph glyph-name="i" unicode="i" horiz-adv-x="156" 
d="M76 559c-34 0 -58 23 -58 57c0 36 24 61 60 61s61 -23 61 -56c0 -35 -28 -62 -63 -62zM44 618c4 23 23 21 23 32c0 6 -3 10 -10 10c-16 0 -28 -22 -28 -42c0 -9 1 -26 9 -26c6 0 5 22 6 26zM75 -4c-32 0 -50 16 -50 36v438c0 25 11 67 50 67s56 -36 56 -62v-443
c0 -21 -24 -36 -56 -36zM43 440c8 0 3 37 8 54c1 5 6 18 2 18c-14 0 -19 -34 -19 -46s3 -26 9 -26z" />
    <glyph glyph-name="j" unicode="j" horiz-adv-x="156" 
d="M76 559c-34 0 -58 23 -58 57c0 36 24 61 60 61s61 -23 61 -56c0 -35 -28 -62 -63 -62zM44 618c4 23 23 21 23 32c0 6 -3 10 -10 10c-16 0 -28 -22 -28 -42c0 -9 1 -26 9 -26c6 0 5 22 6 26zM131 82c0 -125 -30 -209 -133 -209c-41 0 -57 18 -57 55c0 21 5 51 24 51
c9 0 18 -5 28 -5c21 0 32 25 32 108v388c0 25 11 67 50 67s56 -36 56 -62v-393zM43 440c8 0 3 37 8 54c1 5 6 18 2 18c-14 0 -19 -34 -19 -46s3 -26 9 -26zM-15 -103c0 16 -17 25 -17 37c0 19 -4 23 -9 23c-4 0 -6 -11 -6 -21c0 -25 12 -47 22 -47c4 0 10 2 10 8z" />
    <glyph glyph-name="k" unicode="k" horiz-adv-x="398" 
d="M68 0c-55 0 -48 68 -48 105v99l-1 198v99c0 71 6 115 59 115c30 0 58 -27 58 -67c0 -19 -5 -191 4 -191c16 0 135 258 180 258c25 0 61 -15 61 -49c0 -33 -147 -231 -147 -243c0 -18 169 -237 169 -276c0 -34 -53 -49 -73 -49c-19 0 -40 30 -56 58
c-12 22 -81 133 -105 166c-4 6 -11 8 -17 0l-10 -13c-6 -8 -8 -17 -8 -32v-23l1 -30v-23c0 -67 -20 -102 -67 -102zM38 561c12 -2 29 22 32 33c1 4 -4 8 -8 8c-10 0 -28 -29 -27 -37c0 -2 1 -4 3 -4zM294 558c9 -1 32 29 30 39c0 3 -3 4 -4 4c-9 3 -35 -30 -33 -37
c1 -3 3 -5 7 -6zM53 81c0 11 0 77 -10 77c-9 0 -11 -33 -11 -39c0 -10 0 -65 15 -65c6 0 6 24 6 27zM333 21c0 8 -19 38 -28 38c-3 0 -4 -6 -4 -9c0 -9 14 -35 26 -35c3 0 6 3 6 6zM62 31c2 7 -4 15 -11 15c-8 0 -13 -8 -11 -15c2 -5 6 -10 11 -10s9 5 11 10z" />
    <glyph glyph-name="l" unicode="l" horiz-adv-x="192" 
d="M90 0c-68 0 -72 47 -72 113v450c0 29 14 55 53 55s52 -34 52 -52v-429c0 -27 1 -43 13 -43h11c20 0 31 -22 31 -47c0 -34 -17 -47 -44 -47h-44zM38 523c7 0 10 40 20 57c7 12 14 27 3 27c-15 0 -31 -20 -31 -56c0 -20 5 -28 8 -28z" />
    <glyph glyph-name="m" unicode="m" horiz-adv-x="584" 
d="M67 0c-41 0 -45 31 -45 65v477c0 29 0 74 43 74c54 0 47 -94 53 -94s15 98 102 98c74 0 92 -97 101 -97s22 97 107 97c109 0 133 -114 133 -264v-329c0 -18 -32 -27 -58 -27s-42 6 -42 26v321c0 32 5 174 -51 174c-48 0 -58 -77 -64 -188c-8 -131 -3 -279 -3 -302
c0 -19 -25 -31 -57 -31s-44 6 -44 38v309c0 30 5 175 -48 175c-72 0 -73 -206 -73 -255v-222c0 -25 -25 -45 -54 -45zM46 522c8 1 7 19 7 30c0 19 14 48 3 48c-19 0 -22 -42 -22 -50c0 -10 2 -29 12 -28zM277 23c0 13 -13 13 -13 28c0 5 1 33 -8 33c-6 0 -5 -30 -5 -34
c0 -16 4 -39 17 -39c5 0 9 5 9 12zM493 24c0 13 -11 21 -11 36c0 5 1 24 -7 24c-6 0 -6 -21 -6 -25c0 -9 3 -46 16 -46c5 0 8 8 8 11zM65 24c0 14 -7 11 -14 20c-4 5 1 33 -8 33c-6 0 -6 -17 -6 -26c0 -10 6 -37 19 -37c6 0 9 4 9 10z" />
    <glyph glyph-name="n" unicode="n" horiz-adv-x="391" 
d="M67 0c-33 0 -45 17 -45 65v477c0 58 9 74 48 74c25 0 55 -10 55 -45v-14c0 -27 1 -40 4 -40c10 0 21 103 118 103c85 0 122 -80 122 -264v-325c0 -20 -20 -31 -56 -31s-51 19 -51 34v313c0 138 -15 165 -51 165c-57 0 -81 -110 -81 -245v-222c0 -40 -45 -45 -63 -45z
M42 515c7 0 13 78 13 80c0 3 -1 8 -3 8c-14 0 -18 -47 -18 -56c0 -10 3 -32 8 -32zM299 29c0 16 -13 11 -13 31c0 21 -2 24 -8 24s-8 -12 -8 -25c0 -27 10 -44 20 -44c4 0 9 5 9 14zM66 26c0 12 -16 11 -16 30c0 13 -3 21 -7 21c-3 0 -6 -11 -6 -26c0 -20 10 -39 21 -39
c3 0 8 6 8 14z" />
    <glyph glyph-name="o" unicode="o" 
d="M197 -7c-140 0 -182 158 -182 305s41 325 182 325s180 -155 180 -316s-40 -314 -180 -314zM85 505c6 15 23 43 39 56c8 7 -2 16 -5 16c-15 0 -52 -61 -52 -86c0 -6 1 -8 5 -8c2 0 7 7 13 22zM197 56c66 0 79 168 79 252c0 58 -15 253 -79 253c-65 0 -76 -200 -76 -254
c0 -84 13 -251 76 -251zM71 461c0 13 -3 15 -9 15s-10 -9 -10 -17c0 -11 6 -14 10 -14c2 0 9 5 9 16z" />
    <glyph glyph-name="p" unicode="p" horiz-adv-x="388" 
d="M17 69v462c0 57 15 85 60 85c25 0 40 -18 40 -30c0 -21 2 -34 6 -34c8 0 30 71 102 71c87 0 148 -86 148 -218c0 -154 -67 -253 -177 -255l-45 -1c-20 0 -20 -30 -20 -55v-29c0 -47 -33 -65 -60 -65s-54 17 -54 69zM53 535c0 0 -5 6 -5 17c0 25 29 40 29 46
c0 4 -3 5 -10 5c-18 0 -36 -25 -36 -58c0 -15 4 -26 11 -26c4 0 11 7 11 16zM150 241h30c45 0 78 63 78 159c0 80 -17 126 -53 126c-48 0 -74 -42 -74 -81v-172c0 -18 9 -32 19 -32zM57 35c-7 7 -12 26 -12 45c0 15 -3 25 -7 25c-6 0 -8 -13 -8 -29c0 -32 11 -56 24 -56
c3 0 8 3 8 6s-2 6 -5 9z" />
    <glyph glyph-name="q" unicode="q" 
d="M246 0c-9 -4 0 -48 0 -83c0 -16 -10 -41 -43 -41s-42 25 -42 49c0 19 1 36 1 53c0 11 -1 18 -5 20c-105 42 -142 168 -142 300c0 147 41 325 182 325s180 -155 180 -316c0 -140 -37 -263 -131 -307zM85 505c6 15 23 43 39 56c8 7 -2 16 -5 16c-15 0 -52 -61 -52 -86
c0 -6 1 -8 5 -8c2 0 7 7 13 22zM197 56c66 0 79 168 79 252c0 58 -15 253 -79 253c-65 0 -76 -200 -76 -254c0 -84 13 -251 76 -251zM71 461c0 13 -3 15 -9 15s-10 -9 -10 -17c0 -11 6 -14 10 -14c2 0 9 5 9 16zM208 -97c0 17 -19 16 -19 29s-4 18 -9 18c-3 0 -5 -5 -5 -20
c0 -13 8 -39 22 -39c5 0 11 3 11 12z" />
    <glyph glyph-name="r" unicode="r" horiz-adv-x="260" 
d="M59 0c-33 0 -45 24 -45 64v460c0 72 13 94 48 94c30 0 50 -26 50 -72c0 -14 -1 -22 3 -22c3 0 3 5 5 10c7 18 29 84 89 84c27 0 44 -18 44 -43c0 -26 -10 -55 -37 -55c-54 0 -95 -110 -95 -193v-272c0 -40 -33 -55 -62 -55zM41 576c2 10 11 26 1 26c-6 0 -15 -18 -15 -32
s4 -21 7 -21c6 0 6 22 7 27zM41 50c-4 16 -5 31 -9 31c-3 0 -5 -7 -5 -17c0 -24 8 -46 17 -46c3 0 7 0 7 7c0 4 -7 12 -10 25z" />
    <glyph glyph-name="s" unicode="s" horiz-adv-x="360" 
d="M175 -9c-83 0 -172 73 -172 197c0 41 27 71 63 69c23 -1 32 -15 32 -50c0 -49 26 -131 67 -131c42 0 64 22 64 65c0 57 -38 92 -74 128c-96 96 -133 154 -133 208c0 91 61 147 159 147c90 0 153 -90 153 -165c0 -40 -27 -79 -61 -79c-16 0 -40 14 -40 37
c0 78 -27 114 -56 114s-42 -15 -42 -48c0 -41 20 -73 91 -146c87 -89 115 -135 115 -186c0 -94 -69 -160 -166 -160zM80 543c5 9 16 24 26 32c10 7 14 18 10 18c-17 2 -57 -46 -59 -69c0 -4 2 -6 6 -6c7 -1 9 12 17 25zM64 498c0 4 -3 7 -6 7c-4 0 -8 -5 -8 -8s2 -5 7 -6
c3 0 6 3 7 7zM40 190c7 18 16 29 17 40c0 3 0 5 -3 5c-22 2 -39 -37 -29 -69c2 -5 5 -10 8 -10c7 0 0 16 7 34z" />
    <glyph glyph-name="t" unicode="t" horiz-adv-x="233" 
d="M146 0c-102 0 -102 102 -102 206v172h-11c-20 0 -31 16 -31 39s7 37 31 37h11v98c0 50 18 66 48 66s55 -19 55 -69v-95h31c24 0 33 -12 33 -31c0 -26 -8 -45 -29 -45h-35v-188c0 -73 2 -101 16 -101h8l16 3c28 0 37 -20 37 -46c0 -20 -7 -46 -78 -46zM70 573
c5 14 18 31 7 31c-13 0 -21 -28 -21 -39c0 -15 2 -21 5 -21c5 0 6 20 9 29zM22 424c0 7 3 18 1 18c-7 0 -12 -12 -12 -26c0 -9 3 -22 10 -22c6 0 1 18 1 30zM99 50c0 5 -17 31 -18 50c-1 11 -8 17 -12 17c-8 0 -7 -15 -7 -22c0 -11 14 -56 28 -56c4 0 9 7 9 11z" />
    <glyph glyph-name="u" unicode="u" horiz-adv-x="385" 
d="M312 0c-28 0 -38 26 -38 59c0 17 -1 25 -4 25c-4 0 -7 -8 -16 -19c-18 -24 -51 -65 -101 -65c-86 0 -140 62 -140 164v405c0 31 21 48 48 48c29 0 59 -22 59 -51v-392c0 -45 20 -77 49 -77c48 0 95 82 95 138v319c0 42 16 63 47 63c30 0 59 -18 59 -75v-467
c0 -64 -29 -75 -58 -75zM299 588c11 11 5 17 -3 17c-10 0 -22 -23 -22 -38c0 -9 3 -10 7 -10c5 0 7 20 18 31zM53 597c0 6 -3 7 -4 7c-7 0 -25 -21 -25 -36c0 -6 3 -10 5 -10c8 0 24 32 24 39zM95 52c1 14 -25 16 -33 40c-5 14 -8 24 -13 24c-6 0 -8 -5 -8 -13
c0 -19 31 -63 46 -63c4 0 8 5 8 12zM300 52c-1 13 0 24 -5 24s-7 -10 -7 -21c0 -17 10 -43 19 -43c6 0 -6 22 -7 40z" />
    <glyph glyph-name="v" unicode="v" horiz-adv-x="355" 
d="M187 -2c-46 0 -77 8 -89 31c-23 41 -90 462 -90 538c0 28 21 51 49 51s60 -11 66 -49s45 -474 62 -474c4 0 15 61 28 152c13 83 37 275 51 335c5 23 18 35 31 35c16 0 55 -11 55 -32c0 -26 -69 -470 -93 -545c-11 -34 -51 -42 -70 -42zM291 584c0 7 -2 13 -4 13
c-6 0 -12 -19 -12 -33c0 -6 1 -15 4 -15c6 0 12 29 12 35zM40 579c7 10 1 17 -4 17c-8 0 -15 -24 -15 -51c0 -16 2 -23 5 -23c7 0 6 46 14 57zM125 40c-10 16 -12 43 -20 43c-4 0 -4 -8 -4 -12c0 -8 9 -48 20 -48c6 0 10 7 4 17z" />
    <glyph glyph-name="w" unicode="w" horiz-adv-x="568" 
d="M177 -2c-46 0 -77 8 -89 31c-23 41 -81 462 -81 538c0 28 21 51 49 51s55 -11 61 -49s41 -478 58 -478c4 0 63 455 71 491c7 31 21 36 48 36c28 0 56 -11 62 -49s37 -481 54 -481c4 0 63 458 71 494c5 23 18 35 31 35c16 0 55 -11 55 -32c0 -26 -61 -470 -85 -545
c-11 -34 -51 -42 -70 -42c-46 0 -76 8 -89 31c-10 17 -31 264 -38 264c-10 0 -31 -226 -40 -253c-11 -34 -49 -42 -68 -42zM508 584c0 7 -2 13 -4 13c-6 0 -12 -19 -12 -33c0 -6 1 -15 4 -15c6 0 12 29 12 35zM273 584c0 7 -2 13 -4 13c-6 0 -12 -19 -12 -33
c0 -6 1 -15 4 -15c6 0 12 29 12 35zM39 579c7 10 1 17 -4 17c-8 0 -15 -24 -15 -51c0 -16 2 -23 5 -23c7 0 6 46 14 57zM350 40c-10 16 -12 43 -20 43c-4 0 -4 -8 -4 -12c0 -8 9 -48 20 -48c6 0 10 7 4 17zM115 40c-10 16 -12 43 -20 43c-4 0 -4 -8 -4 -12
c0 -8 9 -48 20 -48c6 0 10 7 4 17z" />
    <glyph glyph-name="x" unicode="x" horiz-adv-x="416" 
d="M42 -3c-20 0 -38 17 -38 32c0 4 1 9 4 14l122 239c10 19 16 32 16 39c0 8 -6 20 -13 31l-105 174c-7 12 -14 28 -14 48c0 19 20 42 56 42c17 0 26 -8 53 -54l71 -123c8 -13 12 -22 15 -22s4 7 14 22l102 163c6 10 16 14 25 14c18 0 75 -16 51 -55l-120 -191
c-12 -20 -16 -32 -16 -37s8 -17 27 -51l130 -239c6 -12 -23 -43 -64 -43c-7 0 -19 2 -24 11l-107 190c-7 12 -13 24 -18 24s-9 -7 -20 -27l-89 -164c-15 -28 -36 -37 -58 -37zM337 568c0 5 5 13 15 22c9 9 13 14 6 14c-8 0 -21 -3 -29 -17c-11 -18 -6 -25 0 -25c4 0 8 2 8 6
zM45 563c0 16 11 20 10 25c-2 7 -5 8 -9 8c-12 0 -21 -33 -11 -52c3 -5 5 -6 8 -5c6 2 2 17 2 24zM365 13c1 2 -3 9 -11 14c-9 5 -20 35 -25 35c-2 0 -5 -2 -5 -6c-1 -10 15 -44 31 -46c4 0 10 -1 10 3zM50 19c-4 4 -19 15 -16 22c4 10 -4 10 -12 2c-9 -10 2 -28 15 -31
c10 -2 20 -2 13 7z" />
    <glyph glyph-name="y" unicode="y" horiz-adv-x="383" 
d="M188 -6c-78 0 -140 47 -140 116c0 31 14 55 34 55s39 -11 39 -30c0 -36 31 -56 67 -56c54 0 73 37 73 114v44c0 15 0 40 -2 40c-1 0 -34 -79 -111 -79c-64 0 -140 46 -140 216v160c0 24 15 45 45 45c39 0 62 -19 62 -48v-167c0 -99 20 -109 49 -109c48 0 95 78 95 157
v107c0 42 20 62 48 62c21 0 61 -17 61 -74v-371c0 -117 -69 -182 -180 -182zM47 599c5 4 1 12 -4 12c-14 0 -23 -33 -23 -40c0 -11 3 -13 5 -13c8 0 15 35 22 41zM288 584c7 11 17 27 9 27c-11 0 -27 -28 -27 -43c0 -5 4 -11 7 -11c5 0 4 16 11 27zM69 271
c-8 8 -14 19 -18 29c-5 14 -6 25 -8 25c-5 0 -5 -8 -5 -19c0 -16 25 -62 34 -62c2 0 7 3 7 10c0 6 -6 13 -10 17zM64 80c13 0 6 27 17 50c2 4 7 23 0 23c-10 0 -21 -27 -21 -48c0 -14 1 -25 4 -25z" />
    <glyph glyph-name="z" unicode="z" horiz-adv-x="361" 
d="M78 0c-30 0 -69 13 -69 55c0 13 1 27 11 47l81 160h-24c-20 0 -31 16 -31 39s7 37 31 37h62l89 175c2 4 3 9 3 12c-1 4 -3 6 -11 6l-178 2c-17 0 -30 16 -30 36c0 39 23 49 48 49l246 -2c32 0 41 -37 41 -68c0 -20 -5 -40 -15 -60l-79 -150h30c24 0 33 -12 33 -31
c0 -26 -8 -45 -29 -45h-74l-55 -104c-16 -30 -25 -48 -25 -58s9 -13 28 -13l148 -1c26 0 39 -21 39 -51c0 -19 -16 -35 -27 -35h-243zM42 574c3 5 10 17 9 21c0 2 -6 7 -9 7c-14 -2 -17 -26 -15 -42c0 -3 3 -8 6 -8c5 1 8 19 9 22zM69 306c0 7 7 20 1 20
c-7 0 -15 -12 -15 -26c0 -9 3 -22 10 -22c6 0 4 16 4 28zM35 49c10 -1 24 54 25 68c0 1 -2 4 -4 4c-13 -1 -29 -41 -30 -50c-1 -11 3 -22 9 -22zM50 27c0 4 -1 7 -5 7c-6 0 -9 -4 -9 -9c0 -3 3 -6 5 -6c4 0 9 4 9 8z" />
    <glyph glyph-name="zero" unicode="0" horiz-adv-x="396" 
d="M203 -17c-138 0 -180 166 -180 324s51 314 188 314c136 0 162 -221 162 -314c0 -132 -44 -324 -170 -324zM96 512c12 25 19 37 19 41c0 3 -6 5 -13 -4c-12 -15 -41 -74 -41 -93c0 -9 9 -5 13 4c4 10 10 28 22 52zM204 59c83 0 91 158 91 257c0 61 -13 225 -84 225
c-59 0 -85 -164 -85 -240c0 -59 -3 -242 78 -242z" />
    <glyph glyph-name="one" unicode="1" horiz-adv-x="245" 
d="M159 0c-29 0 -45 17 -45 47v403c0 12 0 23 -3 23c-8 0 -34 -46 -55 -57c-7 -4 -13 -5 -19 -5c-19 0 -32 16 -32 34c0 6 17 28 26 41c24 35 105 130 136 130c15 0 47 -3 47 -29v-539c0 -24 -26 -48 -55 -48zM158 592c7 10 12 13 8 14c-3 0 -14 -3 -22 -11
c-7 -6 -21 -18 -21 -23c0 -2 1 -3 4 -4c9 -1 26 17 31 24zM147 45c0 10 -5 15 -5 29c0 6 0 13 -6 13c-10 0 -11 -60 0 -60c8 0 11 5 11 18z" />
    <glyph glyph-name="two" unicode="2" horiz-adv-x="344" 
d="M45 0c-12 0 -25 22 -22 38s25 41 46 68c95 120 157 258 157 359c0 55 -29 69 -55 69s-50 -21 -50 -70c0 -29 10 -40 10 -61c0 -18 -27 -26 -42 -26c-35 0 -61 40 -61 93c0 84 60 152 144 152c81 0 157 -63 157 -165c0 -190 -164 -366 -164 -378c0 0 10 -1 32 0l87 3
c48 2 44 -23 44 -53c0 -24 -10 -29 -53 -29h-230zM61 488c1 16 -2 26 -6 25c-11 -1 -11 -41 -10 -48s2 -13 5 -15c6 -6 9 0 11 38zM63 424c0 6 -4 7 -7 7s-7 -1 -7 -8c0 -3 3 -8 6 -8c5 0 8 5 8 9zM62 50c5 12 6 19 5 19c-9 0 -22 -15 -22 -29c0 -5 1 -8 4 -8c4 0 8 7 13 18
z" />
    <glyph glyph-name="three" unicode="3" horiz-adv-x="347" 
d="M223 486c0 38 -19 54 -56 54c-44 0 -65 -32 -65 -110c0 -18 -17 -26 -32 -26c-40 0 -61 29 -61 89c0 72 78 129 154 129c116 0 167 -65 167 -135c0 -106 -113 -154 -113 -169s116 -26 116 -151c0 -122 -102 -173 -201 -173c-42 0 -115 23 -115 77c0 20 8 34 23 34
c34 0 54 -29 94 -29c72 0 92 47 92 90s-26 76 -65 76c-56 0 -76 23 -76 50c0 51 138 127 138 194zM50 515c1 16 -2 26 -6 25c-11 -1 -20 -37 -18 -48c1 -7 2 -13 5 -15c6 -6 17 0 19 38zM44 451c0 6 -4 7 -7 7s-7 -1 -7 -8c0 -3 3 -8 6 -8c5 0 8 5 8 9zM118 291
c3 7 9 19 15 28c5 8 7 16 4 16c-10 0 -35 -36 -35 -51c0 -6 2 -9 5 -9c4 0 7 5 11 16zM48 80c0 14 -3 18 -9 12c-7 -7 -9 -21 -8 -30c1 -5 5 -7 7 -7c3 0 10 15 10 25z" />
    <glyph glyph-name="four" unicode="4" horiz-adv-x="387" 
d="M299 0c-32 0 -41 32 -41 62v68c0 7 -6 12 -13 12h-181c-29 0 -43 17 -43 31c0 21 111 397 122 419c10 20 25 22 38 22s53 -10 53 -27c0 -23 -65 -273 -90 -344c-2 -6 -4 -10 -4 -14c0 -3 2 -5 8 -5h97c11 0 13 3 13 11v301c0 67 25 80 51 80c36 0 53 -29 53 -66v-480
c0 -57 -30 -70 -63 -70zM278 541c11 0 19 37 19 50c0 3 -4 7 -7 7c-7 0 -18 -28 -18 -40c0 -8 1 -17 6 -17zM65 215c5 17 9 24 8 36c0 6 -1 8 -5 8c-7 -1 -22 -46 -21 -60c0 -8 3 -11 5 -11c5 1 9 11 13 27zM55 169c0 7 -4 10 -8 10c-6 0 -8 -4 -8 -10c0 0 1 -7 8 -7
c2 0 8 3 8 7zM291 29c-4 8 -9 10 -9 16c0 0 0 16 -6 16c-4 0 -6 -5 -6 -11c0 -10 7 -35 15 -35c4 0 10 7 6 14z" />
    <glyph glyph-name="five" unicode="5" horiz-adv-x="376" 
d="M88 -8c-58 0 -62 41 -62 56c0 38 33 38 62 38c116 0 160 34 160 110c0 73 -36 107 -101 107c-51 0 -60 -19 -87 -19s-29 54 -29 82v202c0 36 21 48 46 48h233c10 0 22 -11 22 -29c0 -24 -12 -51 -24 -51l-168 -1c-6 0 -9 -8 -9 -14v-122c0 -21 4 -20 13 -20l24 1
c107 4 182 -55 182 -183c0 -103 -84 -205 -262 -205zM59 403c0 25 0 41 -8 33c-9 -8 -9 -74 0 -82c2 -2 3 -3 4 -3c4 0 4 19 4 52zM67 326c0 5 -1 10 -5 10c-6 0 -11 -3 -11 -14c0 -3 4 -7 8 -7c7 0 8 9 8 11zM58 48c-2 6 5 22 -5 22c-7 0 -9 -14 -8 -28c1 -15 5 -30 13 -30
c3 0 6 18 0 36z" />
    <glyph glyph-name="six" unicode="6" horiz-adv-x="407" 
d="M207 -11c-138 0 -192 113 -192 236c0 136 40 286 144 362c37 27 77 33 106 33c12 0 45 -6 45 -27c0 -19 -1 -34 -37 -46c-70 -23 -111 -95 -134 -162c-6 -16 -13 -45 -13 -60c0 -6 1 -10 4 -10c8 0 36 60 108 60c102 0 158 -76 158 -188c0 -109 -87 -198 -189 -198z
M202 80c55 0 93 35 93 110c0 45 -14 96 -70 96c-52 0 -107 -59 -107 -108c0 -55 19 -98 84 -98zM76 107c-4 14 -10 26 -14 41c-2 8 -4 16 -9 15c-2 0 -4 -3 -5 -8c-3 -20 23 -75 29 -74c4 0 5 2 5 5c0 5 -4 12 -6 21z" />
    <glyph glyph-name="seven" unicode="7" horiz-adv-x="318" 
d="M87 -2c-19 0 -33 14 -33 27c0 37 131 434 150 489c3 10 1 15 -7 15h-130c-36 0 -57 8 -57 44s24 43 59 43h211c23 0 41 -17 41 -35c0 -39 -150 -511 -180 -570c-3 -7 -24 -13 -54 -13zM42 594c0 6 -2 8 -5 8c-7 0 -18 -12 -18 -26c0 -12 3 -20 8 -20c9 0 15 27 15 38z
M87 38c3 13 5 30 8 35c5 7 2 15 -4 15c-8 0 -19 -44 -19 -57c0 -9 3 -12 5 -12c3 0 7 7 10 19z" />
    <glyph glyph-name="eight" unicode="8" horiz-adv-x="407" 
d="M195 -6c-108 1 -180 83 -180 169c0 101 109 142 109 162s-100 43 -100 146c0 84 85 154 178 154c70 0 170 -56 170 -156s-89 -112 -89 -129c0 -24 109 -54 109 -171c0 -88 -89 -176 -197 -175zM67 512c3 15 30 40 37 47c8 9 11 15 11 19c0 3 -1 4 -4 4
c-24 0 -60 -60 -60 -81c0 -5 2 -8 4 -8c4 0 9 7 12 19zM202 371c34 0 71 51 71 98s-30 86 -72 86c-43 0 -78 -32 -78 -82c0 -37 28 -102 79 -102zM57 469c0 5 -3 9 -7 9c-6 0 -8 -5 -8 -9c0 0 1 -8 7 -8c2 0 8 3 8 8zM197 73c64 0 83 35 83 96c0 50 -46 116 -75 116
c-41 0 -84 -67 -84 -122c0 -42 29 -90 76 -90zM61 222c4 10 -1 16 -10 7s-28 -43 -29 -63c-1 -10 4 -23 13 -23c11 0 5 22 8 36c4 20 14 33 18 43z" />
    <glyph glyph-name="nine" unicode="9" horiz-adv-x="402" 
d="M200 623c147 0 192 -126 192 -236c0 -136 -66 -285 -153 -353c-36 -28 -77 -42 -106 -42c-24 0 -43 8 -43 29c0 20 7 43 43 55c70 23 108 84 131 151c6 16 13 45 13 60c0 6 -1 10 -4 10c-8 0 -32 -50 -112 -50c-93 0 -149 69 -149 178c0 102 65 198 188 198zM205 535
c-55 0 -93 -38 -93 -103c0 -55 26 -93 70 -93c52 0 103 46 103 95c0 55 -15 101 -80 101zM62 486c3 13 7 23 7 31c0 4 -1 7 -7 7c-9 0 -32 -81 -27 -109c2 -8 5 -12 8 -12c7 0 10 12 12 23c5 22 3 40 7 60zM58 380c0 6 -2 12 -6 12c-7 0 -13 -3 -13 -16c0 -4 4 -9 9 -9
c8 0 10 10 10 13zM130 58c-1 8 -27 -5 -27 -30c0 -3 2 -14 7 -14c7 0 20 43 20 44z" />
    <glyph glyph-name="percent" unicode="%" horiz-adv-x="482" 
d="M105 -6c-12 0 -43 12 -43 29c0 18 17 82 110 257c72 136 114 224 142 276c28 53 52 63 69 63c46 0 27 -75 11 -109c-55 -117 -236 -470 -248 -488c-14 -22 -29 -28 -41 -28zM111 393c-61 0 -94 54 -94 117c0 50 35 108 92 108c55 0 90 -30 90 -101s-41 -124 -88 -124z
M111 460c18 0 26 34 26 57s-10 41 -26 41c-15 0 -27 -23 -27 -46s10 -52 27 -52zM43 512c0 21 1 31 -3 31c-8 0 -10 -24 -10 -29c0 -7 0 -34 13 -34c5 0 0 11 0 32zM68 453c0 9 -2 11 -9 11c-4 0 -6 -3 -6 -8c0 -3 4 -10 8 -10c3 0 7 4 7 7zM380 -6c-61 0 -94 54 -94 117
c0 50 35 108 92 108c55 0 90 -30 90 -101s-41 -124 -88 -124zM380 61c18 0 26 34 26 57s-10 41 -26 41c-15 0 -27 -23 -27 -46s10 -52 27 -52zM312 113c0 21 1 31 -3 31c-8 0 -10 -24 -10 -29c0 -7 0 -34 13 -34c5 0 0 11 0 32zM103 82c-6 6 -15 -3 -19 -13s-9 -29 -9 -35
c1 -14 6 -16 15 6c6 16 16 39 13 42zM337 54c0 9 -2 11 -9 11c-4 0 -6 -3 -6 -8c0 -3 4 -10 8 -10c3 0 7 4 7 7z" />
    <glyph glyph-name="Euro" unicode="&#x20ac;" horiz-adv-x="454" 
d="M358 -13c-160 0 -227 70 -257 202c-19 0 -71 -4 -71 25c0 35 36 30 62 30c-2 30 -1 61 4 91c-18 0 -57 -4 -57 22c0 30 48 29 70 29c37 113 125 216 258 216c17 0 59 -9 59 -30c0 -29 -17 -30 -42 -34c-87 -15 -139 -73 -172 -152h129c17 0 41 -3 41 -24
c0 -27 -29 -27 -50 -27h-135c-4 -23 -6 -45 -6 -68l1 -15v-7l131 2c19 0 39 3 39 -22c0 -31 -18 -34 -46 -34l-118 -1c22 -88 94 -137 175 -137c26 0 54 -9 54 -32c0 -33 -45 -34 -69 -34zM194 491c5 0 92 74 92 81c0 2 -2 2 -3 2c-18 0 -95 -62 -95 -80c0 -3 4 -3 6 -3z
M180 463c0 5 -4 12 -9 12s-9 -5 -9 -10s3 -9 8 -11c4 0 10 5 10 9z" />
    <glyph glyph-name="dollar" unicode="$" horiz-adv-x="354" 
d="M173 -41c-30 0 -28 52 -28 78v58c-58 0 -104 30 -104 68c0 24 17 31 32 31c29 0 56 -16 96 -16c24 0 66 16 66 47s-28 47 -68 47c-80 0 -129 42 -129 129c0 78 44 130 107 141v45c0 18 -7 87 29 87c17 0 25 -38 25 -102c0 -26 0 -30 16 -30c32 0 71 -23 71 -57
s-32 -21 -81 -21c-50 0 -66 -24 -66 -60c0 -35 38 -42 56 -45c77 -11 130 -43 130 -129c0 -77 -52 -126 -126 -133v-60c0 -25 4 -78 -26 -78zM101 476c8 12 24 17 24 27c0 4 -4 6 -7 6c-22 0 -44 -35 -44 -56c0 -5 1 -7 4 -7c9 0 16 19 23 30zM83 425c0 6 -3 9 -9 9
s-9 -7 -6 -15c1 -3 5 -6 7 -6c6 0 8 6 8 12z" />
    <glyph glyph-name="sterling" unicode="&#xa3;" horiz-adv-x="388" 
d="M32 28c0 18 8 28 24 68c15 39 22 65 22 122v33h-20c-25 0 -38 14 -38 30c0 15 7 39 31 39h25v67c0 122 34 233 163 233c60 0 121 -42 121 -112c0 -28 -8 -44 -23 -44c-11 0 -23 10 -34 30c-14 25 -35 48 -59 48c-63 0 -75 -66 -75 -163v-57h68c63 0 69 -19 69 -42
c0 -16 -4 -29 -55 -29h-82v-65c0 -62 -18 -90 -26 -107c-5 -11 3 -7 16 -5c17 3 24 4 67 4h57c55 0 76 -9 76 -35c0 -34 -16 -44 -53 -42c-69 3 -139 -1 -214 -1c-35 0 -60 10 -60 28zM111 460c6 0 19 67 58 102c17 16 17 23 13 23c-10 0 -23 -6 -42 -25
c-22 -22 -34 -68 -34 -91c0 -5 2 -9 5 -9zM111 432c0 5 -5 8 -9 8c-8 0 -10 -12 -10 -12c0 -6 2 -9 10 -9c6 0 9 4 9 13z" />
    <glyph glyph-name="yen" unicode="&#xa5;" horiz-adv-x="431" 
d="M215 0c-35 0 -38 27 -38 52v100h-78c-24 0 -48 21 -48 37c0 17 11 41 48 41h78c-1 8 -3 15 -5 22h-73c-24 0 -49 22 -49 44c0 17 12 37 49 37h38l-107 223c-9 19 4 60 37 60c12 0 37 -5 45 -21l90 -188c7 -15 16 -35 24 -35s14 14 24 35l97 193c7 14 27 16 36 16
c34 0 35 -42 24 -64l-108 -219h47c25 0 41 -16 41 -35c0 -34 -25 -46 -60 -46h-53c-1 -6 -1 -13 -1 -22h73c25 0 41 -13 41 -37c0 -25 -31 -41 -60 -41h-54v-100c0 -41 -34 -52 -58 -52zM48 571c0 7 5 11 6 15s1 9 -1 9c-10 0 -14 -17 -14 -24c0 -4 2 -8 5 -8s4 5 4 8z
M204 31c0 4 -4 14 -4 28c-2 10 -2 14 -3 14s-2 -3 -4 -10c0 -25 4 -39 11 -39c3 0 3 4 0 7z" />
    <glyph glyph-name="currency" unicode="&#xa4;" horiz-adv-x="474" 
d="M94 130c-46 80 -57 105 -57 199c0 53 20 107 49 151c-21 30 -45 63 -45 101c0 12 9 27 23 27c28 0 62 -54 76 -73c28 20 62 32 97 32c38 0 72 -14 103 -36c13 17 54 77 81 77c14 0 23 -15 23 -27c0 -35 -24 -71 -43 -99c24 -47 40 -102 40 -155c0 -65 -16 -133 -58 -184
c6 -10 61 -91 61 -105c0 -16 -14 -38 -31 -38c-18 0 -80 82 -90 93c-28 -15 -59 -21 -90 -21c-28 0 -56 14 -82 14c-18 0 -36 -86 -79 -86c-17 0 -31 22 -31 38c0 14 45 80 53 92zM75 381c7 0 17 32 20 38c10 24 64 77 64 93c0 1 -1 2 -2 2c-34 0 -90 -90 -90 -122
c0 -6 1 -11 8 -11zM233 156c88 0 119 87 119 163c0 74 -22 161 -110 161c-84 0 -114 -84 -114 -156c0 -64 26 -168 105 -168zM79 356c0 5 -4 9 -9 9c-4 0 -6 -5 -6 -9c0 -3 3 -7 7 -7s8 2 8 7z" />
    <glyph glyph-name="parenleft" unicode="(" horiz-adv-x="300" 
d="M206 -72c-143 57 -192 212 -192 341c0 123 46 263 122 340c36 36 71 63 97 63c20 0 33 -20 33 -36c0 -11 -18 -22 -48 -54c-81 -86 -103 -208 -103 -310s30 -228 120 -279c23 -12 34 -17 34 -36c0 -17 -20 -33 -43 -33c-7 0 -13 1 -20 4zM192 620c6 6 19 16 10 16
c-21 0 -62 -46 -62 -62c0 -3 1 -5 4 -5c7 0 13 11 17 18c5 9 14 18 31 33zM134 547c0 4 -3 8 -6 8c-8 0 -12 -4 -12 -8c0 -8 6 -9 8 -9c3 0 10 1 10 9z" />
    <glyph glyph-name="parenright" unicode=")" horiz-adv-x="300" 
d="M80 -93c-18 0 -39 14 -39 27c0 35 133 127 133 371c0 126 -42 254 -106 289c-16 9 -40 20 -40 44c0 20 19 34 47 34c99 0 199 -144 199 -370c0 -200 -48 -263 -115 -346c-31 -38 -57 -49 -79 -49zM48 621c5 0 11 12 11 23c0 8 -3 13 -7 13c-5 0 -11 -12 -11 -23
c0 -7 3 -13 7 -13zM75 -60c6 13 7 30 2 31s-21 -26 -21 -35c0 -4 1 -8 4 -9c4 -1 9 0 15 13z" />
    <glyph glyph-name="braceright" unicode="}" horiz-adv-x="313" 
d="M75 -74c-18 0 -54 8 -54 32c0 22 29 21 45 21c71 0 57 51 62 101c4 45 11 148 47 184c3 4 18 11 18 16c0 8 -22 12 -27 16c-44 27 -51 168 -54 209c-2 25 4 86 -19 91c-12 3 -24 4 -36 3c-38 -3 -54 9 -54 32c0 29 34 38 78 32c96 -11 121 -95 126 -161
c5 -79 -2 -160 55 -187c12 -5 33 -20 33 -34c0 -11 -10 -18 -18 -24c-53 -41 -43 -74 -46 -131c-5 -103 -6 -200 -156 -200zM28 616c9 0 18 28 18 33c0 4 -3 7 -7 7c-16 0 -22 -25 -20 -31c2 -7 5 -9 9 -9z" />
    <glyph glyph-name="braceleft" unicode="{" horiz-adv-x="322" 
d="M241 -77c-141 0 -150 87 -155 188c-6 121 -64 96 -64 165s82 51 88 190c5 105 3 194 146 194c41 0 51 -25 51 -38c0 -42 -76 -9 -107 -50c-21 -28 14 -119 -3 -194c-9 -38 -81 -88 -81 -101s70 -63 70 -134c0 -21 -8 -117 5 -134c12 -15 30 -27 52 -27s52 0 52 -29
c0 -25 -33 -30 -54 -30zM160 584c19 27 49 39 48 52c0 2 -2 4 -5 4c-20 0 -63 -42 -63 -66c0 -2 4 -4 5 -4c7 0 11 9 15 14z" />
    <glyph glyph-name="bar" unicode="|" horiz-adv-x="179" 
d="M97 -99c-36 0 -50 32 -50 56l1 709c0 21 15 40 41 40c32 0 52 -10 54 -34v-710c0 -29 -10 -61 -46 -61zM75 653c1 29 16 39 3 39c-15 0 -18 -34 -18 -46c0 -17 4 -34 12 -34c7 0 2 29 3 41z" />
    <glyph glyph-name="bracketleft" unicode="[" horiz-adv-x="260" 
d="M44 -70c-8 8 -8 33 -8 336c0 323 -2 360 17 383c11 13 63 15 117 15c55 0 88 -21 63 -48c-7 -8 -23 -14 -63 -14c-38 0 -35 -8 -35 -45v-577h18c57 0 72 -8 72 -36c0 -27 -15 -27 -94 -27c-72 0 -78 0 -87 13zM81 616c3 10 18 20 26 20c6 0 9 3 9 7c0 1 -1 1 -9 1
c-20 0 -43 -15 -43 -34c0 -8 2 -12 4 -12c5 0 10 8 13 18z" />
    <glyph glyph-name="bracketright" unicode="]" horiz-adv-x="239" 
d="M50 -80c-20 0 -36 14 -36 25c0 29 20 38 47 38c64 0 67 10 67 38v530c0 38 -20 49 -35 49s-32 -4 -46 -4c-19 0 -33 7 -33 37c0 16 23 29 62 29c67 0 133 0 141 -15c7 -13 2 -73 6 -352c2 -135 4 -220 3 -274c-1 -74 -21 -94 -47 -97c-48 -5 -123 -4 -129 -4zM45 644
c-5 6 -18 0 -18 -11c0 -8 2 -10 4 -10s4 2 4 7c1 5 15 7 10 14z" />
    <glyph glyph-name="slash" unicode="/" horiz-adv-x="399" 
d="M82 -77c-12 0 -69 12 -69 36c0 17 240 622 272 677c9 15 25 30 44 30c18 0 49 -15 49 -33c0 -22 -54 -152 -69 -186c-22 -49 -198 -524 -227 -524zM57 -37c11 32 49 104 36 107c-3 1 -11 3 -15 -4c-6 -11 -38 -81 -38 -97c0 -9 15 -13 17 -6z" />
    <glyph glyph-name="backslash" unicode="\" horiz-adv-x="384" 
d="M82 666c29 0 205 -475 227 -524c15 -34 69 -164 69 -186c0 -18 -31 -33 -49 -33c-19 0 -35 15 -44 30c-32 55 -272 660 -272 677c0 24 57 36 69 36zM57 626c-2 7 -17 3 -17 -6c0 -16 32 -86 38 -97c4 -7 12 -5 15 -4c13 3 -25 75 -36 107z" />
    <glyph glyph-name="question" unicode="?" horiz-adv-x="300" 
d="M98 104c-32 0 -42 44 -42 69c0 69 27 116 65 147c46 38 57 79 57 123c0 38 -19 85 -69 85c-8 0 -17 -2 -26 -4c-39 -10 -63 14 -63 47c0 35 32 49 86 54c94 9 183 -51 183 -176c0 -71 -42 -129 -89 -175c-40 -39 -55 -34 -57 -102c-1 -30 -5 -68 -45 -68zM51 583
c6 10 18 17 14 19c-14 6 -31 -18 -31 -30c0 -7 2 -12 7 -12s4 12 10 23zM99 141c-7 13 -9 29 -9 44l1 3v1l2 14v2l1 3c0 6 -1 8 -4 8c-10 0 -13 -23 -13 -33c0 -18 3 -58 22 -58c2 0 4 8 0 16zM98 -9c-24 0 -38 12 -38 36c0 23 17 45 41 45c19 0 39 -21 39 -38
c0 -24 -15 -43 -42 -43zM89 57c-7 0 -12 -19 -12 -30c0 -5 1 -9 3 -9c4 0 9 5 9 16c0 15 8 23 0 23z" />
    <glyph glyph-name="exclam" unicode="!" horiz-adv-x="167" 
d="M81 112c-43 0 -45 53 -45 236c0 258 1 268 62 268c31 0 38 -23 38 -227c0 -186 -8 -277 -55 -277zM68 593c-5 0 -16 -16 -16 -49c0 -17 1 -38 10 -38c16 0 8 23 9 39c1 23 8 48 -3 48zM82 -8c-25 0 -42 18 -42 46c0 25 13 52 42 52c30 0 47 -24 47 -52
c0 -31 -20 -46 -47 -46zM64 44c1 15 11 29 4 29c-9 0 -16 -25 -16 -40c0 -5 2 -10 5 -10c5 0 6 13 7 21z" />
    <glyph glyph-name="quotesingle" unicode="'" horiz-adv-x="105" 
d="M52 528c-27 0 -39 46 -42 68c-4 25 0 93 42 93c44 0 47 -65 42 -93c-4 -21 -15 -68 -42 -68zM47 650c4 14 3 22 -5 22c-7 0 -16 -27 -16 -35c0 -10 4 -15 7 -15c6 0 9 8 14 28z" />
    <glyph glyph-name="quotedbl" unicode="&#x22;" horiz-adv-x="196" 
d="M52 528c-27 0 -39 46 -42 68c-4 25 0 93 42 93c44 0 47 -65 42 -93c-4 -21 -15 -68 -42 -68zM147 528c-27 0 -39 46 -42 68c-4 25 0 93 42 93c44 0 47 -65 42 -93c-4 -21 -15 -68 -42 -68zM47 650c4 14 3 22 -5 22c-7 0 -16 -27 -16 -35c0 -10 4 -15 7 -15c6 0 9 8 14 28
zM142 650c4 14 3 22 -5 22c-7 0 -16 -27 -16 -35c0 -10 4 -15 7 -15c6 0 9 8 14 28z" />
    <glyph glyph-name="quoteleft" unicode="&#x2018;" horiz-adv-x="106" 
d="M52 526c-33 0 -47 29 -47 68c0 34 24 96 70 96c11 0 19 -7 19 -17c0 -5 -10 -10 -14 -12c-17 -9 -30 -23 -33 -43c0 -3 -1 -7 0 -7s3 11 19 11c18 0 35 -19 35 -44c0 -30 -16 -52 -49 -52zM40 544c0 5 -5 14 -9 24c-3 10 -5 19 -10 19c-8 0 5 -46 17 -46c2 0 2 2 2 3z
" />
    <glyph glyph-name="quoteright" unicode="&#x2019;" horiz-adv-x="113" 
d="M56 690c33 0 47 -29 47 -68c0 -34 -24 -96 -70 -96c-11 0 -19 7 -19 17c0 5 10 10 14 12c17 9 30 23 33 43c0 3 1 7 0 7s-3 -11 -19 -11c-18 0 -35 19 -35 44c0 30 16 52 49 52zM28 648c4 10 9 19 9 24c0 1 0 3 -2 3c-12 0 -25 -46 -17 -46c5 0 7 9 10 19z" />
    <glyph glyph-name="quotedblleft" unicode="&#x201c;" horiz-adv-x="209" 
d="M52 526c-33 0 -47 29 -47 68c0 34 24 96 70 96c11 0 19 -7 19 -17c0 -5 -10 -10 -14 -12c-17 -9 -30 -23 -33 -43c0 -3 -1 -7 0 -7s3 11 19 11c18 0 35 -19 35 -44c0 -30 -16 -52 -49 -52zM151 526c-33 0 -47 29 -47 68c0 34 24 96 70 96c11 0 19 -7 19 -17
c0 -5 -10 -10 -14 -12c-17 -9 -30 -23 -33 -43c0 -3 -1 -7 0 -7s3 11 19 11c18 0 35 -19 35 -44c0 -30 -16 -52 -49 -52zM40 544c0 5 -5 14 -9 24c-3 10 -5 19 -10 19c-8 0 5 -46 17 -46c2 0 2 2 2 3zM139 544c0 5 -5 14 -9 24c-3 10 -5 19 -10 19c-8 0 5 -46 17 -46
c2 0 2 2 2 3z" />
    <glyph glyph-name="quotedblright" unicode="&#x201d;" horiz-adv-x="211" 
d="M56 690c33 0 47 -29 47 -68c0 -34 -24 -96 -70 -96c-11 0 -19 7 -19 17c0 5 10 10 14 12c17 9 30 23 33 43c0 3 1 7 0 7s-3 -11 -19 -11c-18 0 -35 19 -35 44c0 30 16 52 49 52zM156 690c33 0 47 -29 47 -68c0 -34 -24 -96 -70 -96c-11 0 -19 7 -19 17c0 5 10 10 14 12
c17 9 30 23 33 43c0 3 1 7 0 7s-3 -11 -19 -11c-18 0 -35 19 -35 44c0 30 16 52 49 52zM28 648c4 10 9 19 9 24c0 1 0 3 -2 3c-12 0 -25 -46 -17 -46c5 0 7 9 10 19zM128 648c4 10 9 19 9 24c0 1 0 3 -2 3c-12 0 -25 -46 -17 -46c5 0 7 9 10 19z" />
    <glyph glyph-name="quotesinglbase" unicode="&#x201a;" horiz-adv-x="112" 
d="M60 100c33 0 47 -29 47 -68c0 -34 -24 -96 -70 -96c-11 0 -19 7 -19 17c0 5 10 10 14 12c17 9 30 23 33 43c0 3 1 7 0 7s-3 -11 -19 -11c-18 0 -35 19 -35 44c0 30 16 52 49 52zM32 58c4 10 9 19 9 24c0 1 0 3 -2 3c-12 0 -25 -46 -17 -46c5 0 7 9 10 19z" />
    <glyph glyph-name="quotedblbase" unicode="&#x201e;" horiz-adv-x="214" 
d="M60 100c33 0 47 -29 47 -68c0 -34 -24 -96 -70 -96c-11 0 -19 7 -19 17c0 5 10 10 14 12c17 9 30 23 33 43c0 3 1 7 0 7s-3 -11 -19 -11c-18 0 -35 19 -35 44c0 30 16 52 49 52zM160 100c33 0 47 -29 47 -68c0 -34 -24 -96 -70 -96c-11 0 -19 7 -19 17c0 5 10 10 14 12
c17 9 30 23 33 43c0 3 1 7 0 7s-3 -11 -19 -11c-18 0 -35 19 -35 44c0 30 16 52 49 52zM32 58c4 10 9 19 9 24c0 1 0 3 -2 3c-12 0 -25 -46 -17 -46c5 0 7 9 10 19zM132 58c4 10 9 19 9 24c0 1 0 3 -2 3c-12 0 -25 -46 -17 -46c5 0 7 9 10 19z" />
    <glyph glyph-name="bullet" unicode="&#x2022;" horiz-adv-x="197" 
d="M103 244c-46 0 -82 31 -82 77c0 39 25 94 78 94c43 0 86 -20 86 -82c0 -51 -31 -89 -82 -89zM55 288c9 0 5 29 5 36c0 33 27 52 27 64c0 3 -2 6 -8 6c-18 0 -38 -37 -38 -76c0 -8 4 -30 14 -30z" />
    <glyph glyph-name="hyphen" unicode="-" horiz-adv-x="359" 
d="M288 329c0 -41 -34 -51 -66 -52c-39 -1 -78 -2 -118 -2c-29 0 -53 13 -53 44c0 36 35 44 64 45c42 1 84 2 127 2c23 0 46 -8 46 -37zM69 300c10 0 25 34 25 39s0 11 -6 11c-17 0 -26 -24 -26 -37c0 -10 5 -13 7 -13z" />
    <glyph glyph-name="endash" unicode="&#x2013;" horiz-adv-x="406" 
d="M348 329c0 -41 -34 -51 -66 -52c-39 -1 -138 -2 -178 -2c-29 0 -53 13 -53 44c0 36 35 44 64 45c42 1 144 2 187 2c23 0 46 -8 46 -37zM69 300c10 0 25 34 25 39s0 11 -6 11c-17 0 -26 -24 -26 -37c0 -10 5 -13 7 -13z" />
    <glyph glyph-name="emdash" unicode="&#x2014;" horiz-adv-x="469" 
d="M408 329c0 -41 -34 -51 -66 -52c-39 -1 -198 -2 -238 -2c-29 0 -53 13 -53 44c0 36 35 44 64 45c42 1 204 2 247 2c23 0 46 -8 46 -37zM69 300c10 0 25 34 25 39s0 11 -6 11c-17 0 -26 -24 -26 -37c0 -10 5 -13 7 -13z" />
    <glyph glyph-name="guilsinglleft" unicode="&#x2039;" horiz-adv-x="247" 
d="M173 186c-33 15 -152 100 -152 123s130 141 159 141c12 0 25 -13 25 -25c0 -20 -85 -104 -94 -114c24 -18 96 -67 96 -92c0 -16 -20 -39 -34 -33zM75 347c0 3 -1 5 -3 5c-7 0 -34 -29 -30 -36c3 -4 8 1 12 4c8 7 21 16 21 27z" />
    <glyph glyph-name="cent" unicode="&#xa2;" horiz-adv-x="321" 
d="M153 532v42c0 18 -3 87 33 87c17 0 28 -38 28 -102c0 -13 0 -20 2 -25c49 -8 78 -45 78 -102c0 -39 -12 -59 -34 -59c-19 0 -34 15 -34 42c0 25 -17 40 -40 40c-44 0 -72 -63 -72 -155c0 -86 29 -126 82 -126c51 0 53 36 81 36c14 0 23 -12 23 -31c0 -39 -35 -74 -85 -84
c-2 -5 -1 -12 -1 -24c0 -64 -11 -102 -28 -102c-36 0 -32 69 -32 87v38c-76 13 -132 89 -132 205c0 144 54 213 131 233zM67 438c12 0 26 32 41 47c5 5 16 14 16 20c0 1 -1 2 -3 2c-17 0 -56 -50 -56 -66c0 -1 1 -3 2 -3zM66 418c0 3 -2 7 -5 7c-4 0 -8 -3 -8 -8s3 -7 5 -7
c3 0 8 4 8 8z" />
    <glyph glyph-name="guilsinglright" unicode="&#x203a;" horiz-adv-x="251" 
d="M66 180c-16 0 -33 18 -33 34c0 36 79 78 103 101c-21 22 -95 83 -95 116c0 17 13 21 27 21c35 0 152 -106 152 -137c0 -37 -131 -135 -154 -135zM73 437h-5c-6 0 -10 -7 -10 -11c0 -3 2 -13 5 -13c2 0 4 4 5 7c2 6 11 17 5 17zM69 220c0 7 -1 16 -6 16
c-4 0 -8 -14 -8 -19c0 -4 4 -15 8 -15c6 0 6 13 6 18z" />
    <glyph glyph-name="guillemotleft" unicode="&#xab;" horiz-adv-x="400" 
d="M203 181c-26 0 -169 111 -169 135c0 32 127 138 159 138c10 0 22 -11 22 -21c0 -20 -96 -107 -103 -114c21 -21 121 -88 121 -113c0 -13 -17 -25 -30 -25zM339 190c-25 0 -143 108 -143 130c0 26 119 132 150 132c13 0 23 -8 23 -21c0 -37 -79 -84 -103 -109
c13 -13 97 -87 97 -110c0 -12 -13 -22 -24 -22zM66 306c8 10 9 28 16 36c3 4 4 12 -1 12c-9 0 -21 -24 -21 -40c0 -3 1 -8 6 -8zM228 312c4 0 18 40 14 40c-13 0 -19 -20 -19 -31c0 -3 0 -9 5 -9zM239 301c0 3 -2 5 -5 5s-6 -2 -6 -5s3 -6 6 -6c5 0 5 1 5 6z" />
    <glyph glyph-name="guillemotright" unicode="&#xbb;" horiz-adv-x="386" 
d="M203 182c-10 0 -21 12 -21 22c0 17 63 76 78 88l25 21c-9 10 -77 66 -88 74c-22 15 -32 27 -32 38c0 15 16 30 31 30c17 0 32 -4 66 -33c18 -16 96 -73 96 -97c0 -11 -7 -22 -20 -37c-22 -26 -98 -106 -135 -106zM52 181c-12 0 -21 13 -21 24c0 20 25 47 76 87l27 21
l-38 32c-47 39 -65 63 -65 79c0 12 13 22 25 22c25 0 144 -106 144 -130s-125 -135 -148 -135zM197 424c0 5 2 12 4 15c3 5 0 6 0 6c-4 0 -15 -10 -15 -21c0 -4 2 -6 5 -6s6 2 6 6zM60 424c3 10 1 11 0 11c-11 0 -15 -5 -15 -12c0 -5 5 -9 9 -9c0 0 5 4 6 10zM54 219
c4 11 1 16 -4 6c-3 -6 -4 -10 -4 -13s1 -4 4 -4c4 0 2 6 4 11zM207 214c0 4 0 8 -2 8c-4 0 -7 -9 -7 -12s1 -6 3 -6c6 0 6 4 6 10z" />
    <glyph glyph-name="ordfeminine" unicode="&#xaa;" horiz-adv-x="220" 
d="M107 478c-44 0 -79 32 -79 76c0 36 33 74 71 66c15 -3 17 -3 17 6s-20 34 -56 23c-19 -6 -28 13 -28 22c0 17 24 30 59 30c70 1 98 -57 98 -124c0 -73 -31 -99 -82 -99zM60 568c2 9 19 28 10 28c-11 0 -25 -21 -25 -33c0 -4 3 -6 7 -6c5 0 6 2 8 11zM128 547
c0 12 -9 18 -19 18s-20 -7 -20 -19c0 -9 2 -21 21 -21c9 0 18 7 18 22zM73 404c-16 0 -44 2 -44 30c0 20 9 33 44 33l73 -1c19 0 46 4 46 -24c0 -29 -18 -35 -45 -36zM55 446c2 3 5 6 4 9c-1 2 -2 3 -4 3c-12 0 -18 -22 -18 -29c0 -2 1 -5 3 -5c5 0 8 8 15 22z" />
    <glyph glyph-name="ordmasculine" unicode="&#xba;" horiz-adv-x="220" 
d="M110 494c-70 0 -94 49 -94 93c0 61 41 107 92 107c50 0 88 -44 88 -104c0 -56 -36 -96 -86 -96zM61 644c3 5 21 20 12 20c-21 0 -36 -35 -36 -47c0 -1 0 -5 3 -5c11 0 15 20 21 32zM107 551c26 0 37 15 37 39c0 25 -14 42 -34 42c-22 0 -38 -18 -38 -44
c0 -22 11 -37 35 -37zM70 406c-16 0 -41 0 -41 28c0 20 10 34 45 35l73 2c19 1 45 -1 45 -29c0 -29 -21 -33 -48 -34zM53 443c2 3 5 5 4 8c-1 2 -2 3 -4 3c-9 0 -16 -19 -16 -25c0 -2 1 -3 2 -3c4 0 8 5 14 17z" />
    <glyph glyph-name="onesuperior" unicode="&#xb9;" horiz-adv-x="130" 
d="M63 499c-9 7 -8 32 -8 95c0 16 0 22 -4 22c-6 -1 -10 -15 -22 -15c-11 0 -18 9 -18 26c0 27 48 61 67 61c25 0 40 -22 40 -92c0 -72 -2 -80 -7 -89s-24 -13 -32 -13c-6 0 -11 2 -16 5zM40 641c9 14 5 16 1 17c-5 2 -19 -19 -20 -25c-2 -6 -2 -10 0 -11c4 -1 9 5 19 19z
" />
    <glyph glyph-name="twosuperior" unicode="&#xb2;" horiz-adv-x="159" 
d="M52 500c-13 0 -38 2 -38 20c0 26 59 55 59 109c0 9 -3 13 -13 13s-13 -16 -31 -16c-13 0 -18 12 -18 24c0 27 28 44 65 44c36 0 57 -24 57 -59c0 -39 -23 -63 -48 -90h35c15 0 26 -6 26 -23c0 -12 -10 -22 -25 -22h-69zM39 538c0 9 -16 -7 -16 -16c0 -3 2 -5 3 -5
c2 0 4 1 8 5c6 6 5 16 5 16z" />
    <glyph glyph-name="threesuperior" unicode="&#xb3;" horiz-adv-x="167" 
d="M62 498c-15 0 -46 6 -46 25c0 9 12 22 34 15c25 -8 41 7 41 18s-11 21 -20 20c-22 -3 -37 -2 -37 15c0 13 9 20 24 20s24 13 24 28c0 11 -2 15 -17 15c-17 0 -19 -19 -37 -19c-11 0 -17 11 -17 24s16 33 64 33c39 0 59 -20 59 -51c0 -34 -32 -41 -32 -45s41 -4 41 -42
c0 -41 -39 -56 -81 -56zM53 595c3 7 0 11 -5 8c-7 -5 -10 -18 -5 -18s7 3 10 10z" />
    <glyph glyph-name="exclamdown" unicode="&#xa1;" horiz-adv-x="150" 
d="M82 616c27 0 47 -15 47 -46c0 -28 -17 -52 -47 -52c-29 0 -42 27 -42 52c0 28 17 46 42 46zM68 556c-3 8 -7 20 -11 19c-3 -1 -4 -6 -3 -11c3 -15 14 -34 25 -30c7 2 -7 8 -11 22zM81 496c47 0 55 -91 55 -277c0 -204 -7 -227 -38 -227c-61 0 -62 10 -62 268
c0 183 2 236 45 236zM71 376c11 0 4 25 3 48c-1 16 7 39 -9 39c-9 0 -10 -21 -10 -38c0 -33 11 -49 16 -49z" />
    <glyph glyph-name="questiondown" unicode="&#xbf;" horiz-adv-x="298" 
d="M211 604c24 0 38 -12 38 -36c0 -23 -17 -45 -41 -45s-39 21 -39 38c0 24 15 43 42 43zM192 589c-9 0 -12 -19 -12 -28c0 -7 2 -12 6 -12s6 6 6 17c0 15 8 23 0 23zM211 491c32 0 42 -44 42 -69c0 -69 -27 -116 -65 -147c-46 -38 -57 -79 -57 -123c0 -38 19 -85 69 -85
c8 0 17 2 26 4c39 10 63 -14 63 -47c0 -35 -32 -49 -86 -54c-94 -9 -183 51 -183 176c0 71 42 129 89 175c40 39 55 34 57 102c1 30 5 68 45 68zM202 400c-5 12 -4 22 -2 39c0 2 0 4 1 6l4 14c1 2 1 4 1 6c0 5 0 8 -3 8c-10 2 -19 -19 -20 -29c-3 -17 -1 -60 17 -60
c5 0 5 8 2 16z" />
    <glyph glyph-name="germandbls" unicode="&#xdf;" horiz-adv-x="397" 
d="M69 -13c-42 0 -48 94 -49 133c-6 327 -9 501 155 501c129 0 196 -66 196 -182c0 -97 -90 -132 -89 -145c1 -15 107 -13 107 -154c0 -123 -100 -148 -204 -148c-28 0 -46 17 -46 46c0 34 25 49 89 49c27 0 59 -1 61 59c3 108 -147 68 -147 133c0 53 123 48 123 160
c0 57 -40 95 -71 95c-83 0 -71 -210 -71 -265c0 -89 1 -161 1 -240c0 -18 -26 -42 -55 -42zM70 505c19 48 55 81 55 90c0 3 -5 2 -15 -3c-27 -13 -51 -72 -51 -84c0 -6 2 -8 4 -8c3 0 6 2 7 5zM62 479c0 4 -1 7 -8 7s-8 -5 -8 -8s1 -6 8 -6c4 0 8 3 8 7z" />
    <glyph glyph-name="comma" unicode="," horiz-adv-x="153" 
d="M140 58c0 -50 -45 -104 -97 -104c-11 0 -20 5 -20 19c0 7 11 12 25 14c20 4 23 25 11 25c-16 0 -28 20 -28 40c0 31 21 63 59 63c33 0 50 -29 50 -57zM59 64c1 7 9 16 11 20c5 9 1 12 1 12c-12 0 -25 -25 -25 -38c0 -8 1 -13 3 -13c4 0 7 7 10 19z" />
    <glyph glyph-name="breve" unicode="&#x2d8;" horiz-adv-x="262" 
d="M47 730c0 28 13 35 32 35c29 0 25 -65 54 -64s27 63 54 63c16 0 31 -11 31 -28c0 -37 -21 -96 -84 -96s-87 52 -87 90z" />
    <glyph glyph-name="semicolon" unicode=";" horiz-adv-x="176" 
d="M79 512c-28 0 -51 19 -51 49s22 58 53 58c33 0 50 -17 50 -50c0 -27 -22 -57 -52 -57zM50 552c5 0 5 11 7 15c4 12 13 20 20 32c1 2 -1 7 -3 7c-13 1 -29 -32 -29 -44c0 -3 0 -10 5 -10zM125 46c0 -45 -40 -94 -87 -94c-10 0 -18 4 -18 17c0 6 10 11 23 13
c18 3 20 22 9 22c-14 0 -25 18 -25 36c0 28 19 57 53 57c30 0 45 -26 45 -51zM52 51c1 6 8 14 10 18c4 8 1 11 1 11c-11 0 -22 -23 -22 -34c0 -8 1 -12 2 -12c4 0 7 6 9 17z" />
    <glyph glyph-name="paragraph" unicode="&#xb6;" horiz-adv-x="465" 
d="M269 -63c-27 0 -50 18 -50 65v190c0 12 -14 17 -26 17h-29c-59 0 -138 68 -138 188c0 158 83 219 165 219h175c34 0 61 -6 61 -39l1 -571c0 -52 -26 -69 -53 -69s-42 18 -42 65v482c0 29 -6 43 -11 43c-6 0 -11 -14 -11 -42v-479c0 -52 -15 -69 -42 -69zM122 554
c12 10 17 16 17 18s-1 4 -5 4c-18 0 -57 -58 -57 -75c0 -5 1 -7 3 -7c4 0 7 7 14 19c9 17 18 33 28 41zM82 465c0 5 -3 10 -8 10s-10 -5 -10 -10c0 -2 4 -5 9 -5s9 3 9 5zM251 -36c-5 5 -8 17 -8 30c0 10 -2 16 -5 16c-4 0 -5 -8 -5 -19c0 -21 7 -37 16 -37c2 0 5 2 5 4
s-1 4 -3 6zM365 -36c-5 5 -8 17 -8 30c0 10 -2 16 -5 16c-4 0 -5 -8 -5 -19c0 -21 7 -37 16 -37c2 0 5 2 5 4s-1 4 -3 6z" />
    <glyph glyph-name="ampersand" unicode="&#x26;" horiz-adv-x="536" 
d="M232 -6c-129 0 -201 74 -201 199c0 162 120 187 120 200c0 11 -31 55 -31 102c0 76 57 127 140 127c56 0 101 -29 114 -55c7 -14 -6 -59 -37 -59s-41 29 -66 29s-44 -17 -44 -56c0 -47 86 -162 163 -267c8 16 15 33 21 51c7 22 25 34 42 34s33 -13 33 -39
c0 -31 -31 -89 -47 -114c40 -56 69 -102 69 -123c0 -27 -33 -35 -55 -35c-12 0 -41 34 -75 79c-42 -43 -92 -73 -146 -73zM154 499c9 0 14 20 16 26c6 16 14 32 26 45c1 2 15 15 15 18c0 1 0 2 -1 2c-28 0 -60 -63 -60 -83c0 -2 1 -8 4 -8zM164 472c0 3 0 8 -6 8
c-5 0 -8 -5 -8 -8c0 -4 3 -8 7 -8c5 0 7 6 7 8zM329 134c-62 86 -125 177 -138 177c-36 0 -67 -59 -67 -107c0 -57 44 -113 112 -113c29 0 62 15 93 43zM75 126c7 5 0 24 -2 30c-5 17 -10 36 -2 62c6 19 -1 22 -3 20c-23 -17 -19 -84 -1 -108c1 -2 5 -6 8 -4z" />
    <glyph glyph-name="at" unicode="@" horiz-adv-x="575" 
d="M261 1c-150 0 -254 105 -254 266c0 180 122 320 285 320s259 -118 259 -262c0 -103 -59 -186 -132 -186c-57 0 -64 52 -75 52s-48 -53 -103 -53c-56 0 -98 54 -98 125c0 90 66 175 135 175c35 0 39 -22 48 -22s13 28 39 28c55 0 36 -120 36 -152c0 -35 17 -77 35 -77
c16 0 32 35 32 88c0 127 -44 206 -167 206s-210 -99 -210 -230c0 -118 77 -202 176 -202c70 0 142 42 186 42c18 0 28 -7 28 -21c0 -46 -115 -97 -220 -97zM179 316c5 0 13 20 15 23c11 19 26 35 40 49c3 3 2 5 -1 5c-20 0 -59 -51 -59 -70c0 -2 3 -7 5 -7zM265 220
c27 0 60 52 60 100c0 28 -11 42 -32 42c-36 0 -72 -42 -72 -84c0 -33 14 -58 44 -58zM177 291c0 3 -2 8 -5 9c-4 1 -10 -5 -10 -9c0 -5 4 -11 8 -11s7 7 7 11z" />
    <glyph glyph-name="colon" unicode=":" horiz-adv-x="175" 
d="M79 512c-28 0 -51 19 -51 49s22 58 53 58c33 0 50 -17 50 -50c0 -27 -22 -57 -52 -57zM50 552c5 0 5 11 7 15c4 12 13 20 20 32c1 2 -1 7 -3 7c-13 1 -29 -32 -29 -44c0 -3 0 -10 5 -10zM81 -6c-28 0 -51 19 -51 49s22 58 53 58c33 0 50 -17 50 -50
c0 -27 -22 -57 -52 -57zM52 34c5 0 5 11 7 15c4 12 13 20 20 32c1 2 -1 7 -3 7c-13 1 -29 -32 -29 -44c0 -3 0 -10 5 -10z" />
    <glyph glyph-name="periodcentered" unicode="&#xb7;" horiz-adv-x="154" 
d="M76 267c-33 0 -60 22 -60 58c0 35 26 69 63 69c39 0 59 -21 59 -60c0 -32 -26 -67 -62 -67zM42 314c6 0 6 13 8 18c5 14 16 24 24 38c1 2 -1 8 -4 8c-15 1 -34 -38 -34 -52c0 -3 0 -12 6 -12z" />
    <glyph glyph-name="registered" unicode="&#xae;" horiz-adv-x="431" 
d="M210 350c-108 0 -183 99 -183 203c0 114 75 205 192 205c112 0 193 -82 193 -196c0 -110 -87 -212 -202 -212zM217 407c87 0 133 70 133 155c0 81 -45 144 -130 144c-90 0 -133 -69 -133 -153c0 -80 46 -146 130 -146zM268 447c-35 0 -42 79 -60 79c-7 0 -6 -23 -6 -27
c-2 -34 -16 -52 -36 -52c-27 0 -25 50 -25 79c0 62 3 153 85 153c30 0 63 -24 63 -57s-28 -52 -50 -57c29 -16 55 -53 55 -88c0 -16 -8 -30 -26 -30zM165 604c4 0 2 11 5 20c4 13 10 25 8 25c-9 1 -17 -21 -18 -28c0 -7 0 -17 5 -17zM202 595c13 0 28 19 28 31
c0 4 -2 9 -7 9c-11 0 -23 -16 -23 -36c0 -2 1 -4 2 -4zM167 594c1 3 -4 6 -8 5c-3 0 -5 -2 -6 -4c0 -3 3 -6 5 -7c4 -1 9 2 9 6z" />
    <glyph glyph-name="copyright" unicode="&#xa9;" horiz-adv-x="630" 
d="M312 -10c-192 0 -284 160 -284 304c0 177 110 305 290 305c166 0 283 -127 283 -296c0 -171 -122 -313 -289 -313zM314 67c134 0 204 91 204 236c0 117 -75 224 -200 224c-119 0 -204 -102 -204 -221c0 -121 72 -239 200 -239zM327 117c-91 0 -157 75 -157 176
c0 89 62 178 156 178c44 0 94 -24 94 -66c0 -18 -16 -35 -32 -35c-22 0 -20 18 -45 18c-55 0 -75 -51 -75 -100c0 -32 20 -81 54 -81c24 0 41 15 64 15c18 0 36 -19 36 -40c0 -49 -59 -65 -95 -65zM220 360c3 0 16 20 31 37c15 16 32 29 32 35c0 3 -1 4 -3 4
c-18 0 -66 -46 -66 -66c0 -2 0 -10 6 -10z" />
    <glyph glyph-name="underscore" unicode="_" horiz-adv-x="312" 
d="M290 -38c0 -41 -34 -51 -66 -52c-39 -1 -118 -2 -158 -2c-29 0 -53 13 -53 44c0 36 35 44 64 45c42 1 124 2 167 2c23 0 46 -8 46 -37zM31 -67c10 0 25 34 25 39s0 11 -6 11c-17 0 -26 -24 -26 -37c0 -10 5 -13 7 -13z" />
    <glyph glyph-name="numbersign" unicode="#" horiz-adv-x="459" 
d="M240 108c-24 0 -31 19 -32 39c-1 22 12 47 11 64c0 4 -14 5 -17 5h-31c-9 -24 -31 -90 -65 -90c-21 0 -29 15 -30 34c-1 22 8 33 7 54c0 20 -61 -8 -64 50c-1 33 36 38 62 38c33 0 36 47 42 70c-22 0 -70 5 -71 37c-1 34 16 40 66 40c21 0 26 2 33 23c7 18 14 62 53 62
c27 0 35 -20 36 -35c0 -13 -7 -24 -6 -37c0 -13 27 -13 35 -13c27 0 26 78 65 78c27 0 38 -28 39 -44c0 -11 -6 -20 -6 -32c1 -19 64 7 66 -39c2 -37 -60 -42 -85 -42c-9 -25 -14 -45 -23 -71c29 0 67 8 69 -34c2 -38 -36 -50 -65 -50h-5l-11 1h-5c-9 -31 -13 -108 -68 -108
zM172 457c7 0 24 37 24 46c0 3 -2 5 -5 5c-10 2 -26 -31 -25 -42c0 -4 4 -9 6 -9zM70 404c6 0 11 21 10 26c0 2 -1 4 -3 4c-7 2 -14 -10 -13 -18c0 -7 3 -12 6 -12zM217 298c29 0 42 45 41 68c0 4 -1 9 -6 9c-30 0 -38 -5 -49 -33c-3 -8 -11 -30 -10 -38v-1
c7 -4 16 -5 24 -5zM52 279c0 3 -4 6 -7 6c-12 0 -15 -23 -13 -29c1 -3 1 -5 4 -6c5 -1 17 23 16 29z" />
    <glyph glyph-name="degree" unicode="&#xb0;" horiz-adv-x="273" 
d="M125 446c-53 0 -97 42 -97 100c0 64 48 117 114 117c54 0 91 -50 91 -106c0 -71 -49 -111 -108 -111zM88 619c9 9 10 17 8 17c-21 0 -51 -44 -51 -70c0 -3 2 -14 6 -14c2 0 6 7 10 22c4 18 17 35 27 45zM129 503c16 0 45 19 45 54c0 27 -16 47 -38 47
c-23 0 -45 -19 -45 -51s17 -50 38 -50z" />
    <glyph glyph-name="plus" unicode="+" horiz-adv-x="399" 
d="M202 116c-49 0 -49 88 -52 132c-21 -1 -35 -4 -56 -4c-25 0 -52 11 -52 45c0 49 73 44 107 48c1 34 -1 141 49 141c60 0 51 -104 53 -141c52 6 104 1 104 -40c0 -46 -73 -52 -104 -52c0 -42 -2 -129 -49 -129zM179 396c14 0 15 40 23 48c3 3 3 6 3 7s-2 7 -7 7
c-17 0 -24 -38 -24 -51c0 -3 1 -11 5 -11zM187 375c0 2 -2 6 -6 6c-7 0 -10 -8 -10 -14s6 -7 8 -7c4 0 8 10 8 15z" />
    <glyph glyph-name="asterisk" unicode="*" horiz-adv-x="283" 
d="M78 459c-25 0 -51 0 -51 22c0 20 20 34 54 33c-23 17 -36 40 -21 58c4 4 9 6 14 6c12 0 27 -11 36 -18c2 15 4 39 23 39c17 0 24 -17 27 -41c10 8 25 20 38 20c4 0 8 -1 12 -4c15 -14 2 -36 -15 -61c21 0 56 2 56 -23c0 -28 -26 -29 -53 -31c13 -19 26 -40 6 -57
c-3 -2 -5 -3 -8 -3c-11 0 -22 14 -27 23c-2 -14 -9 -47 -27 -47c-22 0 -27 31 -30 49c-10 -19 -20 -28 -30 -28c-5 0 -10 2 -15 6c-18 16 0 39 11 57zM59 489c2 3 9 4 9 10c0 3 -5 4 -9 4c-13 0 -21 -16 -21 -23s2 -10 6 -10c6 0 7 4 15 19z" />
    <glyph glyph-name="uni03BC" unicode="&#x3bc;" horiz-adv-x="418" 
d="M90 -198c-52 0 -40 300 -40 369v140c0 32 0 163 8 184c6 16 11 27 43 27c30 0 47 -52 47 -83c0 -59 -26 -339 67 -339c74 0 77 136 77 254c0 133 7 169 48 169c22 0 45 -9 45 -32v-397c0 -64 -11 -118 -53 -118c-20 0 -35 23 -35 41c0 5 1 34 -4 34
c-13 0 -18 -51 -80 -51c-43 0 -47 26 -60 26c-6 0 -6 -16 -6 -20v-135c0 -33 -14 -69 -57 -69zM312 435c9 0 17 51 17 59l-3 7c-15 0 -17 -47 -17 -59c0 -2 0 -7 3 -7zM72 406c10 0 19 75 18 87c0 2 -1 5 -3 5c-20 2 -19 -67 -19 -82c0 -3 0 -10 4 -10zM82 388
c0 4 -6 10 -10 10c-6 0 -8 -5 -8 -10s3 -12 9 -12c5 0 9 7 9 12z" />
    <glyph glyph-name="perthousand" unicode="&#x2030;" horiz-adv-x="704" 
d="M105 -6c-12 0 -43 12 -43 29c0 52 209 453 252 533c28 53 52 63 69 63c46 0 27 -75 11 -109c-55 -117 -236 -470 -248 -488c-14 -22 -29 -28 -41 -28zM111 393c-61 0 -94 54 -94 117c0 50 35 108 92 108c55 0 90 -30 90 -101s-41 -124 -88 -124zM111 460
c18 0 26 34 26 57s-10 41 -26 41c-15 0 -27 -23 -27 -46s10 -52 27 -52zM43 512c0 21 1 31 -3 31c-8 0 -10 -24 -10 -29c0 -7 0 -34 13 -34c5 0 0 11 0 32zM68 453c0 9 -2 11 -9 11c-4 0 -6 -3 -6 -8c0 -3 4 -10 8 -10c3 0 7 4 7 7zM380 -6c-61 0 -94 54 -94 117
c0 50 35 108 92 108c55 0 90 -30 90 -101s-41 -124 -88 -124zM580 -6c-61 0 -94 54 -94 117c0 50 35 108 92 108c55 0 90 -30 90 -101s-41 -124 -88 -124zM380 61c18 0 26 34 26 57s-10 41 -26 41c-15 0 -27 -23 -27 -46s10 -52 27 -52zM580 61c18 0 26 34 26 57
s-10 41 -26 41c-15 0 -27 -23 -27 -46s10 -52 27 -52zM312 113c0 21 1 31 -3 31c-8 0 -10 -24 -10 -29c0 -7 0 -34 13 -34c5 0 0 11 0 32zM512 113c0 21 1 31 -3 31c-8 0 -10 -24 -10 -29c0 -7 0 -34 13 -34c5 0 0 11 0 32zM103 82c-6 6 -15 -3 -19 -13s-9 -29 -9 -35
c1 -14 6 -16 15 6c6 16 16 39 13 42zM337 54c0 9 -2 11 -9 11c-4 0 -6 -3 -6 -8c0 -3 4 -10 8 -10c3 0 7 4 7 7zM537 54c0 9 -2 11 -9 11c-4 0 -6 -3 -6 -8c0 -3 4 -10 8 -10c3 0 7 4 7 7z" />
    <glyph glyph-name="section" unicode="&#xa7;" horiz-adv-x="369" 
d="M191 -68c-67 0 -144 48 -144 122c0 27 18 61 49 61c24 0 37 -22 37 -44c0 -35 20 -53 53 -53c30 0 53 17 53 47c0 84 -197 89 -197 201c0 50 27 78 48 98c-17 22 -60 33 -60 96c0 75 63 165 165 165c68 0 129 -39 129 -108c0 -29 -17 -92 -55 -92c-19 0 -30 14 -30 32
c0 33 -6 72 -40 72c-33 0 -67 -29 -67 -69c0 -31 190 -94 190 -213c0 -65 -24 -76 -24 -87c0 -15 32 -37 32 -96c0 -81 -60 -132 -139 -132zM111 554c12 10 17 16 17 18c0 3 -4 8 -15 -1c-20 -16 -47 -50 -47 -70c0 -5 1 -7 3 -7c4 0 7 7 14 19c9 17 18 33 28 41zM71 465
c0 5 -3 10 -8 10s-10 -5 -10 -10c0 -2 4 -5 9 -5s9 3 9 5zM241 230c0 26 -66 93 -87 84c-11 -4 -14 -18 -14 -34c0 -15 75 -69 95 -69c3 0 6 9 6 19z" />
    <glyph glyph-name="multiply" unicode="&#xd7;" horiz-adv-x="366" 
d="M274 128c-44 0 -84 96 -100 96c-11 0 -55 -93 -100 -93c-21 0 -37 14 -37 36c0 36 82 102 82 122c0 11 -82 80 -82 111c0 12 14 44 37 44c31 0 89 -88 100 -88c17 0 54 91 99 91c14 0 32 -19 32 -33c0 -36 -73 -107 -74 -127s83 -89 83 -114c0 -18 -23 -45 -40 -45z
M74 421c0 3 -2 6 -5 7c-6 1 -18 -13 -18 -27c0 -4 3 -9 7 -9c7 0 16 22 16 29zM75 143c5 4 -4 23 -10 29c-2 2 -11 8 -15 5c-5 -5 2 -20 9 -28c8 -8 12 -9 16 -6z" />
    <glyph glyph-name="equal" unicode="=" horiz-adv-x="385" 
d="M94 335c-36 12 -45 52 -18 70c13 8 37 11 117 11c117 0 125 -6 125 -46c0 -31 -24 -40 -125 -40c-49 0 -92 3 -99 5zM102 396c0 3 -4 6 -9 2c-7 -4 -10 -19 -10 -28c0 -4 1 -7 2 -7c3 0 6 4 8 13c3 10 9 20 9 20zM97 218c-25 4 -40 28 -31 46c12 24 37 25 139 25
c105 0 129 -6 129 -34c0 -35 -28 -46 -135 -46c-49 0 -91 7 -102 9zM100 267c0 1 -1 3 -3 3c-1 0 -3 0 -4 -1c-2 -1 -8 -8 -8 -17c0 -12 2 -13 8 -6c5 5 7 15 7 21z" />
    <glyph glyph-name="dagger" unicode="&#x2020;" horiz-adv-x="377" 
d="M179 -75c-20 0 -29 9 -37 22c-4 8 -6 218 -6 238l3 241c-27 0 -117 -14 -117 36c0 60 76 46 115 46c3 30 -3 159 47 159c45 0 50 -56 50 -98v-63c34 -2 111 14 111 -45c0 -53 -87 -33 -115 -35c0 -38 4 -464 -8 -482c-8 -12 -23 -19 -43 -19zM159 594c5 0 9 18 9 22
c0 12 13 24 18 34c1 1 -5 1 -5 1c-19 0 -24 -36 -24 -52c0 -3 1 -5 2 -5zM164 578c0 3 0 9 -4 9c-7 0 -7 -5 -7 -10c0 -4 0 -7 5 -7c4 0 6 5 6 8z" />
    <glyph glyph-name="daggerdbl" unicode="&#x2021;" horiz-adv-x="370" 
d="M139 426c-27 0 -117 -14 -117 36c0 41 37 47 70 47c15 0 30 0 45 -1c3 30 -3 159 49 159c43 0 53 -56 53 -98v-63c15 0 30 1 46 1c31 0 73 -5 73 -46c0 -53 -95 -33 -123 -35c0 -21 1 -161 -1 -284h13l25 1h13c31 0 73 -4 73 -46c0 -53 -95 -33 -123 -35h-2
c-2 -64 3 -99 -8 -117s-25 -20 -40 -20c-19 0 -39 8 -43 22c-1 5 -3 59 -4 115c-28 0 -116 -13 -116 36c0 42 37 47 70 47h44v40zM159 594c5 0 9 18 9 22c0 12 13 24 18 34c1 1 -5 1 -5 1c-19 0 -24 -36 -24 -52c0 -3 1 -5 2 -5zM164 578c0 3 0 9 -4 9c-7 0 -7 -5 -7 -10
c0 -4 0 -7 5 -7c4 0 6 5 6 8z" />
    <glyph glyph-name="divide" unicode="&#xf7;" horiz-adv-x="380" 
d="M191 364c-26 0 -48 25 -48 55c0 37 19 64 53 64c26 0 49 -19 49 -51s-17 -68 -54 -68zM165 413c10 5 10 38 19 50c3 3 3 5 3 7c-19 -1 -32 -35 -29 -53c0 -4 4 -5 7 -4zM269 241c-59 0 -117 2 -175 3c-20 1 -48 15 -48 47c0 42 75 39 97 39c46 0 115 3 159 -4
c27 -4 43 -25 43 -44c0 -37 -57 -41 -76 -41zM191 99c-32 0 -43 20 -43 55c0 25 15 58 44 58s51 -23 51 -53c0 -26 -20 -60 -52 -60zM167 142c4 0 7 15 7 18c1 11 4 21 12 30v3c0 0 0 2 -1 2c-11 0 -24 -24 -24 -33c0 -6 0 -20 6 -20z" />
    <glyph glyph-name="less" unicode="&#x3c;" horiz-adv-x="255" 
d="M200 168c-33 15 -179 110 -179 141c0 37 159 152 188 152c12 0 24 -27 24 -39c0 -20 -106 -101 -115 -111c24 -18 121 -73 121 -98c0 -16 -25 -51 -39 -45zM79 346c1 3 -1 8 -6 8c-7 0 -35 -31 -31 -38c3 -4 9 -3 13 0c8 7 20 20 24 30z" />
    <glyph glyph-name="greater" unicode="&#x3e;" horiz-adv-x="270" 
d="M53 171c-16 0 -36 26 -36 42c0 36 95 79 119 102c-21 22 -116 79 -116 112c0 17 19 31 33 31c35 0 174 -112 174 -143c0 -37 -151 -144 -174 -144zM57 445c-8 3 -16 -6 -17 -15c-1 -6 1 -16 7 -16c2 0 5 9 6 12c2 6 10 17 4 19zM56 211c0 7 -2 23 -7 23
c-4 0 -10 -15 -10 -25s7 -16 11 -16c6 0 6 13 6 18z" />
    <glyph glyph-name="asciicircum" unicode="^" horiz-adv-x="237" 
d="M18 465c5 39 83 179 106 179s90 -159 90 -188c0 -12 -13 -25 -25 -25c-20 0 -52 99 -65 99c-10 0 -48 -99 -73 -99c-16 0 -35 19 -33 34zM94 583c8 0 17 25 24 33c3 4 5 13 0 13c-8 0 -29 -32 -29 -40c0 -3 2 -6 5 -6z" />
    <glyph glyph-name="tilde" unicode="&#x2dc;" horiz-adv-x="319" 
d="M190 636c-44 0 -66 54 -88 54c-10 0 -24 -17 -28 -25c-7 -15 -11 -19 -27 -19c-13 0 -26 15 -26 27c0 37 41 84 77 84c41 0 68 -54 96 -54s23 56 53 56c15 0 24 -18 24 -29c0 -43 -37 -94 -81 -94z" />
    <glyph glyph-name="macron" unicode="&#xaf;" horiz-adv-x="268" 
d="M149 644c-44 0 -53 1 -75 1c-28 0 -39 16 -39 29c0 21 15 39 35 39c41 0 55 -2 83 -2s34 -1 55 -1s28 -16 28 -34c0 -30 -43 -32 -87 -32z" />
    <glyph glyph-name="minus" unicode="&#x2212;" horiz-adv-x="391" 
d="M293 247c-65 0 -130 -1 -194 1c-24 1 -53 11 -53 45c0 32 26 43 62 43c54 0 162 5 210 -5c14 -3 27 -23 27 -45c0 -28 -31 -39 -52 -39zM70 268c12 0 4 14 8 28c4 13 13 26 5 26c-15 0 -23 -27 -23 -35c0 -11 4 -19 10 -19z" />
    <glyph glyph-name="plusminus" unicode="&#xb1;" horiz-adv-x="415" 
d="M213 180c-49 0 -49 88 -52 132c-21 -1 -35 -4 -56 -4c-25 0 -52 11 -52 45c0 49 73 44 107 48c1 34 -1 141 49 141c60 0 51 -104 53 -141c52 6 104 1 104 -40c0 -46 -73 -52 -104 -52c0 -42 -2 -129 -49 -129zM190 460c14 0 15 40 23 48c3 3 3 6 3 7s-2 7 -7 7
c-17 0 -24 -38 -24 -51c0 -3 1 -11 5 -11zM198 439c0 2 -2 6 -6 6c-7 0 -10 -8 -10 -14s6 -7 8 -7c4 0 8 10 8 15zM313 77c-65 0 -130 -1 -194 1c-24 1 -53 11 -53 45c0 32 26 43 62 43c54 0 162 5 210 -5c14 -3 27 -23 27 -45c0 -28 -31 -39 -52 -39zM90 98c12 0 4 14 8 28
c4 13 13 26 5 26c-15 0 -23 -27 -23 -35c0 -11 4 -19 10 -19z" />
    <glyph glyph-name="brokenbar" unicode="&#xa6;" horiz-adv-x="178" 
d="M143 404c0 -22 -25 -34 -49 -34c-23 0 -46 11 -46 34v262c0 21 20 43 46 43c28 0 49 -13 49 -37v-268zM75 649c2 31 21 44 7 44c-20 0 -22 -52 -22 -64c0 -1 0 -21 8 -21s6 27 7 41zM50 221c1 23 25 35 49 35c23 0 46 -11 46 -35l-2 -254c0 -29 -16 -61 -52 -61
s-44 32 -44 56zM89 -70c0 5 -4 7 -9 9c-6 3 -5 13 -5 20s-4 11 -9 11c-3 0 -7 -6 -7 -16c0 -14 10 -31 24 -31c3 0 6 5 6 7z" />
    <glyph glyph-name="logicalnot" unicode="&#xac;" horiz-adv-x="414" 
d="M115 345c-23 0 -64 -3 -64 40c0 28 13 40 64 41l185 2c28 0 68 -1 68 -39v-95c0 -29 -16 -46 -42 -46s-37 18 -37 59v40zM86 391c2 4 7 6 5 11c-1 2 -3 4 -5 4c-13 0 -24 -25 -24 -33c0 -3 1 -4 3 -4c6 0 12 6 21 22zM328 275c0 4 -3 5 -7 7c-5 3 -4 11 -4 18
c0 6 -3 10 -7 10c-3 0 -6 -6 -6 -14c0 -13 8 -28 19 -28c3 0 5 4 5 7z" />
    <glyph glyph-name="asciitilde" unicode="~" horiz-adv-x="445" 
d="M283 215c-60 0 -108 69 -137 69c-14 0 -33 -15 -38 -26c-10 -20 -15 -26 -37 -26c-18 0 -27 21 -27 37c0 42 55 107 97 107c56 0 111 -67 149 -67s31 63 72 63c20 0 24 -25 24 -39c0 -59 -44 -118 -103 -118zM80 295c1 4 8 8 2 14c-2 2 -7 2 -8 2c-19 -4 -20 -38 -17 -46
c1 -4 3 -5 6 -4c7 3 12 12 17 34z" />
    <glyph glyph-name="florin" unicode="&#x192;" horiz-adv-x="289" 
d="M-45 -81c-1 38 35 48 52 52c27 6 48 28 51 80l20 321h-16c-14 0 -23 21 -23 40c0 18 9 35 23 35h21l3 31c10 107 54 155 143 155c38 0 58 -18 58 -43c0 -38 -28 -43 -43 -40c-45 8 -58 -5 -66 -76l-3 -27h63c20 0 29 -15 29 -36c0 -20 -8 -37 -28 -37
c-11 0 -30 -2 -44 -2h-24l-20 -328c-6 -98 -58 -152 -129 -162c-41 -6 -66 7 -67 37zM121 526c0 14 13 41 24 51s11 17 6 17c-22 0 -44 -55 -44 -73c0 -5 3 -10 6 -10c5 0 8 6 8 15zM-23 -84c6 0 4 25 22 29c7 2 17 2 17 12c0 3 -3 3 -6 3c-13 0 -42 -21 -42 -37
c0 -4 6 -7 9 -7z" />
    <glyph glyph-name="fraction" unicode="&#x2044;" horiz-adv-x="399" 
d="M75 -6c-12 0 -43 12 -43 29c0 52 209 453 252 533c28 53 52 63 69 63c46 0 27 -75 11 -109c-55 -117 -236 -470 -248 -488c-14 -22 -29 -28 -41 -28zM73 82c-6 6 -15 -3 -19 -13s-9 -29 -9 -35c1 -14 6 -16 15 6c6 16 16 39 13 42z" />
    <glyph glyph-name="onequarter" unicode="&#xbc;" horiz-adv-x="588" 
d="M120 257c-11 0 -29 9 -29 27v231c0 7 0 14 -1 14c-5 0 -21 -28 -33 -34c-17 -9 -36 11 -31 28c1 4 10 17 16 25c14 21 63 78 81 78c9 0 39 -2 39 -18v-323c0 -15 -26 -28 -42 -28zM146 -6c-12 0 -43 12 -43 29c0 52 209 453 252 533c28 53 52 63 69 63
c46 0 27 -75 11 -109c-55 -117 -236 -470 -248 -488c-14 -22 -29 -28 -41 -28zM117 603c6 9 11 12 8 14c-3 0 -14 -3 -22 -11c-7 -6 -13 -14 -13 -19c0 -1 2 -3 3 -3c10 -2 19 13 24 19zM500 0c-19 0 -29 19 -29 37v46c0 4 -3 7 -8 7h-108c-20 0 -26 12 -26 26
c0 12 79 226 85 239c6 12 15 13 23 13s30 -6 30 -16c0 -14 -41 -158 -56 -201c-1 -3 -3 -6 -3 -8s2 -3 5 -3h50c7 0 8 2 8 6v176c0 40 13 48 35 48c12 0 37 -12 37 -41v-288c0 -34 -26 -41 -43 -41zM486 334c4 0 9 17 9 21c0 2 -2 3 -3 3c-5 0 -9 -11 -9 -18c0 -5 1 -6 3 -6
zM114 286c0 5 -3 31 -7 31c-8 0 -9 -45 0 -45c5 0 7 4 7 14zM355 141c3 10 6 14 6 21c0 4 0 5 -3 5c-4 0 -15 -27 -15 -35c0 -5 2 -7 3 -7c3 0 5 6 9 16zM355 112c0 4 -3 6 -5 6c-4 0 -5 -2 -5 -6c0 0 1 -4 5 -4c1 0 5 2 5 4zM144 82c-6 6 -15 -3 -19 -13s-9 -29 -9 -35
c1 -14 6 -16 15 6c6 16 16 39 13 42zM496 25c-3 7 -6 13 -6 17c0 0 0 8 -6 8c-3 0 -4 -5 -4 -11c0 -8 4 -26 10 -26c5 0 9 6 6 12z" />
    <glyph glyph-name="onehalf" unicode="&#xbd;" horiz-adv-x="570" 
d="M120 257c-11 0 -29 9 -29 27v231c0 7 0 14 -1 14c-5 0 -21 -28 -33 -34c-17 -9 -36 11 -31 28c1 4 10 17 16 25c14 21 63 78 81 78c9 0 39 -2 39 -18v-323c0 -15 -26 -28 -42 -28zM146 -6c-12 0 -43 12 -43 29c0 52 209 453 252 533c28 53 52 63 69 63
c46 0 27 -75 11 -109c-55 -117 -236 -470 -248 -488c-14 -22 -29 -28 -41 -28zM117 603c6 9 11 12 8 14c-3 0 -14 -3 -22 -11c-7 -6 -13 -14 -13 -19c0 -1 2 -3 3 -3c10 -2 19 13 24 19zM372 0c-7 0 -15 13 -13 23c2 9 8 26 28 52c56 73 86 137 86 198c0 33 -9 44 -26 44
s-29 -11 -29 -38c0 -17 7 -24 7 -36c0 -11 -17 -17 -26 -17c-21 0 -37 24 -37 56c0 50 36 91 86 91c61 0 97 -41 97 -102c0 -114 -98 -208 -98 -216h19l55 2c19 1 29 -9 29 -25c0 -22 -13 -32 -39 -32h-139zM390 302c2 12 2 20 -1 20c-11 0 -16 -30 -16 -35
c0 -6 2 -10 3 -11c6 -5 8 -1 14 26zM114 286c0 5 -3 31 -7 31c-8 0 -9 -45 0 -45c5 0 7 4 7 14zM389 255c0 5 -4 6 -7 6s-6 -1 -6 -6c0 -2 2 -6 5 -6c4 0 8 4 8 6zM144 82c-6 6 -15 -3 -19 -13s-9 -29 -9 -35c1 -14 6 -16 15 6c6 16 16 39 13 42zM385 30c2 12 2 18 1 18
c-7 -2 -16 -18 -14 -30c1 -5 3 -7 6 -7c3 1 5 8 7 19z" />
    <glyph glyph-name="threequarters" unicode="&#xbe;" horiz-adv-x="572" 
d="M111 248c-53 0 -85 28 -85 60c0 12 5 21 14 21c20 0 36 -21 71 -21c32 0 43 17 43 57c0 48 -21 67 -68 67c-33 0 -46 6 -46 22c0 14 6 32 33 62c21 24 34 45 34 48c0 4 -4 4 -12 4l-37 1c-14 0 -24 10 -24 29c0 23 12 23 24 23h127c14 0 16 -14 16 -21
c0 -17 -56 -86 -68 -99c-20 -22 -22 -27 -5 -29c52 -8 96 -34 96 -107s-48 -117 -113 -117zM154 -6c-12 0 -43 12 -43 29c0 52 209 453 252 533c28 53 52 63 69 63c46 0 30 -62 13 -96c-60 -122 -238 -483 -250 -501c-14 -22 -29 -28 -41 -28zM53 605c2 7 3 11 0 11
c-8 0 -10 -12 -10 -18s2 -11 6 -11c2 0 2 12 4 18zM61 462c2 5 7 13 11 19c3 6 6 12 3 12c-7 0 -25 -26 -25 -37c0 -3 1 -6 4 -6c2 0 5 4 7 12zM508 0c-19 0 -29 19 -29 37v46c0 4 -3 7 -8 7h-108c-20 0 -26 12 -26 26c0 12 79 226 85 239c6 12 15 13 23 13s30 -6 30 -16
c0 -14 -41 -158 -56 -201c-1 -3 -3 -6 -3 -8s2 -3 5 -3h50c7 0 8 2 8 6v176c0 40 13 48 35 48c12 0 37 -12 37 -41v-288c0 -34 -26 -41 -43 -41zM494 334c4 0 9 17 9 21c0 2 -2 3 -3 3c-5 0 -9 -11 -9 -18c0 -5 1 -6 3 -6zM47 306c0 13 -3 17 -8 10c-2 -4 -5 -10 -4 -17
c0 -4 4 -6 7 -6c2 0 5 4 5 13zM363 141c3 10 6 14 6 21c0 4 0 5 -3 5c-4 0 -15 -27 -15 -35c0 -5 2 -7 3 -7c3 0 5 6 9 16zM363 112c0 4 -3 6 -5 6c-4 0 -5 -2 -5 -6c0 0 1 -4 5 -4c1 0 5 2 5 4zM152 82c-6 6 -15 -3 -19 -13s-9 -29 -9 -35c1 -14 6 -16 15 6
c6 16 16 39 13 42zM504 25c-3 7 -6 13 -6 17c0 0 0 8 -6 8c-3 0 -4 -5 -4 -11c0 -8 4 -26 10 -26c5 0 9 6 6 12z" />
    <glyph glyph-name="dotaccent" unicode="&#x2d9;" horiz-adv-x="183" 
d="M90 644c-22 0 -47 16 -47 45s25 46 47 46s46 -17 46 -46s-24 -45 -46 -45z" />
    <glyph glyph-name="ring" unicode="&#x2da;" horiz-adv-x="191" 
d="M96 624c-34 0 -65 21 -65 61c0 45 30 74 63 74c36 0 69 -29 69 -68c0 -35 -31 -67 -67 -67zM94 669c12 0 21 15 21 25c0 5 -8 17 -19 17c-14 0 -20 -8 -20 -24c0 -10 10 -18 18 -18z" />
    <glyph glyph-name="hungarumlaut" unicode="&#x2dd;" horiz-adv-x="273" 
d="M47 640c-15 11 -13 41 8 70c30 42 49 60 60 60c10 0 30 -22 29 -36c-5 -27 -50 -101 -79 -101c-7 0 -12 3 -18 7zM168 632c-24 0 -33 7 -36 25c-5 31 61 111 84 111c9 0 31 -16 32 -26c4 -28 -61 -110 -80 -110z" />
    <glyph glyph-name="ogonek" unicode="&#x2db;" horiz-adv-x="204" 
d="M127 -165c-66 0 -103 45 -103 89c0 61 49 112 92 112c18 0 26 -15 26 -26c0 -24 -42 -28 -42 -76c0 -19 11 -34 27 -34c15 0 34 7 48 7c11 0 19 -5 19 -21c0 -30 -40 -51 -67 -51z" />
    <glyph glyph-name="caron" unicode="&#x2c7;" horiz-adv-x="264" 
d="M38 753c0 13 20 29 33 29c29 0 40 -37 60 -59c16 22 25 57 52 57c16 0 35 -11 35 -28c0 -26 -59 -114 -88 -114c-30 0 -92 86 -92 115z" />
    <glyph glyph-name="grave" unicode="`" horiz-adv-x="213" 
d="M137 638c-5 -5 -10 -8 -15 -8c-24 0 -71 80 -76 104c-1 14 12 38 29 38c11 0 30 -18 60 -60c21 -29 18 -58 2 -74z" />
    <glyph glyph-name="circumflex" unicode="&#x2c6;" horiz-adv-x="253" 
d="M38 667c0 29 62 115 92 115c29 0 88 -88 88 -114c0 -17 -19 -28 -35 -28c-27 0 -36 35 -52 57c-20 -22 -31 -59 -60 -59c-13 0 -33 16 -33 29z" />
    <glyph glyph-name="dieresis" unicode="&#xa8;" horiz-adv-x="287" 
d="M90 644c-22 0 -47 16 -47 45s25 46 47 46s46 -17 46 -46s-24 -45 -46 -45zM200 644c-22 0 -47 16 -47 45s25 46 47 46s46 -17 46 -46s-24 -45 -46 -45z" />
    <glyph glyph-name="acute" unicode="&#xb4;" horiz-adv-x="194" 
d="M47 640c-15 11 -13 41 8 70c30 42 49 60 60 60c10 0 30 -22 29 -36c-5 -27 -50 -101 -79 -101c-7 0 -12 3 -18 7z" />
    <glyph glyph-name="cedilla" unicode="&#xb8;" horiz-adv-x="224" 
d="M97 -169c-27 0 -71 15 -71 59c0 16 6 21 16 21c16 0 42 -15 59 -15c11 0 28 3 28 19c0 19 -62 14 -62 60c0 26 40 66 58 66c13 0 38 -4 34 -22c-3 -13 -23 -44 -15 -44c53 0 55 -49 55 -68c0 -44 -43 -76 -102 -76z" />
    <glyph glyph-name="Thorn" unicode="&#xde;" horiz-adv-x="354" 
d="M73 0c-32 0 -43 25 -43 103v439c0 57 13 76 43 76s57 -9 57 -60v-57c7 1 16 1 29 1c144 0 185 -66 185 -184s-58 -205 -214 -200v-1c0 -44 -1 -117 -57 -117zM60 563c0 0 -3 4 -3 11c0 16 18 24 18 28c0 2 -2 3 -6 3c-12 0 -24 -15 -24 -35c0 -11 3 -18 8 -18
c3 0 7 4 7 11zM130 201h45c48 0 70 19 70 119c0 38 -6 100 -51 100c-11 0 -41 2 -64 -3v-216zM51 76c5 0 5 52 5 62c0 31 -3 35 -6 35s-6 -3 -6 -35c0 -47 1 -62 7 -62zM51 65c-4 0 -6 -4 -6 -9c0 -9 4 -11 7 -11s5 5 5 11c0 7 0 9 -6 9z" />
    <glyph glyph-name="thorn" unicode="&#xfe;" horiz-adv-x="391" 
d="M69 -17c-37 0 -47 23 -47 64v507c0 41 19 64 43 64c32 0 54 -18 54 -48c0 -18 0 -96 4 -96c13 0 35 80 110 80c77 0 148 -94 148 -238c0 -150 -61 -244 -159 -244c-67 0 -81 48 -91 48c-3 0 -5 -4 -5 -11v-75c0 -29 -20 -51 -57 -51zM48 539c1 12 1 26 8 38
c5 10 1 19 -6 19c-10 0 -19 -26 -19 -54c0 -15 3 -24 6 -24s10 8 11 21zM211 162c52 0 72 68 72 160c0 79 -27 132 -60 132c-45 0 -93 -127 -93 -182s35 -110 81 -110zM70 18c0 5 -4 6 -10 9c-7 4 -5 15 -5 24s-4 14 -10 14c-4 0 -8 -8 -8 -19c0 -18 11 -38 26 -38
c4 0 7 5 7 10z" />
    <glyph glyph-name="eth" unicode="&#xf0;" horiz-adv-x="396" 
d="M194 -11c-96 0 -183 77 -183 187c0 94 68 179 162 179c62 0 90 -40 98 -40c3 0 4 4 4 10c0 43 -34 117 -57 152l-19 -20c-11 -12 -29 -32 -47 -32c-8 0 -15 3 -23 11c-19 19 -18 37 18 74l21 22c-13 9 -26 17 -41 22c-36 12 -36 37 -36 44c0 16 24 22 36 22
c26 0 79 -11 112 -33c13 14 28 34 47 34c7 0 14 -3 22 -11c26 -26 11 -47 -15 -74c60 -77 91 -199 91 -311c0 -136 -46 -236 -190 -236zM196 74c65 0 87 49 87 104c0 49 -49 92 -101 92c-45 0 -69 -44 -69 -89c0 -63 28 -107 83 -107zM68 119c-4 17 -9 33 -13 51
c-2 9 -4 19 -10 19c-2 0 -6 -4 -7 -10c-5 -24 23 -91 30 -91c5 0 6 2 6 6c0 6 -4 14 -6 25z" />
    <glyph glyph-name="trademark" unicode="&#x2122;" horiz-adv-x="578" 
d="M142 367c-12 0 -31 10 -31 24v288c-20 0 -62 -2 -62 27c0 17 12 27 29 27h137c12 0 19 -14 19 -25c0 -28 -28 -29 -48 -29h-5v-284c0 -18 -23 -28 -39 -28zM480 367c-33 0 -33 37 -33 55l2 174c0 6 -2 15 -6 15c-12 0 -40 -85 -64 -85c-19 0 -43 55 -57 78
c-2 3 -3 4 -4 4c-3 0 -3 -8 -3 -13v-176c0 -35 -18 -52 -39 -52c-16 0 -25 13 -25 50v240c0 24 2 48 9 61c5 7 13 15 22 15c46 0 78 -93 92 -109c2 -3 5 -4 6 -4c2 0 3 1 5 4c14 22 50 109 89 109c42 0 46 -62 46 -81v-233c0 -26 -15 -52 -40 -52zM63 696c1 0 3 1 3 4
c0 6 2 15 7 22c1 2 -1 3 -3 3c-7 0 -13 -11 -13 -20c0 -3 2 -9 6 -9zM266 672c1 13 7 32 16 47c2 3 -2 4 -4 4c-9 1 -19 -26 -20 -40c-1 -6 -1 -14 2 -15c3 0 6 2 6 4zM131 381c4 0 5 2 5 5c0 2 0 3 -2 3c-5 1 -7 13 -7 17c0 3 3 21 -3 21s-6 -16 -6 -19c0 -8 3 -27 13 -27z
M473 380c0 9 -8 19 -8 33c0 3 -1 8 -6 8c-3 0 -4 -4 -4 -7c0 -8 6 -37 16 -37c1 0 2 1 2 3zM273 378c0 6 -8 27 -14 27c-3 0 0 -31 12 -31c1 0 2 3 2 4z" />
    <glyph glyph-name="ellipsis" unicode="&#x2026;" horiz-adv-x="438" 
d="M66 -6c-33 0 -60 22 -60 58c0 35 26 69 63 69c39 0 59 -21 59 -60c0 -32 -26 -67 -62 -67zM212 -6c-33 0 -60 22 -60 58c0 35 26 69 63 69c39 0 59 -21 59 -60c0 -32 -26 -67 -62 -67zM358 -6c-33 0 -60 22 -60 58c0 35 26 69 63 69c39 0 59 -21 59 -60
c0 -32 -26 -67 -62 -67zM32 41c6 0 6 13 8 18c5 14 16 24 24 38c1 2 -1 8 -4 8c-15 1 -34 -38 -34 -52c0 -3 0 -12 6 -12zM178 41c6 0 6 13 8 18c5 14 16 24 24 38c1 2 -1 8 -4 8c-15 1 -34 -38 -34 -52c0 -3 0 -12 6 -12zM324 41c6 0 6 13 8 18c5 14 16 24 24 38
c1 2 -1 8 -4 8c-15 1 -34 -38 -34 -52c0 -3 0 -12 6 -12z" />
    <glyph glyph-name="Agrave" unicode="&#xc0;" horiz-adv-x="451" 
d="M265 638c-5 -5 -10 -8 -15 -8c-24 0 -71 80 -76 104c-1 14 12 38 29 38c11 0 30 -18 60 -60c21 -29 18 -58 2 -74zM231 621c42 0 72 -15 82 -34c23 -47 124 -491 124 -539c0 -27 -34 -51 -66 -51c-15 0 -27 5 -33 14c-12 16 -32 86 -43 141c-5 26 -16 29 -29 29
c-38 0 -69 1 -84 1c-26 0 -38 -6 -42 -20l-26 -100c-10 -39 -36 -64 -65 -64c-24 0 -36 17 -36 50c0 69 50 311 94 449c33 101 61 124 124 124zM170 561c14 17 31 36 22 37c-11 2 -22 -5 -32 -19c-15 -22 -24 -55 -13 -57c6 -1 8 22 23 39zM186 377
c-14 -75 -21 -100 -9 -100h88c10 0 2 26 -8 80c-5 28 -18 155 -33 155c-14 0 -34 -114 -38 -135zM45 63c3 16 -1 26 -6 27c-2 0 -7 -3 -9 -13c-5 -26 -1 -56 10 -59c6 -1 8 4 4 15c-3 8 -1 18 1 30zM350 64c-9 18 -10 24 -13 24s-4 -4 -5 -10c-1 -12 15 -61 29 -62
c8 -1 -3 33 -11 48z" />
    <glyph glyph-name="Aacute" unicode="&#xc1;" horiz-adv-x="451" 
d="M182 640c-15 11 -13 41 8 70c30 42 49 60 60 60c10 0 30 -22 29 -36c-5 -27 -50 -101 -79 -101c-7 0 -12 3 -18 7zM231 621c42 0 72 -15 82 -34c23 -47 124 -491 124 -539c0 -27 -34 -51 -66 -51c-15 0 -27 5 -33 14c-12 16 -32 86 -43 141c-5 26 -16 29 -29 29
c-38 0 -69 1 -84 1c-26 0 -38 -6 -42 -20l-26 -100c-10 -39 -36 -64 -65 -64c-24 0 -36 17 -36 50c0 69 50 311 94 449c33 101 61 124 124 124zM170 561c14 17 31 36 22 37c-11 2 -22 -5 -32 -19c-15 -22 -24 -55 -13 -57c6 -1 8 22 23 39zM186 377
c-14 -75 -21 -100 -9 -100h88c10 0 2 26 -8 80c-5 28 -18 155 -33 155c-14 0 -34 -114 -38 -135zM45 63c3 16 -1 26 -6 27c-2 0 -7 -3 -9 -13c-5 -26 -1 -56 10 -59c6 -1 8 4 4 15c-3 8 -1 18 1 30zM350 64c-9 18 -10 24 -13 24s-4 -4 -5 -10c-1 -12 15 -61 29 -62
c8 -1 -3 33 -11 48z" />
    <glyph glyph-name="Acircumflex" unicode="&#xc2;" horiz-adv-x="451" 
d="M136 667c0 29 62 115 92 115c29 0 88 -88 88 -114c0 -17 -19 -28 -35 -28c-27 0 -36 35 -52 57c-20 -22 -31 -59 -60 -59c-13 0 -33 16 -33 29zM231 621c42 0 72 -15 82 -34c23 -47 124 -491 124 -539c0 -27 -34 -51 -66 -51c-15 0 -27 5 -33 14c-12 16 -32 86 -43 141
c-5 26 -16 29 -29 29c-38 0 -69 1 -84 1c-26 0 -38 -6 -42 -20l-26 -100c-10 -39 -36 -64 -65 -64c-24 0 -36 17 -36 50c0 69 50 311 94 449c33 101 61 124 124 124zM170 561c14 17 31 36 22 37c-11 2 -22 -5 -32 -19c-15 -22 -24 -55 -13 -57c6 -1 8 22 23 39zM186 377
c-14 -75 -21 -100 -9 -100h88c10 0 2 26 -8 80c-5 28 -18 155 -33 155c-14 0 -34 -114 -38 -135zM45 63c3 16 -1 26 -6 27c-2 0 -7 -3 -9 -13c-5 -26 -1 -56 10 -59c6 -1 8 4 4 15c-3 8 -1 18 1 30zM350 64c-9 18 -10 24 -13 24s-4 -4 -5 -10c-1 -12 15 -61 29 -62
c8 -1 -3 33 -11 48z" />
    <glyph glyph-name="Atilde" unicode="&#xc3;" horiz-adv-x="451" 
d="M270 636c-44 0 -66 54 -88 54c-10 0 -24 -17 -28 -25c-7 -15 -11 -19 -27 -19c-13 0 -26 15 -26 27c0 37 41 84 77 84c41 0 68 -54 96 -54s23 56 53 56c15 0 24 -18 24 -29c0 -43 -37 -94 -81 -94zM231 621c42 0 72 -15 82 -34c23 -47 124 -491 124 -539
c0 -27 -34 -51 -66 -51c-15 0 -27 5 -33 14c-12 16 -32 86 -43 141c-5 26 -16 29 -29 29c-38 0 -69 1 -84 1c-26 0 -38 -6 -42 -20l-26 -100c-10 -39 -36 -64 -65 -64c-24 0 -36 17 -36 50c0 69 50 311 94 449c33 101 61 124 124 124zM170 561c14 17 31 36 22 37
c-11 2 -22 -5 -32 -19c-15 -22 -24 -55 -13 -57c6 -1 8 22 23 39zM186 377c-14 -75 -21 -100 -9 -100h88c10 0 2 26 -8 80c-5 28 -18 155 -33 155c-14 0 -34 -114 -38 -135zM45 63c3 16 -1 26 -6 27c-2 0 -7 -3 -9 -13c-5 -26 -1 -56 10 -59c6 -1 8 4 4 15c-3 8 -1 18 1 30z
M350 64c-9 18 -10 24 -13 24s-4 -4 -5 -10c-1 -12 15 -61 29 -62c8 -1 -3 33 -11 48z" />
    <glyph glyph-name="Adieresis" unicode="&#xc4;" horiz-adv-x="451" 
d="M171 644c-22 0 -47 16 -47 45s25 46 47 46s46 -17 46 -46s-24 -45 -46 -45zM281 644c-22 0 -47 16 -47 45s25 46 47 46s46 -17 46 -46s-24 -45 -46 -45zM231 621c42 0 72 -15 82 -34c23 -47 124 -491 124 -539c0 -27 -34 -51 -66 -51c-15 0 -27 5 -33 14
c-12 16 -32 86 -43 141c-5 26 -16 29 -29 29c-38 0 -69 1 -84 1c-26 0 -38 -6 -42 -20l-26 -100c-10 -39 -36 -64 -65 -64c-24 0 -36 17 -36 50c0 69 50 311 94 449c33 101 61 124 124 124zM170 561c14 17 31 36 22 37c-11 2 -22 -5 -32 -19c-15 -22 -24 -55 -13 -57
c6 -1 8 22 23 39zM186 377c-14 -75 -21 -100 -9 -100h88c10 0 2 26 -8 80c-5 28 -18 155 -33 155c-14 0 -34 -114 -38 -135zM45 63c3 16 -1 26 -6 27c-2 0 -7 -3 -9 -13c-5 -26 -1 -56 10 -59c6 -1 8 4 4 15c-3 8 -1 18 1 30zM350 64c-9 18 -10 24 -13 24s-4 -4 -5 -10
c-1 -12 15 -61 29 -62c8 -1 -3 33 -11 48z" />
    <glyph glyph-name="Aring" unicode="&#xc5;" horiz-adv-x="451" 
d="M225 624c-34 0 -65 21 -65 61c0 45 30 74 63 74c36 0 69 -29 69 -68c0 -35 -31 -67 -67 -67zM223 669c12 0 21 15 21 25c0 5 -8 17 -19 17c-14 0 -20 -8 -20 -24c0 -10 10 -18 18 -18zM231 621c42 0 72 -15 82 -34c23 -47 124 -491 124 -539c0 -27 -34 -51 -66 -51
c-15 0 -27 5 -33 14c-12 16 -32 86 -43 141c-5 26 -16 29 -29 29c-38 0 -69 1 -84 1c-26 0 -38 -6 -42 -20l-26 -100c-10 -39 -36 -64 -65 -64c-24 0 -36 17 -36 50c0 69 50 311 94 449c33 101 61 124 124 124zM170 561c14 17 31 36 22 37c-11 2 -22 -5 -32 -19
c-15 -22 -24 -55 -13 -57c6 -1 8 22 23 39zM186 377c-14 -75 -21 -100 -9 -100h88c10 0 2 26 -8 80c-5 28 -18 155 -33 155c-14 0 -34 -114 -38 -135zM45 63c3 16 -1 26 -6 27c-2 0 -7 -3 -9 -13c-5 -26 -1 -56 10 -59c6 -1 8 4 4 15c-3 8 -1 18 1 30zM350 64
c-9 18 -10 24 -13 24s-4 -4 -5 -10c-1 -12 15 -61 29 -62c8 -1 -3 33 -11 48z" />
    <glyph glyph-name="AE" unicode="&#xc6;" horiz-adv-x="663" 
d="M231 621c42 0 72 -15 82 -34c3 -6 8 -19 13 -37c8 52 46 66 76 66h195c24 0 36 -22 36 -45s-11 -50 -32 -51l-141 -4c-13 0 -22 -11 -22 -24v-92c0 -20 7 -30 22 -30l119 1c26 0 33 -25 33 -52c0 -17 -5 -39 -32 -40l-115 -4c-21 -1 -27 -10 -27 -31v-66
c0 -56 -2 -89 66 -89c44 0 91 30 117 30c18 0 26 -34 26 -54c0 -54 -111 -69 -151 -69c-42 0 -110 -5 -125 1c-15 0 -27 5 -33 14c-12 16 -32 86 -43 141c-5 26 -16 29 -29 29c-38 0 -69 1 -84 1c-26 0 -38 -6 -42 -20l-26 -100c-10 -39 -36 -64 -65 -64
c-24 0 -36 17 -36 50c0 69 50 311 94 449c33 101 61 124 124 124zM170 561c14 17 31 36 22 37c-11 2 -22 -5 -32 -19c-15 -22 -24 -55 -13 -57c6 -1 8 22 23 39zM186 377c-14 -75 -21 -100 -9 -100h88c10 0 2 26 -8 80c-5 28 -18 155 -33 155c-14 0 -34 -114 -38 -135z
M346 67c-9 18 -10 24 -13 24s-4 -4 -5 -10c-1 -12 15 -61 29 -62c8 -1 -3 33 -11 48zM45 63c3 16 -1 26 -6 27c-2 0 -7 -3 -9 -13c-5 -26 -1 -56 10 -59c6 -1 8 4 4 15c-3 8 -1 18 1 30z" />
    <glyph glyph-name="Ccedilla" unicode="&#xc7;" horiz-adv-x="386" 
d="M178 -169c-27 0 -71 15 -71 59c0 16 6 21 16 21c16 0 42 -15 59 -15c11 0 28 3 28 19c0 19 -62 14 -62 60c0 7 3 16 8 24c-90 32 -145 143 -145 293c0 189 88 331 212 331c83 0 149 -63 149 -142c0 -37 -14 -57 -41 -57c-31 0 -54 27 -55 63c-1 27 -14 41 -39 41
c-66 0 -107 -98 -107 -238c0 -126 32 -202 93 -202c29 0 52 18 52 42c0 26 29 53 56 53c24 0 40 -23 40 -57c0 -69 -64 -128 -143 -135c-4 -9 -7 -16 -3 -16c53 0 55 -49 55 -68c0 -44 -43 -76 -102 -76zM95 513c9 -1 68 81 109 78c7 -1 14 3 14 7c1 5 -4 9 -11 10
c-45 4 -113 -60 -116 -90c0 -5 3 -5 4 -5zM85 502c-6 0 -13 -10 -14 -20c0 -5 1 -9 3 -9c9 -1 22 28 11 29z" />
    <glyph glyph-name="Eth" unicode="&#xd0;" horiz-adv-x="409" 
d="M107 0c-48 0 -91 19 -91 88v237c-28 1 -50 14 -50 44s25 41 50 44v103c0 73 53 102 115 102h45c114 0 221 -108 221 -292c0 -196 -109 -326 -235 -326h-55zM144 96h13c70 0 124 92 124 233c0 126 -45 191 -108 191h-15c-23 0 -28 -7 -28 -40v-64h27c23 0 46 -8 46 -37
c0 -43 -37 -52 -73 -52v-195c0 -27 5 -36 14 -36zM-16 350c10 0 25 34 25 39s0 11 -6 11c-17 0 -26 -24 -26 -37c0 -10 5 -13 7 -13zM47 83c11 0 6 65 6 78c0 38 -2 55 -6 55s-9 -15 -9 -55c0 -59 -1 -78 9 -78zM46 69c-5 0 -7 -5 -7 -11c0 -11 4 -18 8 -18s7 10 7 18
c0 9 -1 11 -8 11z" />
    <glyph glyph-name="Dcroat" unicode="&#x110;" horiz-adv-x="409" 
d="M107 0c-48 0 -91 19 -91 88v237c-28 1 -50 14 -50 44s25 41 50 44v103c0 73 53 102 115 102h45c114 0 221 -108 221 -292c0 -196 -109 -326 -235 -326h-55zM144 96h13c70 0 124 92 124 233c0 126 -45 191 -108 191h-15c-23 0 -28 -7 -28 -40v-64h27c23 0 46 -8 46 -37
c0 -43 -37 -52 -73 -52v-195c0 -27 5 -36 14 -36zM-16 350c10 0 25 34 25 39s0 11 -6 11c-17 0 -26 -24 -26 -37c0 -10 5 -13 7 -13zM47 83c11 0 6 65 6 78c0 38 -2 55 -6 55s-9 -15 -9 -55c0 -59 -1 -78 9 -78zM46 69c-5 0 -7 -5 -7 -11c0 -11 4 -18 8 -18s7 10 7 18
c0 9 -1 11 -8 11z" />
    <glyph glyph-name="Egrave" unicode="&#xc8;" horiz-adv-x="362" 
d="M220 638c-5 -5 -10 -8 -15 -8c-24 0 -71 80 -76 104c-1 14 12 38 29 38c11 0 30 -18 60 -60c21 -29 18 -58 2 -74zM195 -4c-101 0 -172 26 -172 122v409c0 70 44 89 78 89h195c24 0 36 -22 36 -45s-11 -50 -32 -51l-141 -4c-13 0 -22 -11 -22 -24v-92c0 -20 7 -30 22 -30
l119 1c26 0 33 -25 33 -52c0 -17 -5 -39 -32 -40l-115 -4c-21 -1 -27 -10 -27 -31v-66c0 -56 -2 -89 66 -89c44 0 91 30 117 30c18 0 26 -34 26 -54c0 -54 -111 -69 -151 -69zM87 60c-16 21 -29 42 -32 62c-2 9 -5 14 -9 13c-4 0 -7 -7 -5 -18c3 -25 24 -74 47 -71
c4 1 5 6 -1 14z" />
    <glyph glyph-name="Eacute" unicode="&#xc9;" horiz-adv-x="362" 
d="M137 640c-15 11 -13 41 8 70c30 42 49 60 60 60c10 0 30 -22 29 -36c-5 -27 -50 -101 -79 -101c-7 0 -12 3 -18 7zM195 -4c-101 0 -172 26 -172 122v409c0 70 44 89 78 89h195c24 0 36 -22 36 -45s-11 -50 -32 -51l-141 -4c-13 0 -22 -11 -22 -24v-92c0 -20 7 -30 22 -30
l119 1c26 0 33 -25 33 -52c0 -17 -5 -39 -32 -40l-115 -4c-21 -1 -27 -10 -27 -31v-66c0 -56 -2 -89 66 -89c44 0 91 30 117 30c18 0 26 -34 26 -54c0 -54 -111 -69 -151 -69zM87 60c-16 21 -29 42 -32 62c-2 9 -5 14 -9 13c-4 0 -7 -7 -5 -18c3 -25 24 -74 47 -71
c4 1 5 6 -1 14z" />
    <glyph glyph-name="Ecircumflex" unicode="&#xca;" horiz-adv-x="362" 
d="M91 667c0 29 62 115 92 115c29 0 88 -88 88 -114c0 -17 -19 -28 -35 -28c-27 0 -36 35 -52 57c-20 -22 -31 -59 -60 -59c-13 0 -33 16 -33 29zM195 -4c-101 0 -172 26 -172 122v409c0 70 44 89 78 89h195c24 0 36 -22 36 -45s-11 -50 -32 -51l-141 -4
c-13 0 -22 -11 -22 -24v-92c0 -20 7 -30 22 -30l119 1c26 0 33 -25 33 -52c0 -17 -5 -39 -32 -40l-115 -4c-21 -1 -27 -10 -27 -31v-66c0 -56 -2 -89 66 -89c44 0 91 30 117 30c18 0 26 -34 26 -54c0 -54 -111 -69 -151 -69zM87 60c-16 21 -29 42 -32 62c-2 9 -5 14 -9 13
c-4 0 -7 -7 -5 -18c3 -25 24 -74 47 -71c4 1 5 6 -1 14z" />
    <glyph glyph-name="Edieresis" unicode="&#xcb;" horiz-adv-x="362" 
d="M127 644c-22 0 -47 16 -47 45s25 46 47 46s46 -17 46 -46s-24 -45 -46 -45zM237 644c-22 0 -47 16 -47 45s25 46 47 46s46 -17 46 -46s-24 -45 -46 -45zM195 -4c-101 0 -172 26 -172 122v409c0 70 44 89 78 89h195c24 0 36 -22 36 -45s-11 -50 -32 -51l-141 -4
c-13 0 -22 -11 -22 -24v-92c0 -20 7 -30 22 -30l119 1c26 0 33 -25 33 -52c0 -17 -5 -39 -32 -40l-115 -4c-21 -1 -27 -10 -27 -31v-66c0 -56 -2 -89 66 -89c44 0 91 30 117 30c18 0 26 -34 26 -54c0 -54 -111 -69 -151 -69zM87 60c-16 21 -29 42 -32 62c-2 9 -5 14 -9 13
c-4 0 -7 -7 -5 -18c3 -25 24 -74 47 -71c4 1 5 6 -1 14z" />
    <glyph glyph-name="Igrave" unicode="&#xcc;" horiz-adv-x="232" 
d="M155 638c-5 -5 -10 -8 -15 -8c-24 0 -71 80 -76 104c-1 14 12 38 29 38c11 0 30 -18 60 -60c21 -29 18 -58 2 -74zM53 1c-14 0 -35 4 -35 23c0 13 14 26 36 26c9 0 14 9 14 18v480c0 10 -14 19 -24 19c-28 0 -35 13 -35 27c0 18 25 25 113 25c79 0 96 -4 96 -18
c0 -19 -20 -31 -32 -35c-6 -2 -11 -8 -11 -19v-479c0 -6 1 -18 7 -20c13 -4 24 -6 28 -9c2 -2 5 -6 5 -12c0 -7 -3 -15 -8 -19c-8 -7 -39 -7 -74 -8c-30 -1 -67 1 -80 1zM102 149c0 28 -3 49 -9 49c-9 0 -12 -91 -4 -99s13 1 13 50zM102 77c0 7 -8 7 -8 7c-5 0 -10 0 -10 -7
c0 -5 3 -8 9 -8c5 0 9 3 9 8z" />
    <glyph glyph-name="Iacute" unicode="&#xcd;" horiz-adv-x="232" 
d="M72 640c-15 11 -13 41 8 70c30 42 49 60 60 60c10 0 30 -22 29 -36c-5 -27 -50 -101 -79 -101c-7 0 -12 3 -18 7zM53 1c-14 0 -35 4 -35 23c0 13 14 26 36 26c9 0 14 9 14 18v480c0 10 -14 19 -24 19c-28 0 -35 13 -35 27c0 18 25 25 113 25c79 0 96 -4 96 -18
c0 -19 -20 -31 -32 -35c-6 -2 -11 -8 -11 -19v-479c0 -6 1 -18 7 -20c13 -4 24 -6 28 -9c2 -2 5 -6 5 -12c0 -7 -3 -15 -8 -19c-8 -7 -39 -7 -74 -8c-30 -1 -67 1 -80 1zM102 149c0 28 -3 49 -9 49c-9 0 -12 -91 -4 -99s13 1 13 50zM102 77c0 7 -8 7 -8 7c-5 0 -10 0 -10 -7
c0 -5 3 -8 9 -8c5 0 9 3 9 8z" />
    <glyph glyph-name="Icircumflex" unicode="&#xce;" horiz-adv-x="232" 
d="M26 667c0 29 62 115 92 115c29 0 88 -88 88 -114c0 -17 -19 -28 -35 -28c-27 0 -36 35 -52 57c-20 -22 -31 -59 -60 -59c-13 0 -33 16 -33 29zM53 1c-14 0 -35 4 -35 23c0 13 14 26 36 26c9 0 14 9 14 18v480c0 10 -14 19 -24 19c-28 0 -35 13 -35 27c0 18 25 25 113 25
c79 0 96 -4 96 -18c0 -19 -20 -31 -32 -35c-6 -2 -11 -8 -11 -19v-479c0 -6 1 -18 7 -20c13 -4 24 -6 28 -9c2 -2 5 -6 5 -12c0 -7 -3 -15 -8 -19c-8 -7 -39 -7 -74 -8c-30 -1 -67 1 -80 1zM102 149c0 28 -3 49 -9 49c-9 0 -12 -91 -4 -99s13 1 13 50zM102 77c0 7 -8 7 -8 7
c-5 0 -10 0 -10 -7c0 -5 3 -8 9 -8c5 0 9 3 9 8z" />
    <glyph glyph-name="Idieresis" unicode="&#xcf;" horiz-adv-x="232" 
d="M61 644c-22 0 -47 16 -47 45s25 46 47 46s46 -17 46 -46s-24 -45 -46 -45zM171 644c-22 0 -47 16 -47 45s25 46 47 46s46 -17 46 -46s-24 -45 -46 -45zM53 1c-14 0 -35 4 -35 23c0 13 14 26 36 26c9 0 14 9 14 18v480c0 10 -14 19 -24 19c-28 0 -35 13 -35 27
c0 18 25 25 113 25c79 0 96 -4 96 -18c0 -19 -20 -31 -32 -35c-6 -2 -11 -8 -11 -19v-479c0 -6 1 -18 7 -20c13 -4 24 -6 28 -9c2 -2 5 -6 5 -12c0 -7 -3 -15 -8 -19c-8 -7 -39 -7 -74 -8c-30 -1 -67 1 -80 1zM102 149c0 28 -3 49 -9 49c-9 0 -12 -91 -4 -99s13 1 13 50z
M102 77c0 7 -8 7 -8 7c-5 0 -10 0 -10 -7c0 -5 3 -8 9 -8c5 0 9 3 9 8z" />
    <glyph glyph-name="Lslash" unicode="&#x141;" horiz-adv-x="321" 
d="M60 0c-15 0 -28 12 -28 27l-1 216h-1c-21 -5 -41 1 -46 24c-6 26 18 38 39 43c3 1 5 1 9 2v241c0 28 5 63 58 63c30 0 56 -30 56 -56v-221c5 1 10 3 14 4c17 3 35 1 40 -20c7 -30 -16 -43 -40 -49c-3 -1 -8 -2 -14 -3v-150c0 -24 11 -27 23 -27c46 0 67 3 113 3
c19 0 24 -25 24 -43c0 -27 -21 -55 -39 -55h-47l-83 1h-77zM50 549c8 0 27 42 28 50c0 3 -4 5 -8 5c-14 -1 -27 -38 -25 -49c0 -3 2 -6 5 -6zM0 256c7 1 13 29 12 32c-1 4 -2 8 -6 7c-13 -2 -15 -21 -13 -31c1 -7 6 -9 7 -8zM61 59c13 0 10 68 10 96c0 11 -2 36 -14 36
c-8 0 -8 -54 -8 -61c0 -8 2 -71 12 -71zM78 30c0 6 -4 11 -7 11c-7 0 -10 -5 -10 -11c0 -5 3 -8 8 -8c4 0 9 3 9 8z" />
    <glyph glyph-name="Ntilde" unicode="&#xd1;" horiz-adv-x="439" 
d="M264 636c-44 0 -66 54 -88 54c-10 0 -24 -17 -28 -25c-7 -15 -11 -19 -27 -19c-13 0 -26 15 -26 27c0 37 41 84 77 84c41 0 68 -54 96 -54s23 56 53 56c15 0 24 -18 24 -29c0 -43 -37 -94 -81 -94zM72 0c-46 0 -53 57 -53 103v460c0 36 25 53 48 53c35 0 67 -13 92 -63
c47 -93 78 -160 123 -253c7 -15 14 -25 20 -25c4 0 7 6 7 18v246c0 43 6 77 57 77c50 0 49 -33 49 -54v-449c0 -66 -9 -113 -39 -113c-26 0 -51 22 -63 41s-121 201 -166 308c-6 15 -10 22 -14 22c-5 0 -7 -21 -7 -67v-159c0 -104 -16 -145 -54 -145zM340 547
c4 11 6 32 13 41s-1 14 -5 15c-15 2 -31 -71 -17 -73c1 0 5 3 9 17zM44 544c2 13 7 33 11 42c4 8 4 14 0 14s-10 -2 -17 -19s-11 -63 -3 -63c5 0 7 9 9 26zM44 490c0 2 -1 7 -5 7c-5 0 -7 -6 -7 -7c0 -5 1 -9 5 -9s7 4 7 9zM69 23c0 5 -20 21 -20 51c0 8 -2 11 -5 11
s-5 -4 -5 -14c0 -26 15 -53 25 -53c2 0 5 3 5 5z" />
    <glyph glyph-name="Ograve" unicode="&#xd2;" horiz-adv-x="444" 
d="M261 638c-5 -5 -10 -8 -15 -8c-24 0 -71 80 -76 104c-1 14 12 38 29 38c11 0 30 -18 60 -60c21 -29 18 -58 2 -74zM231 -9c-146 0 -215 156 -215 305s61 329 216 329c140 0 202 -157 202 -334c0 -147 -62 -300 -203 -300zM79 468c7 -1 22 35 36 53c29 38 61 62 61 68
c0 2 -1 3 -5 4c-32 0 -96 -88 -96 -120c0 -2 2 -5 4 -5zM231 71c79 0 96 133 96 228s-9 234 -95 234c-84 0 -102 -173 -102 -237c0 -65 11 -225 101 -225zM80 446c0 4 -3 9 -7 10c-4 0 -13 -5 -13 -15c0 -6 4 -9 8 -9s12 4 12 14z" />
    <glyph glyph-name="Oacute" unicode="&#xd3;" horiz-adv-x="444" 
d="M178 640c-15 11 -13 41 8 70c30 42 49 60 60 60c10 0 30 -22 29 -36c-5 -27 -50 -101 -79 -101c-7 0 -12 3 -18 7zM231 -9c-146 0 -215 156 -215 305s61 329 216 329c140 0 202 -157 202 -334c0 -147 -62 -300 -203 -300zM79 468c7 -1 22 35 36 53c29 38 61 62 61 68
c0 2 -1 3 -5 4c-32 0 -96 -88 -96 -120c0 -2 2 -5 4 -5zM231 71c79 0 96 133 96 228s-9 234 -95 234c-84 0 -102 -173 -102 -237c0 -65 11 -225 101 -225zM80 446c0 4 -3 9 -7 10c-4 0 -13 -5 -13 -15c0 -6 4 -9 8 -9s12 4 12 14z" />
    <glyph glyph-name="Ocircumflex" unicode="&#xd4;" horiz-adv-x="444" 
d="M132 667c0 29 62 115 92 115c29 0 88 -88 88 -114c0 -17 -19 -28 -35 -28c-27 0 -36 35 -52 57c-20 -22 -31 -59 -60 -59c-13 0 -33 16 -33 29zM231 -9c-146 0 -215 156 -215 305s61 329 216 329c140 0 202 -157 202 -334c0 -147 -62 -300 -203 -300zM79 468
c7 -1 22 35 36 53c29 38 61 62 61 68c0 2 -1 3 -5 4c-32 0 -96 -88 -96 -120c0 -2 2 -5 4 -5zM231 71c79 0 96 133 96 228s-9 234 -95 234c-84 0 -102 -173 -102 -237c0 -65 11 -225 101 -225zM80 446c0 4 -3 9 -7 10c-4 0 -13 -5 -13 -15c0 -6 4 -9 8 -9s12 4 12 14z" />
    <glyph glyph-name="Otilde" unicode="&#xd5;" horiz-adv-x="444" 
d="M266 636c-44 0 -66 54 -88 54c-10 0 -24 -17 -28 -25c-7 -15 -11 -19 -27 -19c-13 0 -26 15 -26 27c0 37 41 84 77 84c41 0 68 -54 96 -54s23 56 53 56c15 0 24 -18 24 -29c0 -43 -37 -94 -81 -94zM231 -9c-146 0 -215 156 -215 305s61 329 216 329
c140 0 202 -157 202 -334c0 -147 -62 -300 -203 -300zM79 468c7 -1 22 35 36 53c29 38 61 62 61 68c0 2 -1 3 -5 4c-32 0 -96 -88 -96 -120c0 -2 2 -5 4 -5zM231 71c79 0 96 133 96 228s-9 234 -95 234c-84 0 -102 -173 -102 -237c0 -65 11 -225 101 -225zM80 446
c0 4 -3 9 -7 10c-4 0 -13 -5 -13 -15c0 -6 4 -9 8 -9s12 4 12 14z" />
    <glyph glyph-name="Odieresis" unicode="&#xd6;" horiz-adv-x="444" 
d="M168 644c-22 0 -47 16 -47 45s25 46 47 46s46 -17 46 -46s-24 -45 -46 -45zM278 644c-22 0 -47 16 -47 45s25 46 47 46s46 -17 46 -46s-24 -45 -46 -45zM231 -9c-146 0 -215 156 -215 305s61 329 216 329c140 0 202 -157 202 -334c0 -147 -62 -300 -203 -300zM79 468
c7 -1 22 35 36 53c29 38 61 62 61 68c0 2 -1 3 -5 4c-32 0 -96 -88 -96 -120c0 -2 2 -5 4 -5zM231 71c79 0 96 133 96 228s-9 234 -95 234c-84 0 -102 -173 -102 -237c0 -65 11 -225 101 -225zM80 446c0 4 -3 9 -7 10c-4 0 -13 -5 -13 -15c0 -6 4 -9 8 -9s12 4 12 14z" />
    <glyph glyph-name="Oslash" unicode="&#xd8;" horiz-adv-x="444" 
d="M231 -9c-27 0 -52 5 -74 15c-23 -50 -40 -83 -48 -83c-12 0 -69 12 -69 36c0 4 16 48 40 111c-43 59 -64 144 -64 226c0 149 61 329 216 329c25 0 48 -5 68 -14c10 24 26 55 56 55c18 0 49 -15 49 -33c0 -11 -14 -51 -30 -91c40 -62 59 -154 59 -251
c0 -147 -62 -300 -203 -300zM79 468c7 -1 22 35 36 53c29 38 61 62 61 68c0 2 -1 3 -5 4c-32 0 -96 -88 -96 -120c0 -2 2 -5 4 -5zM136 212c43 108 91 229 127 314c-9 5 -19 7 -31 7c-84 0 -102 -173 -102 -237c0 -21 2 -52 6 -84zM80 446c0 4 -3 9 -7 10
c-4 0 -13 -5 -13 -15c0 -6 4 -9 8 -9s12 4 12 14zM231 71c79 0 96 133 96 228c0 34 -1 73 -6 110c-27 -70 -83 -212 -130 -325c11 -8 24 -13 40 -13zM86 -32c11 32 33 74 20 77c-3 1 -11 3 -15 -4c-6 -11 -22 -51 -22 -67c0 -9 15 -13 17 -6z" />
    <glyph glyph-name="OE" unicode="&#x152;" horiz-adv-x="676" 
d="M231 -9c-146 0 -215 156 -215 305s61 329 216 329c47 0 85 -18 115 -48c15 30 44 39 68 39h195c24 0 36 -22 36 -45s-11 -50 -32 -51l-141 -4c-13 0 -22 -11 -22 -24v-92c0 -20 7 -30 22 -30l119 1c26 0 33 -25 33 -52c0 -17 -5 -39 -32 -40l-115 -4
c-21 -1 -27 -10 -27 -31v-66c0 -56 -2 -89 66 -89c44 0 91 30 117 30c18 0 26 -34 26 -54c0 -54 -111 -69 -151 -69c-69 0 -124 12 -152 51c-32 -34 -73 -56 -126 -56zM79 468c7 -1 22 35 36 53c29 38 61 62 61 68c0 2 -1 3 -5 4c-32 0 -96 -88 -96 -120c0 -2 2 -5 4 -5z
M231 71c79 0 96 133 96 228s-9 234 -95 234c-84 0 -102 -173 -102 -237c0 -65 11 -225 101 -225zM80 446c0 4 -3 9 -7 10c-4 0 -13 -5 -13 -15c0 -6 4 -9 8 -9s12 4 12 14zM446 35c-24 9 -45 21 -59 36c-6 7 -12 9 -15 6c-3 -2 -2 -10 5 -18c13 -16 44 -40 65 -40
c5 0 9 1 12 4s2 8 -8 12z" />
    <glyph glyph-name="Scaron" unicode="&#x160;" horiz-adv-x="357" 
d="M89 753c0 13 20 29 33 29c29 0 40 -37 60 -59c16 22 25 57 52 57c16 0 35 -11 35 -28c0 -26 -59 -114 -88 -114c-30 0 -92 86 -92 115zM175 -9c-83 0 -163 66 -163 136c0 41 27 71 63 69c23 -1 32 -15 32 -50c0 -49 17 -70 58 -70c42 0 64 22 64 65c0 57 -38 92 -74 128
c-96 96 -133 154 -133 208c0 91 61 147 159 147c69 0 144 -49 144 -93c0 -40 -27 -79 -61 -79c-16 0 -39 14 -40 37c-1 27 -18 42 -47 42s-42 -15 -42 -48c0 -41 20 -73 91 -146c87 -89 115 -135 115 -186c0 -94 -69 -160 -166 -160zM80 543c5 9 16 24 26 32
c10 7 14 18 10 18c-17 2 -57 -46 -59 -69c0 -4 2 -6 6 -6c7 -1 9 12 17 25zM64 498c0 4 -3 7 -6 7c-4 0 -8 -5 -8 -8s2 -5 7 -6c3 0 6 3 7 7zM49 129c7 18 16 29 17 40c0 3 0 5 -3 5c-22 2 -39 -37 -29 -69c2 -5 5 -10 8 -10c7 0 0 16 7 34z" />
    <glyph glyph-name="Ugrave" unicode="&#xd9;" horiz-adv-x="423" 
d="M251 638c-5 -5 -10 -8 -15 -8c-24 0 -71 80 -76 104c-1 14 12 38 29 38c11 0 30 -18 60 -60c21 -29 18 -58 2 -74zM208 -4c-121 0 -195 91 -195 225v309c0 27 9 86 53 86s61 -16 61 -88v-300c0 -65 -8 -137 85 -137c88 0 83 112 83 193v247c0 27 8 87 50 87
c41 0 63 -26 63 -86v-286c0 -151 -68 -250 -200 -250zM323 556c0 5 4 18 13 28c11 14 12 19 0 19c-6 0 -13 -8 -17 -15c-3 -6 -9 -18 -10 -30c0 -7 1 -14 7 -14c7 0 7 5 7 12zM55 570c5 12 15 19 15 28c0 3 -1 5 -3 5c-4 0 -13 -3 -20 -13c-20 -28 -21 -55 -13 -55
c6 0 14 16 21 35zM124 48c0 4 -12 12 -23 24c-10 11 -27 30 -36 50c-6 13 -13 18 -16 18s-4 -2 -4 -7c1 -22 46 -91 73 -91c4 0 6 2 6 6zM147 39c0 1 -4 7 -8 7c-6 -1 -9 -6 -9 -9c1 -4 2 -8 8 -7c5 0 9 4 9 9z" />
    <glyph glyph-name="Uacute" unicode="&#xda;" horiz-adv-x="423" 
d="M168 640c-15 11 -13 41 8 70c30 42 49 60 60 60c10 0 30 -22 29 -36c-5 -27 -50 -101 -79 -101c-7 0 -12 3 -18 7zM208 -4c-121 0 -195 91 -195 225v309c0 27 9 86 53 86s61 -16 61 -88v-300c0 -65 -8 -137 85 -137c88 0 83 112 83 193v247c0 27 8 87 50 87
c41 0 63 -26 63 -86v-286c0 -151 -68 -250 -200 -250zM323 556c0 5 4 18 13 28c11 14 12 19 0 19c-6 0 -13 -8 -17 -15c-3 -6 -9 -18 -10 -30c0 -7 1 -14 7 -14c7 0 7 5 7 12zM55 570c5 12 15 19 15 28c0 3 -1 5 -3 5c-4 0 -13 -3 -20 -13c-20 -28 -21 -55 -13 -55
c6 0 14 16 21 35zM124 48c0 4 -12 12 -23 24c-10 11 -27 30 -36 50c-6 13 -13 18 -16 18s-4 -2 -4 -7c1 -22 46 -91 73 -91c4 0 6 2 6 6zM147 39c0 1 -4 7 -8 7c-6 -1 -9 -6 -9 -9c1 -4 2 -8 8 -7c5 0 9 4 9 9z" />
    <glyph glyph-name="Ucircumflex" unicode="&#xdb;" horiz-adv-x="423" 
d="M122 667c0 29 62 115 92 115c29 0 88 -88 88 -114c0 -17 -19 -28 -35 -28c-27 0 -36 35 -52 57c-20 -22 -31 -59 -60 -59c-13 0 -33 16 -33 29zM208 -4c-121 0 -195 91 -195 225v309c0 27 9 86 53 86s61 -16 61 -88v-300c0 -65 -8 -137 85 -137c88 0 83 112 83 193v247
c0 27 8 87 50 87c41 0 63 -26 63 -86v-286c0 -151 -68 -250 -200 -250zM323 556c0 5 4 18 13 28c11 14 12 19 0 19c-6 0 -13 -8 -17 -15c-3 -6 -9 -18 -10 -30c0 -7 1 -14 7 -14c7 0 7 5 7 12zM55 570c5 12 15 19 15 28c0 3 -1 5 -3 5c-4 0 -13 -3 -20 -13
c-20 -28 -21 -55 -13 -55c6 0 14 16 21 35zM124 48c0 4 -12 12 -23 24c-10 11 -27 30 -36 50c-6 13 -13 18 -16 18s-4 -2 -4 -7c1 -22 46 -91 73 -91c4 0 6 2 6 6zM147 39c0 1 -4 7 -8 7c-6 -1 -9 -6 -9 -9c1 -4 2 -8 8 -7c5 0 9 4 9 9z" />
    <glyph glyph-name="Udieresis" unicode="&#xdc;" horiz-adv-x="423" 
d="M157 644c-22 0 -47 16 -47 45s25 46 47 46s46 -17 46 -46s-24 -45 -46 -45zM267 644c-22 0 -47 16 -47 45s25 46 47 46s46 -17 46 -46s-24 -45 -46 -45zM208 -4c-121 0 -195 91 -195 225v309c0 27 9 86 53 86s61 -16 61 -88v-300c0 -65 -8 -137 85 -137
c88 0 83 112 83 193v247c0 27 8 87 50 87c41 0 63 -26 63 -86v-286c0 -151 -68 -250 -200 -250zM323 556c0 5 4 18 13 28c11 14 12 19 0 19c-6 0 -13 -8 -17 -15c-3 -6 -9 -18 -10 -30c0 -7 1 -14 7 -14c7 0 7 5 7 12zM55 570c5 12 15 19 15 28c0 3 -1 5 -3 5
c-4 0 -13 -3 -20 -13c-20 -28 -21 -55 -13 -55c6 0 14 16 21 35zM124 48c0 4 -12 12 -23 24c-10 11 -27 30 -36 50c-6 13 -13 18 -16 18s-4 -2 -4 -7c1 -22 46 -91 73 -91c4 0 6 2 6 6zM147 39c0 1 -4 7 -8 7c-6 -1 -9 -6 -9 -9c1 -4 2 -8 8 -7c5 0 9 4 9 9z" />
    <glyph glyph-name="Ydieresis" unicode="&#x178;" horiz-adv-x="417" 
d="M154 644c-22 0 -47 16 -47 45s25 46 47 46s46 -17 46 -46s-24 -45 -46 -45zM264 644c-22 0 -47 16 -47 45s25 46 47 46s46 -17 46 -46s-24 -45 -46 -45zM208 0c-35 0 -53 27 -53 52v139c0 35 -7 50 -31 103l-119 262c-9 19 14 60 57 60c12 0 24 -5 31 -21l93 -218
c6 -15 16 -35 24 -35s16 14 25 35l100 223c6 14 23 16 32 16c34 0 52 -42 42 -64l-125 -271c-19 -41 -19 -49 -19 -107v-122c0 -41 -33 -52 -57 -52zM36 551c-3 10 -1 17 -2 24c-1 6 -4 13 -7 12c-15 -6 -9 -31 -5 -41c3 -6 8 -10 12 -9c5 2 4 9 2 14zM192 33
c-2 5 -9 18 -11 41c-1 17 -3 23 -5 23c-1 0 -5 -4 -6 -16c-2 -42 10 -60 22 -60c5 0 3 6 0 12z" />
    <glyph glyph-name="Yacute" unicode="&#xdd;" horiz-adv-x="417" 
d="M165 640c-15 11 -13 41 8 70c30 42 49 60 60 60c10 0 30 -22 29 -36c-5 -27 -50 -101 -79 -101c-7 0 -12 3 -18 7zM208 0c-35 0 -53 27 -53 52v139c0 35 -7 50 -31 103l-119 262c-9 19 14 60 57 60c12 0 24 -5 31 -21l93 -218c6 -15 16 -35 24 -35s16 14 25 35l100 223
c6 14 23 16 32 16c34 0 52 -42 42 -64l-125 -271c-19 -41 -19 -49 -19 -107v-122c0 -41 -33 -52 -57 -52zM36 551c-3 10 -1 17 -2 24c-1 6 -4 13 -7 12c-15 -6 -9 -31 -5 -41c3 -6 8 -10 12 -9c5 2 4 9 2 14zM192 33c-2 5 -9 18 -11 41c-1 17 -3 23 -5 23c-1 0 -5 -4 -6 -16
c-2 -42 10 -60 22 -60c5 0 3 6 0 12z" />
    <glyph glyph-name="Zcaron" unicode="&#x17d;" horiz-adv-x="355" 
d="M88 753c0 13 20 29 33 29c29 0 40 -37 60 -59c16 22 25 57 52 57c16 0 35 -11 35 -28c0 -26 -59 -114 -88 -114c-30 0 -92 86 -92 115zM78 0c-30 0 -69 13 -69 55c0 13 1 27 11 47l208 411c2 4 3 9 3 12c-1 4 -3 6 -11 6l-178 2c-17 0 -30 16 -30 36c0 39 23 49 48 49
l246 -2c32 0 41 -37 41 -68c0 -20 -5 -40 -15 -60l-174 -330c-16 -30 -25 -48 -25 -58s9 -13 28 -13l148 -1c26 0 39 -21 39 -51c0 -19 -16 -35 -27 -35h-243zM42 574c3 5 10 17 9 21c0 2 -6 7 -9 7c-14 -2 -17 -26 -15 -42c0 -3 3 -8 6 -8c5 1 8 19 9 22zM35 49
c10 -1 24 54 25 68c0 1 -2 4 -4 4c-13 -1 -29 -41 -30 -50c-1 -11 3 -22 9 -22zM50 27c0 4 -1 7 -5 7c-6 0 -9 -4 -9 -9c0 -3 3 -6 5 -6c4 0 9 4 9 8z" />
    <glyph glyph-name="agrave" unicode="&#xe0;" horiz-adv-x="408" 
d="M243 638c-5 -5 -10 -8 -15 -8c-24 0 -71 80 -76 104c-1 14 12 38 29 38c11 0 30 -18 60 -60c21 -29 18 -58 2 -74zM158 -8c-89 0 -142 112 -142 299c0 203 62 324 168 330c76 4 97 -55 105 -55s-1 58 49 58c25 0 45 -14 45 -32v-388c0 -54 6 -108 6 -133
c0 -47 -20 -79 -48 -79c-32 0 -54 40 -54 96c0 17 -2 26 -5 26c-12 0 -31 -122 -124 -122zM312 557c5 0 7 11 9 20c4 13 9 23 9 29c0 4 -2 5 -4 5c-7 0 -21 -15 -21 -36c0 -10 3 -18 7 -18zM182 90c37 0 91 163 91 276c0 88 -33 163 -70 163c-44 0 -80 -101 -80 -223
c0 -109 29 -216 59 -216zM110 33c5 0 9 6 8 10c-2 7 -29 33 -35 54c-4 11 -7 39 -15 39c-6 0 -7 -21 2 -47c10 -27 29 -56 40 -56zM339 22c0 9 -23 21 -23 41c0 0 0 11 -7 11c-5 0 -7 -4 -7 -12c0 -21 15 -49 27 -49c5 0 10 5 10 9zM135 17c9 0 20 25 4 25
c-7 0 -12 -5 -12 -12c0 -6 4 -13 8 -13z" />
    <glyph glyph-name="aacute" unicode="&#xe1;" horiz-adv-x="408" 
d="M160 640c-15 11 -13 41 8 70c30 42 49 60 60 60c10 0 30 -22 29 -36c-5 -27 -50 -101 -79 -101c-7 0 -12 3 -18 7zM158 -8c-89 0 -142 112 -142 299c0 203 62 324 168 330c76 4 97 -55 105 -55s-1 58 49 58c25 0 45 -14 45 -32v-388c0 -54 6 -108 6 -133
c0 -47 -20 -79 -48 -79c-32 0 -54 40 -54 96c0 17 -2 26 -5 26c-12 0 -31 -122 -124 -122zM312 557c5 0 7 11 9 20c4 13 9 23 9 29c0 4 -2 5 -4 5c-7 0 -21 -15 -21 -36c0 -10 3 -18 7 -18zM182 90c37 0 91 163 91 276c0 88 -33 163 -70 163c-44 0 -80 -101 -80 -223
c0 -109 29 -216 59 -216zM110 33c5 0 9 6 8 10c-2 7 -29 33 -35 54c-4 11 -7 39 -15 39c-6 0 -7 -21 2 -47c10 -27 29 -56 40 -56zM339 22c0 9 -23 21 -23 41c0 0 0 11 -7 11c-5 0 -7 -4 -7 -12c0 -21 15 -49 27 -49c5 0 10 5 10 9zM135 17c9 0 20 25 4 25
c-7 0 -12 -5 -12 -12c0 -6 4 -13 8 -13z" />
    <glyph glyph-name="acircumflex" unicode="&#xe2;" horiz-adv-x="408" 
d="M114 667c0 29 62 115 92 115c29 0 88 -88 88 -114c0 -17 -19 -28 -35 -28c-27 0 -36 35 -52 57c-20 -22 -31 -59 -60 -59c-13 0 -33 16 -33 29zM158 -8c-89 0 -142 112 -142 299c0 203 62 324 168 330c76 4 97 -55 105 -55s-1 58 49 58c25 0 45 -14 45 -32v-388
c0 -54 6 -108 6 -133c0 -47 -20 -79 -48 -79c-32 0 -54 40 -54 96c0 17 -2 26 -5 26c-12 0 -31 -122 -124 -122zM312 557c5 0 7 11 9 20c4 13 9 23 9 29c0 4 -2 5 -4 5c-7 0 -21 -15 -21 -36c0 -10 3 -18 7 -18zM182 90c37 0 91 163 91 276c0 88 -33 163 -70 163
c-44 0 -80 -101 -80 -223c0 -109 29 -216 59 -216zM110 33c5 0 9 6 8 10c-2 7 -29 33 -35 54c-4 11 -7 39 -15 39c-6 0 -7 -21 2 -47c10 -27 29 -56 40 -56zM339 22c0 9 -23 21 -23 41c0 0 0 11 -7 11c-5 0 -7 -4 -7 -12c0 -21 15 -49 27 -49c5 0 10 5 10 9zM135 17
c9 0 20 25 4 25c-7 0 -12 -5 -12 -12c0 -6 4 -13 8 -13z" />
    <glyph glyph-name="atilde" unicode="&#xe3;" horiz-adv-x="408" 
d="M248 636c-44 0 -66 54 -88 54c-10 0 -24 -17 -28 -25c-7 -15 -11 -19 -27 -19c-13 0 -26 15 -26 27c0 37 41 84 77 84c41 0 68 -54 96 -54s23 56 53 56c15 0 24 -18 24 -29c0 -43 -37 -94 -81 -94zM158 -8c-89 0 -142 112 -142 299c0 203 62 324 168 330
c76 4 97 -55 105 -55s-1 58 49 58c25 0 45 -14 45 -32v-388c0 -54 6 -108 6 -133c0 -47 -20 -79 -48 -79c-32 0 -54 40 -54 96c0 17 -2 26 -5 26c-12 0 -31 -122 -124 -122zM312 557c5 0 7 11 9 20c4 13 9 23 9 29c0 4 -2 5 -4 5c-7 0 -21 -15 -21 -36c0 -10 3 -18 7 -18z
M182 90c37 0 91 163 91 276c0 88 -33 163 -70 163c-44 0 -80 -101 -80 -223c0 -109 29 -216 59 -216zM110 33c5 0 9 6 8 10c-2 7 -29 33 -35 54c-4 11 -7 39 -15 39c-6 0 -7 -21 2 -47c10 -27 29 -56 40 -56zM339 22c0 9 -23 21 -23 41c0 0 0 11 -7 11c-5 0 -7 -4 -7 -12
c0 -21 15 -49 27 -49c5 0 10 5 10 9zM135 17c9 0 20 25 4 25c-7 0 -12 -5 -12 -12c0 -6 4 -13 8 -13z" />
    <glyph glyph-name="adieresis" unicode="&#xe4;" horiz-adv-x="408" 
d="M150 644c-22 0 -47 16 -47 45s25 46 47 46s46 -17 46 -46s-24 -45 -46 -45zM260 644c-22 0 -47 16 -47 45s25 46 47 46s46 -17 46 -46s-24 -45 -46 -45zM158 -8c-89 0 -142 112 -142 299c0 203 62 324 168 330c76 4 97 -55 105 -55s-1 58 49 58c25 0 45 -14 45 -32v-388
c0 -54 6 -108 6 -133c0 -47 -20 -79 -48 -79c-32 0 -54 40 -54 96c0 17 -2 26 -5 26c-12 0 -31 -122 -124 -122zM312 557c5 0 7 11 9 20c4 13 9 23 9 29c0 4 -2 5 -4 5c-7 0 -21 -15 -21 -36c0 -10 3 -18 7 -18zM182 90c37 0 91 163 91 276c0 88 -33 163 -70 163
c-44 0 -80 -101 -80 -223c0 -109 29 -216 59 -216zM110 33c5 0 9 6 8 10c-2 7 -29 33 -35 54c-4 11 -7 39 -15 39c-6 0 -7 -21 2 -47c10 -27 29 -56 40 -56zM339 22c0 9 -23 21 -23 41c0 0 0 11 -7 11c-5 0 -7 -4 -7 -12c0 -21 15 -49 27 -49c5 0 10 5 10 9zM135 17
c9 0 20 25 4 25c-7 0 -12 -5 -12 -12c0 -6 4 -13 8 -13z" />
    <glyph glyph-name="aring" unicode="&#xe5;" horiz-adv-x="408" 
d="M203 624c-34 0 -65 21 -65 61c0 45 30 74 63 74c36 0 69 -29 69 -68c0 -35 -31 -67 -67 -67zM201 669c12 0 21 15 21 25c0 5 -8 17 -19 17c-14 0 -20 -8 -20 -24c0 -10 10 -18 18 -18zM158 -8c-89 0 -142 112 -142 299c0 203 62 324 168 330c76 4 97 -55 105 -55
s-1 58 49 58c25 0 45 -14 45 -32v-388c0 -54 6 -108 6 -133c0 -47 -20 -79 -48 -79c-32 0 -54 40 -54 96c0 17 -2 26 -5 26c-12 0 -31 -122 -124 -122zM312 557c5 0 7 11 9 20c4 13 9 23 9 29c0 4 -2 5 -4 5c-7 0 -21 -15 -21 -36c0 -10 3 -18 7 -18zM182 90
c37 0 91 163 91 276c0 88 -33 163 -70 163c-44 0 -80 -101 -80 -223c0 -109 29 -216 59 -216zM110 33c5 0 9 6 8 10c-2 7 -29 33 -35 54c-4 11 -7 39 -15 39c-6 0 -7 -21 2 -47c10 -27 29 -56 40 -56zM339 22c0 9 -23 21 -23 41c0 0 0 11 -7 11c-5 0 -7 -4 -7 -12
c0 -21 15 -49 27 -49c5 0 10 5 10 9zM135 17c9 0 20 25 4 25c-7 0 -12 -5 -12 -12c0 -6 4 -13 8 -13z" />
    <glyph glyph-name="ae" unicode="&#xe6;" horiz-adv-x="683" 
d="M158 -8c-89 0 -142 112 -142 274c0 228 105 350 227 356c102 5 118 -61 124 -86c38 55 89 87 149 87c91 0 155 -74 150 -173c-6 -116 -101 -223 -222 -223c-13 0 -17 -3 -17 -14c0 -85 33 -125 80 -125c34 0 61 29 61 67c0 32 19 53 46 53c30 0 50 -27 50 -69
c0 -81 -74 -149 -163 -149c-78 0 -139 52 -172 139c-12 -2 -44 -137 -171 -137zM371 477c9 0 53 92 93 96c7 1 14 5 13 9c0 5 -6 9 -13 8c-45 -3 -100 -79 -98 -109c1 -5 4 -5 5 -4zM182 90c37 0 116 148 116 261c0 88 -15 178 -52 178c-44 0 -123 -101 -123 -245
c0 -87 29 -194 59 -194zM424 315c2 -3 7 -4 14 -4c69 0 132 75 132 143c0 43 -23 74 -54 74c-68 0 -106 -192 -92 -213zM358 467c-6 -1 -11 -12 -10 -22c1 -5 2 -9 4 -8c7 0 13 16 11 25c-1 3 -2 6 -5 5zM110 33c5 0 9 6 8 10c-2 7 -29 33 -35 54c-4 11 -7 39 -15 39
c-6 0 -7 -21 2 -47c10 -27 29 -56 40 -56zM448 43c-2 9 -28 14 -33 33c0 0 -3 11 -10 9c-5 -2 -5 -6 -3 -14c6 -20 28 -42 39 -39c5 2 8 7 7 11zM135 17c9 0 20 25 4 25c-7 0 -12 -5 -12 -12c0 -6 4 -13 8 -13z" />
    <glyph glyph-name="ccedilla" unicode="&#xe7;" horiz-adv-x="386" 
d="M178 -169c-27 0 -71 15 -71 59c0 16 6 21 16 21c16 0 42 -15 59 -15c11 0 28 3 28 19c0 19 -62 14 -62 60c0 7 3 16 8 24c-90 32 -145 143 -145 293c0 189 88 331 212 331c99 0 157 -81 149 -225c-2 -37 -14 -57 -41 -57c-72 0 -52 61 -52 107c0 44 -19 80 -53 80
c-55 0 -96 -98 -96 -238c0 -126 32 -202 93 -202c29 0 54 31 54 61c0 31 13 59 45 59s51 -29 51 -63c0 -77 -60 -146 -145 -154c-4 -9 -7 -16 -3 -16c53 0 55 -49 55 -68c0 -44 -43 -76 -102 -76zM79 480c9 0 53 92 93 96c7 1 14 5 13 9c0 5 -6 9 -13 8
c-45 -3 -100 -79 -98 -109c1 -5 4 -5 5 -4zM66 470c-6 -1 -11 -12 -10 -22c1 -5 2 -9 4 -8c7 0 13 16 11 25c-1 3 -2 6 -5 5z" />
    <glyph glyph-name="dcroat" unicode="&#x111;" horiz-adv-x="410" 
d="M66 0c-37 0 -49 25 -49 103v219c-18 0 -42 6 -42 29c0 26 17 39 42 39v141c0 59 16 85 54 85c29 0 46 -16 46 -44c0 -7 -1 -20 3 -20c11 0 33 71 104 71c100 0 174 -138 174 -323c0 -188 -76 -300 -245 -300h-87zM53 526c0 0 -5 6 -5 17c0 25 29 40 29 46c0 4 -3 5 -10 5
c-18 0 -36 -25 -36 -58c0 -15 4 -26 11 -26c4 0 11 7 11 16zM187 91c59 0 96 79 96 206c0 130 -31 229 -83 229c-32 0 -69 -34 -69 -87v-52c28 0 45 -1 45 -34c0 -20 -19 -27 -45 -30v-196c0 -32 3 -36 28 -36h28zM43 73c6 0 6 63 6 75c0 38 -4 42 -8 42c-3 0 -7 -3 -7 -42
c0 -57 1 -75 9 -75zM43 59c-5 0 -8 -5 -8 -11c0 -11 5 -13 9 -13c3 0 6 6 6 13c0 9 0 11 -7 11z" />
    <glyph glyph-name="egrave" unicode="&#xe8;" 
d="M235 638c-5 -5 -10 -8 -15 -8c-24 0 -71 80 -76 104c-1 14 12 38 29 38c11 0 30 -18 60 -60c21 -29 18 -58 2 -74zM210 -10c-119 0 -199 121 -199 302c0 192 90 331 214 331c91 0 155 -74 150 -173c-6 -116 -101 -223 -222 -223c-13 0 -17 -3 -17 -14
c0 -85 33 -125 80 -125c34 0 61 29 61 67c0 32 19 53 46 53c30 0 50 -27 50 -69c0 -81 -74 -149 -163 -149zM80 477c9 0 53 92 93 96c7 1 14 5 13 9c0 5 -6 9 -13 8c-45 -3 -100 -79 -98 -109c1 -5 4 -5 5 -4zM133 315c2 -3 7 -4 14 -4c69 0 132 75 132 143
c0 43 -23 74 -54 74c-68 0 -106 -192 -92 -213zM67 467c-6 -1 -11 -12 -10 -22c1 -5 2 -9 4 -8c7 0 13 16 11 25c-1 3 -2 6 -5 5z" />
    <glyph glyph-name="eacute" unicode="&#xe9;" 
d="M152 640c-15 11 -13 41 8 70c30 42 49 60 60 60c10 0 30 -22 29 -36c-5 -27 -50 -101 -79 -101c-7 0 -12 3 -18 7zM210 -10c-119 0 -199 121 -199 302c0 192 90 331 214 331c91 0 155 -74 150 -173c-6 -116 -101 -223 -222 -223c-13 0 -17 -3 -17 -14
c0 -85 33 -125 80 -125c34 0 61 29 61 67c0 32 19 53 46 53c30 0 50 -27 50 -69c0 -81 -74 -149 -163 -149zM80 477c9 0 53 92 93 96c7 1 14 5 13 9c0 5 -6 9 -13 8c-45 -3 -100 -79 -98 -109c1 -5 4 -5 5 -4zM133 315c2 -3 7 -4 14 -4c69 0 132 75 132 143
c0 43 -23 74 -54 74c-68 0 -106 -192 -92 -213zM67 467c-6 -1 -11 -12 -10 -22c1 -5 2 -9 4 -8c7 0 13 16 11 25c-1 3 -2 6 -5 5z" />
    <glyph glyph-name="ecircumflex" unicode="&#xea;" 
d="M106 667c0 29 62 115 92 115c29 0 88 -88 88 -114c0 -17 -19 -28 -35 -28c-27 0 -36 35 -52 57c-20 -22 -31 -59 -60 -59c-13 0 -33 16 -33 29zM210 -10c-119 0 -199 121 -199 302c0 192 90 331 214 331c91 0 155 -74 150 -173c-6 -116 -101 -223 -222 -223
c-13 0 -17 -3 -17 -14c0 -85 33 -125 80 -125c34 0 61 29 61 67c0 32 19 53 46 53c30 0 50 -27 50 -69c0 -81 -74 -149 -163 -149zM80 477c9 0 53 92 93 96c7 1 14 5 13 9c0 5 -6 9 -13 8c-45 -3 -100 -79 -98 -109c1 -5 4 -5 5 -4zM133 315c2 -3 7 -4 14 -4
c69 0 132 75 132 143c0 43 -23 74 -54 74c-68 0 -106 -192 -92 -213zM67 467c-6 -1 -11 -12 -10 -22c1 -5 2 -9 4 -8c7 0 13 16 11 25c-1 3 -2 6 -5 5z" />
    <glyph glyph-name="edieresis" unicode="&#xeb;" 
d="M142 644c-22 0 -47 16 -47 45s25 46 47 46s46 -17 46 -46s-24 -45 -46 -45zM252 644c-22 0 -47 16 -47 45s25 46 47 46s46 -17 46 -46s-24 -45 -46 -45zM210 -10c-119 0 -199 121 -199 302c0 192 90 331 214 331c91 0 155 -74 150 -173c-6 -116 -101 -223 -222 -223
c-13 0 -17 -3 -17 -14c0 -85 33 -125 80 -125c34 0 61 29 61 67c0 32 19 53 46 53c30 0 50 -27 50 -69c0 -81 -74 -149 -163 -149zM80 477c9 0 53 92 93 96c7 1 14 5 13 9c0 5 -6 9 -13 8c-45 -3 -100 -79 -98 -109c1 -5 4 -5 5 -4zM133 315c2 -3 7 -4 14 -4
c69 0 132 75 132 143c0 43 -23 74 -54 74c-68 0 -106 -192 -92 -213zM67 467c-6 -1 -11 -12 -10 -22c1 -5 2 -9 4 -8c7 0 13 16 11 25c-1 3 -2 6 -5 5z" />
    <glyph glyph-name="lslash" unicode="&#x142;" horiz-adv-x="192" 
d="M90 0c-68 0 -72 47 -72 113v132c-16 -5 -32 0 -37 17c-8 22 11 35 29 42c2 1 5 2 8 3v256c0 29 14 55 53 55s52 -34 52 -52v-220h1c5 2 11 4 16 4c9 0 17 -5 21 -16c9 -25 -10 -39 -29 -47c-2 -1 -5 -1 -9 -3v-147c0 -27 1 -43 13 -43h11c20 0 31 -22 31 -47
c0 -34 -17 -47 -44 -47h-44zM38 523c7 0 10 40 20 57c7 12 14 27 3 27c-15 0 -31 -20 -31 -56c0 -20 5 -28 8 -28zM-4 254c6 3 8 27 6 30c-1 3 -2 7 -6 5c-10 -4 -10 -20 -7 -28c2 -6 6 -7 7 -7z" />
    <glyph glyph-name="ntilde" unicode="&#xf1;" horiz-adv-x="391" 
d="M240 636c-44 0 -66 54 -88 54c-10 0 -24 -17 -28 -25c-7 -15 -11 -19 -27 -19c-13 0 -26 15 -26 27c0 37 41 84 77 84c41 0 68 -54 96 -54s23 56 53 56c15 0 24 -18 24 -29c0 -43 -37 -94 -81 -94zM67 0c-33 0 -45 17 -45 65v477c0 58 9 74 48 74c25 0 55 -10 55 -45v-14
c0 -27 1 -40 4 -40c10 0 21 103 118 103c85 0 122 -80 122 -264v-325c0 -20 -20 -31 -56 -31s-51 19 -51 34v313c0 138 -15 165 -51 165c-57 0 -81 -110 -81 -245v-222c0 -40 -45 -45 -63 -45zM42 515c7 0 13 78 13 80c0 3 -1 8 -3 8c-14 0 -18 -47 -18 -56
c0 -10 3 -32 8 -32zM299 29c0 16 -13 11 -13 31c0 21 -2 24 -8 24s-8 -12 -8 -25c0 -27 10 -44 20 -44c4 0 9 5 9 14zM66 26c0 12 -16 11 -16 30c0 13 -3 21 -7 21c-3 0 -6 -11 -6 -26c0 -20 10 -39 21 -39c3 0 8 6 8 14z" />
    <glyph glyph-name="ograve" unicode="&#xf2;" 
d="M235 638c-5 -5 -10 -8 -15 -8c-24 0 -71 80 -76 104c-1 14 12 38 29 38c11 0 30 -18 60 -60c21 -29 18 -58 2 -74zM197 -7c-140 0 -182 158 -182 305s41 325 182 325s180 -155 180 -316s-40 -314 -180 -314zM85 505c6 15 23 43 39 56c8 7 -2 16 -5 16
c-15 0 -52 -61 -52 -86c0 -6 1 -8 5 -8c2 0 7 7 13 22zM197 56c66 0 79 168 79 252c0 58 -15 253 -79 253c-65 0 -76 -200 -76 -254c0 -84 13 -251 76 -251zM71 461c0 13 -3 15 -9 15s-10 -9 -10 -17c0 -11 6 -14 10 -14c2 0 9 5 9 16z" />
    <glyph glyph-name="oacute" unicode="&#xf3;" 
d="M152 640c-15 11 -13 41 8 70c30 42 49 60 60 60c10 0 30 -22 29 -36c-5 -27 -50 -101 -79 -101c-7 0 -12 3 -18 7zM197 -7c-140 0 -182 158 -182 305s41 325 182 325s180 -155 180 -316s-40 -314 -180 -314zM85 505c6 15 23 43 39 56c8 7 -2 16 -5 16
c-15 0 -52 -61 -52 -86c0 -6 1 -8 5 -8c2 0 7 7 13 22zM197 56c66 0 79 168 79 252c0 58 -15 253 -79 253c-65 0 -76 -200 -76 -254c0 -84 13 -251 76 -251zM71 461c0 13 -3 15 -9 15s-10 -9 -10 -17c0 -11 6 -14 10 -14c2 0 9 5 9 16z" />
    <glyph glyph-name="ocircumflex" unicode="&#xf4;" 
d="M106 667c0 29 62 115 92 115c29 0 88 -88 88 -114c0 -17 -19 -28 -35 -28c-27 0 -36 35 -52 57c-20 -22 -31 -59 -60 -59c-13 0 -33 16 -33 29zM197 -7c-140 0 -182 158 -182 305s41 325 182 325s180 -155 180 -316s-40 -314 -180 -314zM85 505c6 15 23 43 39 56
c8 7 -2 16 -5 16c-15 0 -52 -61 -52 -86c0 -6 1 -8 5 -8c2 0 7 7 13 22zM197 56c66 0 79 168 79 252c0 58 -15 253 -79 253c-65 0 -76 -200 -76 -254c0 -84 13 -251 76 -251zM71 461c0 13 -3 15 -9 15s-10 -9 -10 -17c0 -11 6 -14 10 -14c2 0 9 5 9 16z" />
    <glyph glyph-name="otilde" unicode="&#xf5;" 
d="M240 636c-44 0 -66 54 -88 54c-10 0 -24 -17 -28 -25c-7 -15 -11 -19 -27 -19c-13 0 -26 15 -26 27c0 37 41 84 77 84c41 0 68 -54 96 -54s23 56 53 56c15 0 24 -18 24 -29c0 -43 -37 -94 -81 -94zM197 -7c-140 0 -182 158 -182 305s41 325 182 325s180 -155 180 -316
s-40 -314 -180 -314zM85 505c6 15 23 43 39 56c8 7 -2 16 -5 16c-15 0 -52 -61 -52 -86c0 -6 1 -8 5 -8c2 0 7 7 13 22zM197 56c66 0 79 168 79 252c0 58 -15 253 -79 253c-65 0 -76 -200 -76 -254c0 -84 13 -251 76 -251zM71 461c0 13 -3 15 -9 15s-10 -9 -10 -17
c0 -11 6 -14 10 -14c2 0 9 5 9 16z" />
    <glyph glyph-name="odieresis" unicode="&#xf6;" 
d="M142 644c-22 0 -47 16 -47 45s25 46 47 46s46 -17 46 -46s-24 -45 -46 -45zM252 644c-22 0 -47 16 -47 45s25 46 47 46s46 -17 46 -46s-24 -45 -46 -45zM197 -7c-140 0 -182 158 -182 305s41 325 182 325s180 -155 180 -316s-40 -314 -180 -314zM85 505c6 15 23 43 39 56
c8 7 -2 16 -5 16c-15 0 -52 -61 -52 -86c0 -6 1 -8 5 -8c2 0 7 7 13 22zM197 56c66 0 79 168 79 252c0 58 -15 253 -79 253c-65 0 -76 -200 -76 -254c0 -84 13 -251 76 -251zM71 461c0 13 -3 15 -9 15s-10 -9 -10 -17c0 -11 6 -14 10 -14c2 0 9 5 9 16z" />
    <glyph glyph-name="oslash" unicode="&#xf8;" 
d="M83 -77c-12 0 -69 12 -69 36c0 5 17 53 44 122c-32 59 -43 139 -43 217c0 147 41 325 182 325c29 0 53 -7 74 -18c7 15 12 26 15 31c9 15 25 30 44 30c18 0 49 -15 49 -33c0 -13 -19 -64 -38 -111c26 -59 36 -136 36 -215c0 -161 -40 -314 -180 -314c-25 0 -46 5 -65 14
c-23 -50 -41 -84 -49 -84zM85 505c6 15 23 43 39 56c8 7 -2 16 -5 16c-15 0 -52 -61 -52 -86c0 -6 1 -8 5 -8c2 0 7 7 13 22zM123 246c40 100 83 205 115 281c-11 20 -24 34 -41 34c-65 0 -76 -200 -76 -254c0 -18 1 -38 2 -61zM71 461c0 13 -3 15 -9 15s-10 -9 -10 -17
c0 -11 6 -14 10 -14c2 0 9 5 9 16zM197 56c66 0 79 168 79 252c0 12 0 29 -1 50c-30 -78 -75 -190 -113 -281c9 -13 21 -21 35 -21zM58 -37c11 32 40 87 27 90c-3 1 -11 3 -15 -4c-6 -11 -29 -64 -29 -80c0 -9 15 -13 17 -6z" />
    <glyph glyph-name="oe" unicode="&#x153;" horiz-adv-x="714" 
d="M197 -7c-140 0 -182 158 -182 305s41 325 182 325c93 0 142 -68 164 -160c36 98 103 160 186 160c91 0 155 -74 150 -173c-6 -116 -101 -223 -222 -223c-13 0 -17 -3 -17 -14c0 -85 33 -125 80 -125c34 0 61 29 61 67c0 32 19 53 46 53c30 0 50 -27 50 -69
c0 -81 -74 -149 -163 -149c-80 0 -143 55 -175 147c-24 -84 -73 -144 -160 -144zM402 477c9 0 53 92 93 96c7 1 14 5 13 9c0 5 -6 9 -13 8c-45 -3 -100 -79 -98 -109c1 -5 4 -5 5 -4zM85 505c6 15 23 43 39 56c8 7 -2 16 -5 16c-15 0 -52 -61 -52 -86c0 -6 1 -8 5 -8
c2 0 7 7 13 22zM197 56c66 0 79 168 79 252c0 58 -15 253 -79 253c-65 0 -76 -200 -76 -254c0 -84 13 -251 76 -251zM455 315c2 -3 7 -4 14 -4c69 0 132 75 132 143c0 43 -23 74 -54 74c-68 0 -106 -192 -92 -213zM71 461c0 13 -3 15 -9 15s-10 -9 -10 -17
c0 -11 6 -14 10 -14c2 0 9 5 9 16zM389 467c-6 -1 -11 -12 -10 -22c1 -5 2 -9 4 -8c7 0 13 16 11 25c-1 3 -2 6 -5 5z" />
    <glyph glyph-name="scaron" unicode="&#x161;" horiz-adv-x="360" 
d="M90 753c0 13 20 29 33 29c29 0 40 -37 60 -59c16 22 25 57 52 57c16 0 35 -11 35 -28c0 -26 -59 -114 -88 -114c-30 0 -92 86 -92 115zM175 -9c-83 0 -172 73 -172 197c0 41 27 71 63 69c23 -1 32 -15 32 -50c0 -49 26 -131 67 -131c42 0 64 22 64 65
c0 57 -38 92 -74 128c-96 96 -133 154 -133 208c0 91 61 147 159 147c90 0 153 -90 153 -165c0 -40 -27 -79 -61 -79c-16 0 -40 14 -40 37c0 78 -27 114 -56 114s-42 -15 -42 -48c0 -41 20 -73 91 -146c87 -89 115 -135 115 -186c0 -94 -69 -160 -166 -160zM80 543
c5 9 16 24 26 32c10 7 14 18 10 18c-17 2 -57 -46 -59 -69c0 -4 2 -6 6 -6c7 -1 9 12 17 25zM64 498c0 4 -3 7 -6 7c-4 0 -8 -5 -8 -8s2 -5 7 -6c3 0 6 3 7 7zM40 190c7 18 16 29 17 40c0 3 0 5 -3 5c-22 2 -39 -37 -29 -69c2 -5 5 -10 8 -10c7 0 0 16 7 34z" />
    <glyph glyph-name="ugrave" unicode="&#xf9;" horiz-adv-x="385" 
d="M232 638c-5 -5 -10 -8 -15 -8c-24 0 -71 80 -76 104c-1 14 12 38 29 38c11 0 30 -18 60 -60c21 -29 18 -58 2 -74zM312 0c-28 0 -38 26 -38 59c0 17 -1 25 -4 25c-4 0 -7 -8 -16 -19c-18 -24 -51 -65 -101 -65c-86 0 -140 62 -140 164v405c0 31 21 48 48 48
c29 0 59 -22 59 -51v-392c0 -45 20 -77 49 -77c48 0 95 82 95 138v319c0 42 16 63 47 63c30 0 59 -18 59 -75v-467c0 -64 -29 -75 -58 -75zM299 588c11 11 5 17 -3 17c-10 0 -22 -23 -22 -38c0 -9 3 -10 7 -10c5 0 7 20 18 31zM53 597c0 6 -3 7 -4 7c-7 0 -25 -21 -25 -36
c0 -6 3 -10 5 -10c8 0 24 32 24 39zM95 52c1 14 -25 16 -33 40c-5 14 -8 24 -13 24c-6 0 -8 -5 -8 -13c0 -19 31 -63 46 -63c4 0 8 5 8 12zM300 52c-1 13 0 24 -5 24s-7 -10 -7 -21c0 -17 10 -43 19 -43c6 0 -6 22 -7 40z" />
    <glyph glyph-name="uacute" unicode="&#xfa;" horiz-adv-x="385" 
d="M149 640c-15 11 -13 41 8 70c30 42 49 60 60 60c10 0 30 -22 29 -36c-5 -27 -50 -101 -79 -101c-7 0 -12 3 -18 7zM312 0c-28 0 -38 26 -38 59c0 17 -1 25 -4 25c-4 0 -7 -8 -16 -19c-18 -24 -51 -65 -101 -65c-86 0 -140 62 -140 164v405c0 31 21 48 48 48
c29 0 59 -22 59 -51v-392c0 -45 20 -77 49 -77c48 0 95 82 95 138v319c0 42 16 63 47 63c30 0 59 -18 59 -75v-467c0 -64 -29 -75 -58 -75zM299 588c11 11 5 17 -3 17c-10 0 -22 -23 -22 -38c0 -9 3 -10 7 -10c5 0 7 20 18 31zM53 597c0 6 -3 7 -4 7c-7 0 -25 -21 -25 -36
c0 -6 3 -10 5 -10c8 0 24 32 24 39zM95 52c1 14 -25 16 -33 40c-5 14 -8 24 -13 24c-6 0 -8 -5 -8 -13c0 -19 31 -63 46 -63c4 0 8 5 8 12zM300 52c-1 13 0 24 -5 24s-7 -10 -7 -21c0 -17 10 -43 19 -43c6 0 -6 22 -7 40z" />
    <glyph glyph-name="ucircumflex" unicode="&#xfb;" horiz-adv-x="385" 
d="M103 667c0 29 62 115 92 115c29 0 88 -88 88 -114c0 -17 -19 -28 -35 -28c-27 0 -36 35 -52 57c-20 -22 -31 -59 -60 -59c-13 0 -33 16 -33 29zM312 0c-28 0 -38 26 -38 59c0 17 -1 25 -4 25c-4 0 -7 -8 -16 -19c-18 -24 -51 -65 -101 -65c-86 0 -140 62 -140 164v405
c0 31 21 48 48 48c29 0 59 -22 59 -51v-392c0 -45 20 -77 49 -77c48 0 95 82 95 138v319c0 42 16 63 47 63c30 0 59 -18 59 -75v-467c0 -64 -29 -75 -58 -75zM299 588c11 11 5 17 -3 17c-10 0 -22 -23 -22 -38c0 -9 3 -10 7 -10c5 0 7 20 18 31zM53 597c0 6 -3 7 -4 7
c-7 0 -25 -21 -25 -36c0 -6 3 -10 5 -10c8 0 24 32 24 39zM95 52c1 14 -25 16 -33 40c-5 14 -8 24 -13 24c-6 0 -8 -5 -8 -13c0 -19 31 -63 46 -63c4 0 8 5 8 12zM300 52c-1 13 0 24 -5 24s-7 -10 -7 -21c0 -17 10 -43 19 -43c6 0 -6 22 -7 40z" />
    <glyph glyph-name="udieresis" unicode="&#xfc;" horiz-adv-x="385" 
d="M138 644c-22 0 -47 16 -47 45s25 46 47 46s46 -17 46 -46s-24 -45 -46 -45zM248 644c-22 0 -47 16 -47 45s25 46 47 46s46 -17 46 -46s-24 -45 -46 -45zM312 0c-28 0 -38 26 -38 59c0 17 -1 25 -4 25c-4 0 -7 -8 -16 -19c-18 -24 -51 -65 -101 -65
c-86 0 -140 62 -140 164v405c0 31 21 48 48 48c29 0 59 -22 59 -51v-392c0 -45 20 -77 49 -77c48 0 95 82 95 138v319c0 42 16 63 47 63c30 0 59 -18 59 -75v-467c0 -64 -29 -75 -58 -75zM299 588c11 11 5 17 -3 17c-10 0 -22 -23 -22 -38c0 -9 3 -10 7 -10c5 0 7 20 18 31z
M53 597c0 6 -3 7 -4 7c-7 0 -25 -21 -25 -36c0 -6 3 -10 5 -10c8 0 24 32 24 39zM95 52c1 14 -25 16 -33 40c-5 14 -8 24 -13 24c-6 0 -8 -5 -8 -13c0 -19 31 -63 46 -63c4 0 8 5 8 12zM300 52c-1 13 0 24 -5 24s-7 -10 -7 -21c0 -17 10 -43 19 -43c6 0 -6 22 -7 40z" />
    <glyph glyph-name="yacute" unicode="&#xfd;" horiz-adv-x="383" 
d="M148 640c-15 11 -13 41 8 70c30 42 49 60 60 60c10 0 30 -22 29 -36c-5 -27 -50 -101 -79 -101c-7 0 -12 3 -18 7zM188 -6c-78 0 -140 47 -140 116c0 31 14 55 34 55s39 -11 39 -30c0 -36 31 -56 67 -56c54 0 73 37 73 114v44c0 15 0 40 -2 40c-1 0 -34 -79 -111 -79
c-64 0 -140 46 -140 216v160c0 24 15 45 45 45c39 0 62 -19 62 -48v-167c0 -99 20 -109 49 -109c48 0 95 78 95 157v107c0 42 20 62 48 62c21 0 61 -17 61 -74v-371c0 -117 -69 -182 -180 -182zM47 599c5 4 1 12 -4 12c-14 0 -23 -33 -23 -40c0 -11 3 -13 5 -13
c8 0 15 35 22 41zM288 584c7 11 17 27 9 27c-11 0 -27 -28 -27 -43c0 -5 4 -11 7 -11c5 0 4 16 11 27zM69 271c-8 8 -14 19 -18 29c-5 14 -6 25 -8 25c-5 0 -5 -8 -5 -19c0 -16 25 -62 34 -62c2 0 7 3 7 10c0 6 -6 13 -10 17zM64 80c13 0 6 27 17 50c2 4 7 23 0 23
c-10 0 -21 -27 -21 -48c0 -14 1 -25 4 -25z" />
    <glyph glyph-name="ydieresis" unicode="&#xff;" horiz-adv-x="383" 
d="M137 644c-22 0 -47 16 -47 45s25 46 47 46s46 -17 46 -46s-24 -45 -46 -45zM247 644c-22 0 -47 16 -47 45s25 46 47 46s46 -17 46 -46s-24 -45 -46 -45zM188 -6c-78 0 -140 47 -140 116c0 31 14 55 34 55s39 -11 39 -30c0 -36 31 -56 67 -56c54 0 73 37 73 114v44
c0 15 0 40 -2 40c-1 0 -34 -79 -111 -79c-64 0 -140 46 -140 216v160c0 24 15 45 45 45c39 0 62 -19 62 -48v-167c0 -99 20 -109 49 -109c48 0 95 78 95 157v107c0 42 20 62 48 62c21 0 61 -17 61 -74v-371c0 -117 -69 -182 -180 -182zM47 599c5 4 1 12 -4 12
c-14 0 -23 -33 -23 -40c0 -11 3 -13 5 -13c8 0 15 35 22 41zM288 584c7 11 17 27 9 27c-11 0 -27 -28 -27 -43c0 -5 4 -11 7 -11c5 0 4 16 11 27zM69 271c-8 8 -14 19 -18 29c-5 14 -6 25 -8 25c-5 0 -5 -8 -5 -19c0 -16 25 -62 34 -62c2 0 7 3 7 10c0 6 -6 13 -10 17z
M64 80c13 0 6 27 17 50c2 4 7 23 0 23c-10 0 -21 -27 -21 -48c0 -14 1 -25 4 -25z" />
    <glyph glyph-name="zcaron" unicode="&#x17e;" horiz-adv-x="361" 
d="M91 753c0 13 20 29 33 29c29 0 40 -37 60 -59c16 22 25 57 52 57c16 0 35 -11 35 -28c0 -26 -59 -114 -88 -114c-30 0 -92 86 -92 115zM78 0c-30 0 -69 13 -69 55c0 13 1 27 11 47l81 160h-24c-20 0 -31 16 -31 39s7 37 31 37h62l89 175c2 4 3 9 3 12c-1 4 -3 6 -11 6
l-178 2c-17 0 -30 16 -30 36c0 39 23 49 48 49l246 -2c32 0 41 -37 41 -68c0 -20 -5 -40 -15 -60l-79 -150h30c24 0 33 -12 33 -31c0 -26 -8 -45 -29 -45h-74l-55 -104c-16 -30 -25 -48 -25 -58s9 -13 28 -13l148 -1c26 0 39 -21 39 -51c0 -19 -16 -35 -27 -35h-243zM42 574
c3 5 10 17 9 21c0 2 -6 7 -9 7c-14 -2 -17 -26 -15 -42c0 -3 3 -8 6 -8c5 1 8 19 9 22zM69 306c0 7 7 20 1 20c-7 0 -15 -12 -15 -26c0 -9 3 -22 10 -22c6 0 4 16 4 28zM35 49c10 -1 24 54 25 68c0 1 -2 4 -4 4c-13 -1 -29 -41 -30 -50c-1 -11 3 -22 9 -22zM50 27
c0 4 -1 7 -5 7c-6 0 -9 -4 -9 -9c0 -3 3 -6 5 -6c4 0 9 4 9 8z" />
    <glyph glyph-name="dotlessi" unicode="&#x131;" horiz-adv-x="156" 
d="M75 -4c-32 0 -50 16 -50 36v438c0 25 11 67 50 67s56 -36 56 -62v-443c0 -21 -24 -36 -56 -36zM43 440c8 0 3 37 8 54c1 5 6 18 2 18c-14 0 -19 -34 -19 -46s3 -26 9 -26z" />
    <glyph glyph-name="igrave" unicode="&#xec;" horiz-adv-x="156" 
d="M117 638c-5 -5 -10 -8 -15 -8c-24 0 -71 80 -76 104c-1 14 12 38 29 38c11 0 30 -18 60 -60c21 -29 18 -58 2 -74zM75 -4c-32 0 -50 16 -50 36v438c0 25 11 67 50 67s56 -36 56 -62v-443c0 -21 -24 -36 -56 -36zM43 440c8 0 3 37 8 54c1 5 6 18 2 18
c-14 0 -19 -34 -19 -46s3 -26 9 -26z" />
    <glyph glyph-name="iacute" unicode="&#xed;" horiz-adv-x="156" 
d="M34 640c-15 11 -13 41 8 70c30 42 49 60 60 60c10 0 30 -22 29 -36c-5 -27 -50 -101 -79 -101c-7 0 -12 3 -18 7zM75 -4c-32 0 -50 16 -50 36v438c0 25 11 67 50 67s56 -36 56 -62v-443c0 -21 -24 -36 -56 -36zM43 440c8 0 3 37 8 54c1 5 6 18 2 18
c-14 0 -19 -34 -19 -46s3 -26 9 -26z" />
    <glyph glyph-name="icircumflex" unicode="&#xee;" horiz-adv-x="156" 
d="M-12 667c0 29 62 115 92 115c29 0 88 -88 88 -114c0 -17 -19 -28 -35 -28c-27 0 -36 35 -52 57c-20 -22 -31 -59 -60 -59c-13 0 -33 16 -33 29zM75 -4c-32 0 -50 16 -50 36v438c0 25 11 67 50 67s56 -36 56 -62v-443c0 -21 -24 -36 -56 -36zM43 440c8 0 3 37 8 54
c1 5 6 18 2 18c-14 0 -19 -34 -19 -46s3 -26 9 -26z" />
    <glyph glyph-name="idieresis" unicode="&#xef;" horiz-adv-x="156" 
d="M23 644c-22 0 -47 16 -47 45s25 46 47 46s46 -17 46 -46s-24 -45 -46 -45zM133 644c-22 0 -47 16 -47 45s25 46 47 46s46 -17 46 -46s-24 -45 -46 -45zM75 -4c-32 0 -50 16 -50 36v438c0 25 11 67 50 67s56 -36 56 -62v-443c0 -21 -24 -36 -56 -36zM43 440c8 0 3 37 8 54
c1 5 6 18 2 18c-14 0 -19 -34 -19 -46s3 -26 9 -26z" />
    </font>
</defs>
</svg>
